<svg version="1.2" xmlns="http://www.w3.org/2000/svg" viewBox="0 0 1302 1482" width="1302" height="1482"><style>.a{fill:#1dd3f5}.b{fill:#fff}.c{fill:#2d3269}</style><path fill-rule="evenodd" class="a" d="m650.5 650.5l-433.6 433.7h867.3l-433.7-433.7z"/><path fill-rule="evenodd" class="a" d="m650.5 1084.2l-216.8 216.9h433.7l-216.9-216.9z"/><path fill-rule="evenodd" class="a" d="m650.5 1301.1l-108.4 108.4h216.9l-108.5-108.4z"/><path fill-rule="evenodd" class="a" d="m650.5 1409.5l-54.2 54.2h108.5l-54.3-54.2z"/><path class="a" d="m1301.1 650.5h-1301.1l650.5-650.5zm-1170.2-54.2h1039.4l-519.7-519.7z"/><path class="b" d="m1079.1 813.9c-3.3-4.5-8.6-2.9-13.4-2.3-2.1 0.3-4.8 0.4-6.5-0.6-3.1-1.8-5.9-4.3-8.5-6.9-6.7-6.8-14.4-12.1-23.2-15.8-4.7-2-9-4.6-14-7.1 2-2.3 3.2-3.9 4.5-5.3 6-6.4 12.1-12.8 18.2-19.2 3.9-4.1 4.8-8.2 1.5-13.3-3.4-5.4-6.8-11.1-8.8-17.1-3.5-10.4-6-21-8.6-31.7-14.7-60.1-21-121.7-30.1-182.8-3.6-24.2-8.3-48.4-14.1-72.2-7.2-29.2-22.4-54-48.9-69.5-16.1-9.4-33.4-16.8-50.4-24.6-8.6-4-16.3-9-21.9-16.7-9.6-13.2-9.4-28.3-7.8-43.4 0.9-8.5 1.3-8.8-6.7-12.1-1.3-0.5-2.6-1.3-4.2-2.1 1.1-2.4 2-4.5 2.9-6.6 4.8-11.9 9.9-23.7 14.2-35.7 12-33.2 7.5-64.5-11.4-94-11.2-17.3-25.4-30.8-46-36.1-14-3.6-28-2.7-42.1-0.3-25.6 4.4-44.4 18.1-56 41.2-5 10-8.4 20.6-9.7 31.9-1.7 15.1-4.9 30.1-6.5 45.3-1.7 16.4-0.7 32.8 2.5 49-3.1 0.7-6.5 0.9-9.4 2.3-8.9 4.3-17.6 8.9-26.3 13.5-2.3 1.2-4.4 2.8-6.6 4.2 1.8 1.8 3.5 3.6 5.3 5.4 9.3 9.3 12.4 21.5 16.2 33.5-0.7 0.4-1.1 0.8-1.6 0.9-21.3 8-39 21.2-54 38.1-11.2 12.5-19.7 26.4-20.6 43.7 0 0.7 0.2 1.3 0.6 2-14-5.1-28.2-9.8-42.3-14.8-2.9-1-6.3-1.5-8.7-3.3-8.2-6-16.6-9.8-26.6-4.5-1.5-4.7 0.5-6.7 4.6-8.7 12.7-6.1 24.4-13.8 31.3-26.7 6.9-12.8 12.9-26.1 8.9-41.2-2.5-9.4-6-18.5-9-27.8-0.5-1.6-1.2-3.8-0.6-5.2 3.9-7.9 5.7-15.8 4.5-24.8-0.5-4-1.3-5-4.9-4.3-1.5 0.3-3.1 0.2-4.4 0.8-4.4 1.7-6 0.1-7-4.3-4.1-17.7-7.8-35.6-16.2-52-0.5-0.9-0.2-2.6 0.3-3.7 3.7-9.5 2.2-20.4-6.9-26.4 1.8-6.5-0.1-10.8-5.9-14.1-8-4.6-16.2-3.8-24.4-0.8-3.4 1.2-6.1 1.5-9.7-0.2-9.1-4.2-18.5-6-28-0.5-8.5 5-12.1 13.2-15.3 21.9-0.5 1.3-2 2.7-3.4 3.3-5.8 2.4-12.2 3.5-17.4 6.8-10.3 6.4-15.7 15.8-13.5 28.6 0.2 1.2-1.1 3-2.2 4.1-2.1 2.2-5 3.8-6.8 6.3-5.6 7.8-6 16.5-2.9 25.4-9.5 4.9-11.4 13.7-12.7 22.7-0.2 1.2 0.2 2.8 0.9 3.7 7.3 9.1 15.3 17.8 22.1 27.3 6.3 8.9 11.2 18.7 17.1 27.9 4.5 7.1 9.6 13.8 14.4 20.7l16.5 24c1.4 2 3.1 4.1 3.5 6.3 0.8 4.7 0.8 9.6 1.1 14.4 0.2 2.8-0.7 4.1-3.8 4.6-9.7 1.8-17.4 6.9-23.2 15-1.1 1.5-2.9 2.5-4.6 3.4-6.9 3.8-13.8 7.5-20.7 11.3 1.1-2 1.2-4.4-0.5-6.6-2.3-3-5.6-4.4-9.3-2.7-2.7 1.2-5.5 2.5-7.8 4.2-7.5 5.5-14.8 11-23.9 14-4 1.3-8 4.4-10.8 7.7-8.2 9.7-12.6 21.3-14.8 33.7-0.7 4-1.3 9 0.5 12.2 2.6 4.7 5.3 9.3 8.4 13.7l-0.2 0.4q-0.4-0.3-1.2-0.6c-6.3 11.7-12.7 23.3-18.7 35.1-13.6 26.9-22.7 55.3-25.9 85.4-2.6 24.8-5.9 49.5-3.5 74.5 1.7 18.3 4 36.5 6.3 54.8 2.7 20.6 5.9 41.2 8.5 61.8 1.7 13.5 3.7 26.6 13.5 37.1 0.9 0.9 1.1 2.7 1.1 4.1-0.2 4.1-1.3 8.3-0.8 12.4 0.5 4.3 2.4 8.4 3.9 12.5 1 2.8 2.6 5.4 3.7 8.1 1.9 5 1.4 11.7 9 12.8 0.5 0.1 0.9 1.2 1.3 1.8 3.6 6.7 5 7.2 11.3 4 3.6 3.7 6.1 3.4 8.1-1.1 0.7-1.6 1.5-3.5 1.4-5.2 0-6.6-0.4-13.3-0.6-19.9-0.1-5.3 0-10.7 0-16.5 2.2 4.4 4 8.6 6.3 12.5 0.8 1.3 3.2 3.1 4 2.8 1.5-0.7 3.1-2.7 3.2-4.3 0.2-4.9 0.5-10.1-0.7-14.8-2.1-8.2-2.4-15.7 3-22.8 1.4-1.8 2.3-4.1 2.7-6.4 2.5-15.5 5.5-31 7.1-46.6 2-19.3 2.8-38.7 4.2-58.1 0.3-3.9 0.8-7.8 1.2-11.7 2 14.4 3 28.8 5.1 43 0.9 5.9-2.9 15.1 7.1 16.1 0 11.5-0.1 22.6 0 33.7 0.1 12-1.8 10.8 11.1 12.3 0.3 0 0.5 0.3 1.8 1.2 0 13.4-0.4 27.5 0.1 41.6 0.6 17.4 1.5 34.9 3 52.2 1.3 16 3.7 31.9 5.4 47.8 1.7 16 3.4 32 4.8 48 2.1 24.1 4.6 48.2 5.9 72.4 1.2 21.6 1.3 43.2 1.3 64.8-0.1 37.4-0.5 74.9-1 112.3-0.1 13.5-0.6 26.9-0.9 40.4 0 0.8-0.2 1.6-0.3 2.8h-5.1c-5.9 0-9.8 1.7-11.6 4.8l13.6-4 38.8 8.2 26.7 10.3c-0.3-1.4-0.2-3.1-0.1-4.6 0.5-9.2 1.4-18.5 1.9-27.7 1.3-22.2 2.4-44.4 3.8-66.6 0.7-11.9 1.8-23.8 2.7-35.8 1.5-17.8 3.7-35.7 4.3-53.5 0.9-26.6 0.6-53.2 1.2-79.8 0.3-15.4 1.2-30.8 1.8-46.3 0.9-23.6 1.9-47.1 2.7-70.7 0.5-13.8 0.8-27.6 1.1-41.4 0.5-25.7 4.7-51.3 0.9-77.4 3.3-0.3 6.4-0.6 10.1-1 0.3 2.9 0.7 5.5 0.8 8.1 0.6 14.9 1.1 29.9 1.6 44.8 0.7 20.6 1.5 41.2 1.8 61.7 0.2 9.6-0.7 19.3-0.7 28.9 0.1 19.6 0.4 39.2 0.8 58.8 0.5 20.9 1.2 41.8 1.9 62.7 0.8 21.2 2.2 42.4 2.6 63.7 0.3 16.8-0.1 33.6-0.7 50.4-0.7 19.6-2.3 39.1-2.7 58.6-0.4 20.3 0.1 40.7 0.2 61.5-0.7 0.3-2.4 1.1-4.1 1.5-4 0.8-5.8 3-4.9 6.7l20.8-1.9 61.6 119.8 33.9 20.4-24-1.6c3.9 3.6 7.8 7.3 11.8 10.9 4.9 4.5 10 9 16.9 9.7 5.9 0.7 11.4-1.1 11.5-7.6 0.1-6-0.8-12.4-2.7-18.1-4.8-14.3-12.3-27.3-20.6-39.7 29.7-32.1 39.6-71 38.3-113.8q26 12.4 56.2 1.4c-0.4 61.1-17.4 112.4-79.2 138.7 6.5 2.9 11.8 0.4 16.7-2.6 23.1-14.1 41.3-32.8 52.5-57.8 7.2-16.1 10.1-33.2 11.9-50.5 0.8-7.6 1.2-15.3 0.9-22.9-0.2-4.6-0.1-9 1.5-13.3 0.4-1.1 0.6-2.3 0.6-3.4 1-21.9 2.6-43.9 2.9-65.8 0.5-38.1 0.1-76.3 0.2-114.4 0-13.8 0.5-27.6 0.8-41.5 0.6-20.1 1.2-40.1 1.9-60.5-0.2 0.1 0.1-0.2 0.4-0.2 7.1-0.4 14.3-0.7 21.5-1.1 5.4-0.3 8.9-2.9 9.5-8.1 1.2-10.7 2.2-21.5 2.9-32.3 1-14.9 1.6-29.9 2.3-44.9 1.2-24.9 2.7-49.8 3.7-74.8 0.7-16.6 0.8-33.3 1.1-49.9 0-0.6 0.3-1.2 0.6-1.9 1.9 0.1 3.7 0.2 5.3 0.2 0.8 17.6 1.3 34.7 2.3 51.8 1 16.6 3.2 33.1 3.4 49.7 0.1 14.1-2.3 28.2-3 42.4-1.4 25.3-2.4 50.6-3.6 75.9-0.2 3.3-0.1 6.7-0.4 10-1.1 11.4-2.6 22.8-3.6 34.2-0.7 7.4-0.9 14.9-1.3 22.8-14.4-0.8-28.4-1.7-42.4-2.5 0 0.4-0.1 0.9-0.1 1.3 13.4 7.6 28.5 2.3 42.7 4.4 0.1 0.9 0.1 1.6 0.1 2.2 0.3 56.3 0.6 112.6 1.1 168.9 0.1 10.4 1.2 20.9 2 31.3 0.5 6.4 2.9 11.9 8.7 15.4 4.1 2.5 8.3 4.7 12.3 7 0 13.5-0.7 27 0.2 40.5 1.1 18.7 6.9 36 19.9 50 16.8 18.1 36.5 32.6 58.4 43.8 5.8 3 13.1 4.1 19.7 4 13.1-0.2 18.9-9.8 14.1-21.9-1.6-4-3.3-8.1-5.8-11.6-7.5-10.6-14.7-21.5-23.2-31.2-19.3-22-30.6-47.1-32.3-76.4-0.2-3.4 0.3-5.9 3.1-8.3 5.6-4.8 9.7-10.5 7.9-18.6-0.2-1-0.1-2 0-3 1.3-39.8 2.4-79.5 4-119.3 1-24.2 2.7-48.5 4-72.9 2.1-0.5 4-0.9 5.9-1.3 13.6-3.2 27.9-4 40.4-11.2 2-1.2 4.1-3.5 4.6-5.7 2.4-12 5-24.1 6.1-36.2 2.4-26.8 5-53.7 5.8-80.6 1.8-58.9-0.1-117.8-2.8-176.7-0.3-6.8-0.7-13.6-1.1-20.4-1.2-19.6-2.5-39.1-3.8-58.7-0.8-12.4-1.9-24.8-2.7-37.2-0.5-7.8-0.9-15.6-1.3-23.4 19.6 64.4 29.6 131 48.7 196.9 5.9-5.6 10.7-10.2 15.8-15.1 6.7 13.1 13.2 25.6 19.9 38.5 0 0-0.7 0.7-1.3 1.5-4.9 6.2-10.1 12.2-14.6 18.7-1.2 1.8-1.4 5.6-0.3 7.2 1.1 1.5 4.6 1.7 7 1.7 2.3 0.1 4.7-0.8 7.1-1.3 0.2 1 0.3 1.5 0.3 2 0.8 27.9 1.4 55.9 2.5 83.8 1 24.2 2.9 48.4 3.8 72.7 1 24.9 1.4 49.9 2.1 74.9 1 34.1 1.8 68.2 3 102.3 0.7 20.4 2.2 40.8 2.9 61.3 0.9 27.4 1.4 54.9 2.2 82.3 0.2 9.5 0.7 19 0.9 28.4 0.1 6.3 0 12.6 0 18.8-11.5 1.4-18.6 7.4-20.6 17.9-0.7 3.5 0.2 7.4-0.4 10.9-1.3 7.8 2.9 12.1 8.9 15.5 1.6 0.9 3.2 1.8 4.8 2.5 15.3 6.4 30.5 8.5 45.7-0.3 5.2-3 8.8-6.9 7.7-13.6-0.5-2.9-0.1-6-0.1-9 0.1-12.7-7.1-21.2-19.1-23.1 0-7.7 0.2-15.3-0.1-23-0.4-10.1-1.6-20.2-1.8-30.4-0.8-55.9-1.1-111.9-2.1-167.8-0.4-23.4-1.9-46.9-2.9-70.3-1.3-29.4-2.7-58.8-4-88.2-1.1-23.9-2-47.9-3-71.8-1.1-27.3-2.1-54.5-3.1-81.8-0.1-2.4 0-4.7 0-7.1 1.4 1.3 2 2.6 2.5 3.9 2.4 6.4 8.3 8.9 12.1 3.7 3.6-5 9.4-7.6 12.2-13 0.4-0.8 1-2.3 1.6-2.3 7.3-0.4 8.1-6.2 9.8-11.3 0.3-0.9 1.3-2.1 2.2-2.2 4.5-0.8 6.8-4.7 6-7.9-1.4-6.1 1.9-9.6 4.7-13.8 2.5-3.5 6-8 2.5-12.7zm-420.4 519.2l-5.5 28.1-14.1 30.4-18.4 22.6-24.8-38.4-4.6-19.3 5-24.7-3.4-9-13.3-7.6 0.1-41.8 6-61.7 6-54.2 6.4-52 4.1-38 0.8-29 12.8 19.6 17 10.6 14.6 5.6 0.8 55 0.8 143.4 7.5 18.8 4.6 6.7z"/><path fill-rule="evenodd" class="b" d="m622 1415.1l16.8-22 14.4-31.9 5.5-28.1 1.7-27.4 0.7-7.5 15.7 8.2 12.7 1.4 20.9-4.2 9.3-5.1-0.7 33.3-7.2 36.6-15.1 29.2-25 28.8-23.7 14-13.7 2.1-12.3-27.4z"/><path class="c" d="m723.4 482.3c1.4 8.1 2.7 16.3 4.1 24.4 5.8 35 11.8 70 17.5 105 3.2 19.8 5.5 39.8 8.8 59.6 2.7 16.4 6.6 32.5 9.1 48.9 2.2 14.4 3.3 29 4.6 43.5 0.8 9.9 1.1 19.8 1.6 30 6.3-0.6 8.6 3.1 8.8 8.7 0.3 10.5 0.4 21.1 0.8 31.6 0.1 2.8 0.8 5.5 0.9 8.3 0.7 10.9 1.3 21.8 2 32.7 0.7 10.9 1.5 21.7 2.2 32.6h1.6c0.7-9.5 1.3-19.1 2.2-28.6 1.4-14.5 3.1-28.9 4.5-43.3 0.3-2.7-0.6-5.5-0.7-8.2-0.2-6.4-0.4-12.8-0.4-19.3 0-2.3 0.6-4.6 0.7-6.9 0.1-12.8-0.1-25.5 0.2-38.3 0.4-19.6 1.2-39.1 1.9-58.7 0.1-3.5 0.6-6.9 0.9-10.4 0.1-4 0.2-8 0.2-12 0.3-35.3 0.8-70.6 0.7-105.9 0-9.2-1.8-18.4-2.6-27.6-0.3-3.5-0.2-7-0.2-10.5 0-16.8-0.4-33.6 0.1-50.4 0.3-9.2 2.2-18.3 3-27.5 0.6-6.1 0.8-12.3 0.7-18.4-0.2-17.9-0.8-35.9-0.8-53.8 0-15.3 0.3-30.6 1-45.9 0.6-11.9 2.3-23.7 3.1-35.6 0.6-8.9 0.7-17.9 0.8-26.9 0.1-8.5 1.2-9.2 9.5-10.4 8.9-1.3 17.5-0.8 26 2.2 10.3 3.7 12.1 7.3 11 18-1.1 10.9-1.1 21.9 2.6 32.5 3.9 11 12.4 18.2 22 23.3 17 9 35.7 14.5 51.4 26 4.8 3.5 9.2 8 14.5 10.5 11.1 5.2 16.1 15.2 20.9 25.1 5 10.1 9.3 20.6 12.7 31.3 3.6 11.3 5.5 23.1 8.3 34.7 1.9 8 4.4 15.9 6 24 1.2 6 1.2 12.2 1.8 18.3 1.1 10.5 2.3 21 3.5 31.5 1.2 10.9 2.2 21.8 3.6 32.6 1 7.9 2.6 15.7 4 23.5 3 17 5.6 34 9 50.8 2.9 14.3 7.3 28.2 10.2 42.5 3.7 18.1 9.5 35.2 19.4 50.8 1.4 2.3 1.8 4.3-1.6 5.4-1 0.3-2.1 1.1-2.7 2-2.9 4.1-5.2 8.8-8.7 12.3-16.5 16.7-33.4 33-50.1 49.5-1.4 1.4-2.9 2.8-4.1 4.3-1.7 2.2-3.3 2.9-6.3 1.9-3-1-3.8-2.4-4.3-5.2-2.4-15.4-4.4-30.8-7.6-46.1-5.6-27.4-11.4-54.8-18-81.9-5.3-21.9-11.6-43.6-17.5-65.4-0.2-0.9-0.8-1.8-1.6-3.6 0.9 14.1 1.7 27.2 2.5 40.2v4c0.7 9.4 1.7 18.7 2 28.1 0.4 14.9 0.3 29.8 0.4 44.7 0.1 8 0.3 15.9 0.5 23.9 0 1.2 0.2 2.3 0.3 3.5 1 14.4 2 28.8 2.9 43.3 0.6 9.8 0.9 19.5 1.2 29.3 0.4 12.6 1 25.2 1 37.8 0 9.1-0.6 18.2-1 27.3 0.3 1 0.6 2 1 3v38q-0.4 1.5-0.9 3c-1 10.7-2 21.4-2.9 32.2-0.1 1-0.3 2.2 0.1 2.9 5.3 9 2.4 18.5 1.7 27.7-1 11.9-2.5 23.7-4 35.6-0.7 6.1-1.7 12.2-2.7 18.2-1.1 6.7-5.1 10.6-11.6 13-8.5 3.1-17.1 4.4-26.1 4.3-2.6 0-5.3 1.4-7.9 2.5-3.9 1.5-5.8 0.6-5.5-3.7 0.8-14.1 1.9-28.1 2.6-42.2 0.1-1.6-0.9-4-2.2-4.8-7.6-5.1-15.5-9.8-23.3-14.6-0.8-0.5-2-1.3-2.7-1-9.6 3.5-18.2-1.3-26.9-3.8-8.9-2.5-17.8-3.8-27-3.5-2.8 0.1-5.6-2.1-8.4-3.2-0.2-2.2-0.3-4.5-0.5-6.7 1-2.3 2.6-4.6 2.9-7 0.7-5.6 1-11.2 1.2-16.9 0.2-5.2 0-10.4 0-15.6h-0.4c-1.4 13.2-2.9 26.4-4.3 39.6-0.3 2.4-0.7 4.7-1 7.1-0.4 19.2-0.8 38.4-1.3 57.6-0.1 5.1-0.6 10.2-0.9 15.3-0.3 5.2-2.8 7.3-8.1 6.9-8.7-0.7-17.5-1.3-26.2-1.8-7-0.4-12.3-5.4-13.6-13.2 0-3 0-6 0.1-9 0.3-5.3 0.6-10.7 0.8-16 0.1-1 0.1-2 0.2-3 0.3-9.3 0.5-18.7 0.8-28 0.1-0.7 0.1-1.3 0.2-2v-6.6c-1.2-0.2-2-0.4-2.8-0.4-18.3 0.3-36.6 0.7-54.9 1h-1c-14.7 0.9-14.4 1.2-18.5 15.2-3.8 12.6-4.4 25.1-3 38 0.5 4.1 2.2 9.3-2.3 12-4.7 2.8-8.5-1.2-12.2-3.5-7.4-4.4-15-8.4-20.6-15.4-7.8-9.7-10.7-20.1-7.3-32.5 1.6-5.9 1.4-12.5 1.6-18.8 1-28.2 2.1-56.4 2.8-84.6 0.4-19.3-0.3-38.6 0.3-57.9 0.5-17.1 1.9-34.3 3.2-51.4 0.2-3.2 1-6.9 3-9.3 1.8-2.2 5.5-3 9.7-5.1-1-9.4-2.4-19.5-3-29.6-0.1-2.6 1.8-5.9 3.7-7.9 2.2-2.3 4.4-4 4.8-7.6 0.3-2.8 1.5-5.8 5.3-5.4 3.7 0.5 3.2 3.5 3.4 6.2 0.8 15.7-0.1 31.6 3.9 47 1.3 5.2 3.1 10.7 6.1 15 7.2 10.1 6.2 20.4 3.6 31.4-1.3 5.4-2.3 11.5 3.4 16.3 2.1-4.3 4.1-8.3 6.1-12.3 0.7 0 1.4 0.1 2.1 0.1 0.6 3.2 1.7 6.4 1.5 9.6-0.2 5.1-1.7 10.2-1.7 15.3 0 2.9 1.9 5.8 3.2 8.6 0.2 0.4 2.7-0.6 3.6-0.1 6 3.4 7.4-1.5 9.5-5.1 0.2-0.3 0.5-0.4 0.8-0.6 3.2-2.8 7.1-4.7 8.9-9.4 1-2.6 5.1-3.9 7.7-6 1.5-1.2 3.1-2.7 3.8-4.4 3.3-8.1 0.4-16-1.1-24-1-5.5-2-11.1-3-16.7-4.5-0.2-5.5-1.5-4.1-6.4 3.1-10.2 6.5-20.4 9.5-30.7 0.9-3.1 0.9-6.5 1.1-9.8 0.4-9.3 0.8-18.6 1-27.8 0.4-11.8 0.9-23.6 0.9-35.3-0.1-7.4-1.2-14.8-1.8-22.2-0.7-8.6-1.5-17.2-1.9-25.8-0.9-19.9-1-39.9-2.5-59.8-1.2-16-4-32-6.1-47.9-0.8-5.9-1.2-12-2.7-17.7-2.2-8.1-4.7-16.3-8.3-23.9q-9.7-20.8-21-40.8c-2.4-4.3-6.8-7.7-10.7-11.1-8.2-7-16.8-13.6-25-20.7-2.5-2.1-4-5.4-6-8.1-0.4-0.5-0.6-1.3-1.1-1.5-7.6-3-15.2-6.4-23-8.7-3.8-1.1-7.5-3.6-7.7-8.2-0.2-5.5 0.2-10.6 4.7-15.1 2.8-2.8 4.1-7.1 6-10.8 11.2-21.4 28.6-36.4 49.3-48.1 5.8-3.2 11.7-6.2 18-9.6-5-11.9-8.4-24.9-17.6-35-4-4.4-3.1-6.1 2.2-8 3.2-1.1 6.3-3 8.8-5.3 6.3-5.7 14-7.5 21.9-8.3 1.4-0.1 4.1 3.1 4.6 5.2 2.7 9.7 6.4 19 12.6 26.9 2.8 3.6 6.2 7.1 10 9.5 6.4 4.1 13.2 7.6 20 10.8 3.6 1.7 3.7 4.7 3.1 7.5-0.4 1.8-2.3 3.7-4 4.7-1.7 1-4.1 1.1-6.6 1.6-0.4 4.7-1.1 9.4-1.2 14.2-0.1 29.6-0.3 59.3 0 88.9 0.1 14.1 1.2 28.2 1.8 42.3 0.3 1.3 0.6 2.3 1 3.4z"/><path class="c" d="m488 1334.1c-0.8 4.7-1.4 9.5-2.4 14.2-0.8 3.7-2.7 6.6-5.6 9.5-3.5 3.4-5.8 8.6-7.1 13.5-4.3 16-11.9 30.3-21.5 43.5-13.5 18.6-29.4 34.8-48.5 47.7-9 6.1-19.2 9-30 10.1-4.8 0.5-7.1-1.7-9.6-6.3-6.6-12.2-0.4-20.7 5.9-30 9.8-14.3 19.2-28.8 28.7-43.2 6.2-9.3 12.3-18.6 18.5-27.9 1-1.5 2.6-2.6 3.6-4.1 1.1-1.7 2.5-3.6 2.4-5.4-0.5-9.8-2-19.4-6.8-28.2-2.4-4.4-3.9-9.2-5.4-13.9-2-6.2 0.2-8.1 6.2-10.1 10.3-3.5 19.9-0.3 29.4 1.9 9.8 2.3 19.5 5.6 28.9 9.5 8 3.3 13.9 9.2 13.3 19.2z"/><path class="c" d="m553.2 1315.1c8.8 0 17.6-0.3 26.3 0.1 10.1 0.4 17 10.7 15.4 22.8-0.8 6.2-2.3 12.4-3.8 18.5-1.3 5.3-1.1 10.3 1.8 14.9 11.5 18.8 22.8 37.9 35 56.3 6.1 9.3 10.8 19 14.4 29.5 0.7 2.2 1.8 4.3 2.6 6.4 1.5 4.1 0.7 7.7-2 11.1-2.6 3.3-5.5 3-8.9 1.9-8.4-2.6-13.8-8.7-19.5-14.9-6.2-6.7-12.3-14.6-20.2-18.2-12.4-5.6-19.3-15.7-27.4-25.2-8.7-10.2-17.6-20.3-26.5-30.5-3-3.5-4.2-7.3-5-12-1.9-10.9-4.7-21.8-8-32.4-1.8-6-5.6-11.5-7.8-17.4-2.3-6-0.5-8.7 6-9.4 9.2-1.1 18.5-1.9 27.7-2.8-0.1 0.5-0.1 0.9-0.1 1.3z"/><path class="c" d="m518.6 471.9c-3.8-8.5-7.3-16.4-10.9-24.4-1.7-3.9-2.2-6.9 1.1-11.2 2.9-3.8 3.1-10 3.6-15.2 0.6-5.8 0.3-11.6 0-17.4-0.1-2.4-1-4.8-2-7-1.5-3.1-1-5.8 2-7.2 4.7-2.2 9.7-3.6 14.7-0.6 13 7.8 16.4 14.3 15.8 32-0.5 13.8-7.8 24.8-14.2 36.2-2.6 4.7-5.7 9.2-8.6 13.7-0.4 0.7-1.4 1-1.5 1.1z"/><path class="c" d="m417.8 424.2c-1.2-12.7 6.1-20.9 17.7-26.2 4.4-2 6.9-0.8 8.1 3.9 0.5 1.9 0.8 3.9 1 5.9 1 8.8 4.8 16 11.5 22 2.9 2.6 4.9 6.5 6.8 10 0.7 1.2 0.4 3.4-0.2 4.7-2.9 6.3-2.2 12.6-1.1 19.1 0.4 2.4-0.3 4.9-0.5 7.4-2.2-0.6-4.6-1.1-6.7-2-13.1-5.7-22.5-15.6-31.1-26.6-3.9-5.1-6.2-10.8-5.5-18.2z"/><path class="c" d="m577.4 553.1c-3.7-1.2-7.7-2.4-11.5-4-4.8-2-9.6-3.9-13.9-6.6-2.2-1.4-4.6-4.2-4.8-6.6-0.3-3.2 2.5-4.4 6.1-5 14.8-2.5 29.5-5.8 44.4-8.4 2.9-0.5 6.2 0.7 9.3 1-0.6 3.5-0.1 8-2.1 10.2-6 6.4-12.9 12-19.7 17.5-1.9 1.5-4.9 1.3-7.8 1.9z"/><path class="c" d="m439.2 669.4c-2.2 27.1-11.4 49.4-37.5 61.3-2.6 1.2-5.3 2.6-8 2.7-2.3 0-5.4-1.3-6.5-3-0.9-1.4 0.2-4.7 1.4-6.6 1-1.7 3.3-2.9 5.2-3.6 19-7.6 29.2-22.3 33.8-41.6 1.1-4.5 2.3-9.1 4-13.4 0.7-1.9 2.7-3.3 4.2-4.9 1.1 1.9 2.3 3.7 3.2 5.8 0.5 1 0.2 2.4 0.2 3.3z"/><path class="c" d="m448.7 541c2.5 5.7 0.7 9-3.8 12.2-5.5 3.9-10.3 8.9-15.6 13.2-7.1 5.8-11.1 6.3-18.4 0.9-6-4.4-11.5-9.6-16.5-15.1-1.7-1.9-1.8-6-1.1-8.8 0.3-1.1 4.7-2.1 6.9-1.6 6.9 1.6 13.6 4.2 20.5 6 3 0.8 6.5 1.3 9.4 0.5 4.8-1.3 9.2-3.8 13.8-5.8 1.6-0.6 3.3-1 4.8-1.5z"/><path class="c" d="m602.9 665.3c1.4-2.7 2.8-5.4 4.3-8.2 1.3 2.6 3.4 5 3.9 7.7 2.3 12.2 6.4 23.4 16.1 31.8 2.5 2.2 5.7 3.6 7.9 6 1.5 1.6 1.8 4.4 2.6 6.6-2.5 0.6-5.5 2.3-7.5 1.5-7.5-3-12.7-8.8-17.2-15.3-6.1-8.9-8.3-19-10.1-30.1z"/><path class="c" d="m794.6 682.1c-0.1 4-0.2 8-0.2 12 0.1-4 0.1-8 0.2-12z"/><path class="c" d="m725.5 1061.8c0 3 0 6-0.1 9 0.1-3 0.1-6 0.1-9z"/><path class="c" d="m777.2 998.8c0.2 2.2 0.3 4.5 0.5 6.7-0.7 0.2-1.4 0.3-2 0.5 0.3-2.4 0.7-4.7 1-7.1 0.1 0 0.3 0 0.5-0.1z"/><path class="c" d="m917.1 664.1v-4c0.1 1.3 0 2.6 0 4z"/><path class="c" d="m925.4 904.9c-0.3-1-0.6-2-1-3 0.3 1 0.7 2 1 3z"/><path class="c" d="m924.4 946q0.5-1.5 0.9-3-0.4 1.4-0.9 3z"/><path class="c" d="m726.6 1042.8c-0.1 1-0.1 2-0.2 3 0-1 0.1-2 0.2-3z"/><path class="c" d="m723.4 482.3c-0.3-1-0.6-2.1-1-3.1 0.3 1 0.6 2 1 3.1z"/><path class="c" d="m727.5 1012.9c-0.1 0.7-0.1 1.3-0.2 2 0.1-0.7 0.1-1.4 0.2-2z"/><path class="c" d="m777.2 998.8c-0.2 0-0.4 0-0.5 0.1 1.4-13.2 2.9-26.4 4.3-39.6h0.4c0 5.2 0.1 10.4 0 15.6-0.2 5.6-0.5 11.3-1.2 16.9-0.4 2.5-2 4.7-3 7z"/><path  d="m546.6 539.4c0.6 16.4 1.6 32.9 1.8 49.3 0.1 8.3 3.2 14 10.6 17.4 2.5 1.2 5.1 2.6 7.8 3.3 15.3 4.3 29.9 1.6 44-5.1 3.5-1.7 4.3-4.6 4.3-8.2 0.3-26.5-2.1-52.6-9-78.6-19.2 6.8-38.8 10.8-59.5 11.2 0 4.2-0.1 7.4 0 10.7zm57.8-16.1c0.8 4.4 2.4 10 2.9 15.6 1.6 18.7 2.7 37.4 4.2 56 0.3 3.9-1.3 5.8-4.7 7-12.5 4.6-25.2 7.3-38.4 3.1-3.1-1-6.2-2.5-9-4.2-4.7-2.9-7.2-6.6-7.2-12.8 0-18.1-0.8-36.2-1.3-53.5 17.4-3.6 35-7.3 53.5-11.2z"/><path  d="m492.9 329.2c10.3 4 23.7 1.3 29.3-7.2-3.1 1.1-4.9 2-6.7 2.3-4.6 0.9-9.4 2.2-14 2-9-0.4-15.5-6.1-21.6-12.3-1.2-1.3-2.8-2.2-4.6-3.6-0.9 6.5 7.5 14.9 17.6 18.8z"/><path  d="m515.1 271c-0.1 4.2 2.4 7.1 6 7.2 4.4 0.1 8.1-3.7 8.1-8.4 0-3.3-4-6.5-7.9-6.5-3.6 0.1-6.1 3.2-6.2 7.7z"/><path  d="m1079.1 813.9c-3.3-4.5-8.6-2.9-13.4-2.3-2.1 0.3-4.8 0.4-6.5-0.6-3.1-1.8-5.9-4.3-8.5-6.9-6.7-6.8-14.4-12.1-23.2-15.8-4.7-2-9-4.6-14-7.1 2-2.3 3.2-3.9 4.5-5.3 6-6.4 12.1-12.8 18.2-19.2 3.9-4.1 4.8-8.2 1.5-13.3-3.4-5.4-6.8-11.1-8.8-17.1-3.5-10.4-6-21-8.6-31.7-14.7-60.1-21-121.7-30.1-182.8-3.6-24.2-8.3-48.4-14.1-72.2-7.2-29.2-22.4-54-48.9-69.5-16.1-9.4-33.4-16.8-50.4-24.6-8.6-4-16.3-9-21.9-16.7-9.6-13.2-9.4-28.3-7.8-43.4 0.9-8.5 1.3-8.8-6.7-12.1-1.3-0.5-2.6-1.3-4.2-2.1 1.1-2.4 2-4.5 2.9-6.6 4.8-11.9 9.9-23.7 14.2-35.7 12-33.2 7.5-64.5-11.4-94-11.2-17.3-25.4-30.8-46-36.1-14-3.6-28-2.7-42.1-0.3-25.6 4.4-44.4 18.1-56 41.2-5 10-8.4 20.6-9.7 31.9-1.7 15.1-4.9 30.1-6.5 45.3-1.7 16.4-0.7 32.8 2.5 49-3.1 0.7-6.5 0.9-9.4 2.3-8.9 4.3-17.6 8.9-26.3 13.5-2.3 1.2-4.4 2.8-6.6 4.2 1.8 1.8 3.5 3.6 5.3 5.4 9.3 9.3 12.4 21.5 16.2 33.5-0.7 0.4-1.1 0.8-1.6 0.9-21.3 8-39 21.2-54 38.1-11.2 12.5-19.7 26.4-20.6 43.7 0 0.7 0.2 1.3 0.6 2-14-5.1-28.2-9.8-42.3-14.8-2.9-1-6.3-1.5-8.7-3.3-8.2-6-16.6-9.8-26.6-4.5-1.5-4.7 0.5-6.7 4.6-8.7 12.7-6.1 24.4-13.8 31.3-26.7 6.9-12.8 12.9-26.1 8.9-41.2-2.5-9.4-6-18.5-9-27.8-0.5-1.6-1.2-3.8-0.6-5.2 3.9-7.9 5.7-15.8 4.5-24.8-0.5-4-1.3-5-4.9-4.3-1.5 0.3-3.1 0.2-4.4 0.8-4.4 1.7-6 0.1-7-4.3-4.1-17.7-7.8-35.6-16.2-52-0.5-0.9-0.2-2.6 0.3-3.7 3.7-9.5 2.2-20.4-6.9-26.4 1.8-6.5-0.1-10.8-5.9-14.1-8-4.6-16.2-3.8-24.4-0.8-3.4 1.2-6.1 1.5-9.7-0.2-9.1-4.2-18.5-6-28-0.5-8.5 5-12.1 13.2-15.3 21.9-0.5 1.3-2 2.7-3.4 3.3-5.8 2.4-12.2 3.5-17.4 6.8-10.3 6.4-15.7 15.8-13.5 28.6 0.2 1.2-1.1 3-2.2 4.1-2.1 2.2-5 3.8-6.8 6.3-5.6 7.8-6 16.5-2.9 25.4-9.5 4.9-11.4 13.7-12.7 22.7-0.2 1.2 0.2 2.8 0.9 3.7 7.3 9.1 15.3 17.8 22.1 27.3 6.3 8.9 11.2 18.7 17.1 27.9 4.5 7.1 9.6 13.8 14.4 20.7l16.5 24c1.4 2 3.1 4.1 3.5 6.3 0.8 4.7 0.8 9.6 1.1 14.4 0.2 2.8-0.7 4.1-3.8 4.6-9.7 1.8-17.4 6.9-23.2 15-1.1 1.5-2.9 2.5-4.6 3.4-6.9 3.8-13.8 7.5-20.7 11.3 1.1-2 1.2-4.4-0.5-6.6-2.3-3-5.6-4.4-9.3-2.7-2.7 1.2-5.5 2.5-7.8 4.2-7.5 5.5-14.8 11-23.9 14-4 1.3-8 4.4-10.8 7.7-8.2 9.7-12.6 21.3-14.8 33.7-0.7 4-1.3 9 0.5 12.2 6.6 12.2 14.5 23.5 26 31.7 3.3 2.4 6.7 4.1 9.7-0.6 1.3 1.1 2.3 1.9 3.3 2.7 1.1 0.8 2.1 1.6 3.2 2.4 3.6 2.2 6.2 1.5 7-2.7 0.6-3 0.1-6.2 0.1-9.4 2.5 1.9 4.7 4.3 7.5 5.7 2.5 1.3 6.2 2.8 8.1 1.8 1.7-0.9 1.7-5.1 2.4-7.8 0.1-0.6-0.2-1.3-0.4-1.9-1.6-5.3-3.2-10.7-4.6-15.3 3-1 6.5-1.1 7.7-2.8 1.3-1.8 1.3-5.5 0.3-7.7-2.6-5.5-5.8-10.8-9.3-15.8-4.5-6.4-9.5-12.4-14.1-18.6-2.1-2.9-1.4-5.1 1.6-7.5 4.3-3.4 8.4-7 12.4-10.7 9.1-4.7 18.2-9.3 27.5-14.1-2.5 25.5 28.3 50.5 49.6 61.1 4-3.1 1.7-7 1-10.5-1.4-7.4-2.2-14.6 1-22.6 0.6 1.3 1 1.9 1.1 2.5 0.4 1.9 0.7 3.9 1 5.9 3.1 19 0.6 38.1-0.2 57.1-1.1 24.2-2.8 48.4-3.5 72.6-0.8 33.7 0.3 67.5 3.9 101 1.6 15.1 4.8 30 8.3 44.8 2.6 10.9 6.8 21.4 10.2 32.1 1.5 4.6 0.5 8.9-3.1 11.7-4.5 3.5-9.3 7.1-14.5 9.3-15.4 6.2-29.5 2.2-43-6.2-9.1-5.6-18.7-10.3-29.9-9.2-3.5 0.3-3.7-1.6-3.9-4.1-0.5-4.9-1.2-9.8-1.7-14.7-0.8-7-1.5-14.1-2.2-21 26.8-6.3 52.3-45.7 43.2-68.1-1 2.5-1.9 4.1-2.3 5.9-2 8-3.2 16.2-5.8 23.9-5.2 15.2-14.8 27-29.9 33.5-4.9 2.1-5.9 1.4-6-3.3-0.3-19.3-1.4-38.6-0.7-57.9 0.6-15.3 3.3-30.6 5.1-46.1 4.8 2.8 8.3 5.3 12.2 7 12.9 5.4 25.2 2.6 37.5-2.6 4.4-1.9 6.1-4.7 6.4-9.5 1.2-22 2.8-44 4.1-66 0.1-1.5-1.1-3.4-2.3-4.5-0.7-0.6-3-0.1-3.9 0.7-8 6.3-17.3 7.8-26.7 6.1-8.5-1.6-16.6-5.1-24.9-7.7-1.2-0.4-2.9-0.6-3.7 0-0.8 0.5-0.9 2.3-0.9 3.5 0.1 3.8 0.7 7.6 0.5 11.4-1 15.7-2.3 31.4-3.5 47.1-0.8 10.9-1.5 21.8-2.4 32.7-1.2 14-2.7 28.1-3.9 42.1-0.9 11.4-1.4 22.8-2.2 34.3-1.4 19.3-2.7 38.7-4.4 58-1.6 17.6-2.8 35.4-5.7 52.8-2.3 13.7-8.6 26.1-20.2 34.8-7.7 5.8-15.9 7-21.4 1.6-6.1-6.1-12.9-12.8-15.8-20.5-4.1-10.9-5.2-23-7.1-34.7-2.5-15.8-4.7-31.7-6.7-47.6-2.7-20.8-6.3-41.6-7.4-62.5-0.9-17.8 1.1-35.8 2-53.7 1.1-21.6 5.5-42.6 11.9-63.2 7.3-23.6 19.4-45 31.3-66.4 1.5-2.7 2.4-4.9-1.6-6.7-6.3 11.7-12.7 23.3-18.7 35.1-13.6 26.9-22.7 55.3-25.9 85.4-2.6 24.8-5.9 49.5-3.5 74.5 1.7 18.3 4 36.5 6.3 54.8 2.7 20.6 5.9 41.2 8.5 61.8 1.7 13.5 3.7 26.6 13.5 37.1 0.9 0.9 1.1 2.7 1.1 4.1-0.2 4.1-1.3 8.3-0.8 12.4 0.5 4.3 2.4 8.4 3.9 12.5 1 2.8 2.6 5.4 3.7 8.1 1.9 5 1.4 11.7 9 12.8 0.5 0.1 0.9 1.2 1.3 1.8 3.6 6.7 5 7.2 11.3 4 3.6 3.7 6.1 3.4 8.1-1.1 0.7-1.6 1.5-3.5 1.4-5.2 0-6.6-0.4-13.3-0.6-19.9-0.1-5.3 0-10.7 0-16.5 2.2 4.4 4 8.6 6.3 12.5 0.8 1.3 3.2 3.1 4 2.8 1.5-0.7 3.1-2.7 3.2-4.3 0.2-4.9 0.5-10.1-0.7-14.8-2.1-8.2-2.4-15.7 3-22.8 1.4-1.8 2.3-4.1 2.7-6.4 2.5-15.5 5.5-31 7.1-46.6 2-19.3 2.8-38.7 4.2-58.1 0.3-3.9 0.8-7.8 1.2-11.7 2 14.4 3 28.8 5.1 43 0.9 5.9-2.9 15.1 7.1 16.1 0 11.5-0.1 22.6 0 33.7 0.1 12-1.8 10.8 11.1 12.3 0.3 0 0.5 0.3 1.8 1.2 0 13.4-0.4 27.5 0.1 41.6 0.6 17.4 1.5 34.9 3 52.2 1.3 16 3.7 31.9 5.4 47.8 1.7 16 3.4 32 4.8 48 2.1 24.1 4.6 48.2 5.9 72.4 1.2 21.6 1.3 43.2 1.3 64.8-0.1 37.4-0.5 74.9-1 112.3-0.1 13.5-0.6 26.9-0.9 40.4 0 0.8-0.2 1.6-0.3 2.8h-5.1c-11 0-15 5.6-11.5 16.1 0.4 1.3 0.9 2.5 1.4 3.7 2.6 5.6 5.3 11.3 8.1 17.2-12.7 4-21.3 12-26.2 23.9-4.7 11.4-3.1 19.6 5.5 27.5-0.6 0.9-1.1 1.9-1.7 2.8-9.6 13-19.6 25.9-28.9 39.2-5.5 7.9-9.7 16.6-9.5 26.7 0.3 10.9 6 16.7 16.6 16.4 3.6-0.1 7.3-0.8 10.6-2.1 16.6-6.5 30.7-17.2 43.2-29.5 11.1-10.9 20.9-23.1 31.3-34.7 0.8-0.9 2-1.8 3.1-2 5.8-1.1 7.8-2.7 7.5-8.3-0.6-10.2 3.4-19 7.3-28 4.2-9.9 8.4-19.8 12.4-29.8 2.5-6.1 2.8-12.1-1.1-18-1.1-1.6-0.9-4.2-0.8-6.3 0.5-9.2 1.4-18.5 1.9-27.7 1.3-22.2 2.4-44.4 3.8-66.6 0.7-11.9 1.8-23.8 2.7-35.8 1.5-17.8 3.7-35.7 4.3-53.5 0.9-26.6 0.6-53.2 1.2-79.8 0.3-15.4 1.2-30.8 1.8-46.3 0.9-23.6 1.9-47.1 2.7-70.7 0.5-13.8 0.8-27.6 1.1-41.4 0.5-25.7 4.7-51.3 0.9-77.4 3.3-0.3 6.4-0.6 10.1-1 0.3 2.9 0.7 5.5 0.8 8.1 0.6 14.9 1.1 29.9 1.6 44.8 0.7 20.6 1.5 41.2 1.8 61.7 0.2 9.6-0.7 19.3-0.7 28.9 0.1 19.6 0.4 39.2 0.8 58.8 0.5 20.9 1.2 41.8 1.9 62.7 0.8 21.2 2.2 42.4 2.6 63.7 0.3 16.8-0.1 33.6-0.7 50.4-0.7 19.6-2.3 39.1-2.7 58.6-0.4 20.3 0.1 40.7 0.2 61.5-0.7 0.3-2.4 1.1-4.1 1.5-4.3 0.9-6.1 3.3-4.7 7.5 1.2 3.7 2.7 7.4 4.1 11.1 2.5 6.6 5.9 13 7.5 19.8 3.1 13.3 5.2 26.9 8 40.4 1.4 6.6 4.1 8.2 10.4 7.3 0.7-0.1 1.9-0.1 2.2 0.3 4.8 5.8 13.7 9.1 11.3 19.1-0.2 0.9 0.3 1.9 0.8 4.3 1.3-3.5 2-5.5 2.8-7.6 0.9 0.6 1.7 1 2.3 1.6 18.2 16.8 36.3 33.6 54.5 50.4 4.9 4.5 10 9 16.9 9.7 5.9 0.7 11.4-1.1 11.5-7.6 0.1-6-0.8-12.4-2.7-18.1-4.8-14.3-12.3-27.3-20.6-39.7 29.7-32.1 39.6-71 38.3-113.8q26 12.4 56.2 1.4c-0.4 61.1-17.4 112.4-79.2 138.7 6.5 2.9 11.8 0.4 16.7-2.6 23.1-14.1 41.3-32.8 52.5-57.8 7.2-16.1 10.1-33.2 11.9-50.5 0.8-7.6 1.2-15.3 0.9-22.9-0.2-4.6-0.1-9 1.5-13.3 0.4-1.1 0.6-2.3 0.6-3.4 1-21.9 2.6-43.9 2.9-65.8 0.5-38.1 0.1-76.3 0.2-114.4 0-13.8 0.5-27.6 0.8-41.5 0.6-20.1 1.2-40.1 1.9-60.5-0.2 0.1 0.1-0.2 0.4-0.2 7.1-0.4 14.3-0.7 21.5-1.1 5.4-0.3 8.9-2.9 9.5-8.1 1.2-10.7 2.2-21.5 2.9-32.3 1-14.9 1.6-29.9 2.3-44.9 1.2-24.9 2.7-49.8 3.7-74.8 0.7-16.6 0.8-33.3 1.1-49.9 0-0.6 0.3-1.2 0.6-1.9 1.9 0.1 3.7 0.2 5.3 0.2 0.8 17.6 1.3 34.7 2.3 51.8 1 16.6 3.2 33.1 3.4 49.7 0.1 14.1-2.3 28.2-3 42.4-1.4 25.3-2.4 50.6-3.6 75.9-0.2 3.3-0.1 6.7-0.4 10-1.1 11.4-2.6 22.8-3.6 34.2-0.7 7.4-0.9 14.9-1.3 22.8-14.4-0.8-28.4-1.7-42.4-2.5 0 0.4-0.1 0.9-0.1 1.3 13.4 7.6 28.5 2.3 42.7 4.4 0.1 0.9 0.1 1.6 0.1 2.2 0.3 56.3 0.6 112.6 1.1 168.9 0.1 10.4 1.2 20.9 2 31.3 0.5 6.4 2.9 11.9 8.7 15.4 4.1 2.5 8.3 4.7 12.3 7 0 13.5-0.7 27 0.2 40.5 1.1 18.7 6.9 36 19.9 50 16.8 18.1 36.5 32.6 58.4 43.8 5.8 3 13.1 4.1 19.7 4 13.1-0.2 18.9-9.8 14.1-21.9-1.6-4-3.3-8.1-5.8-11.6-7.5-10.6-14.7-21.5-23.2-31.2-19.3-22-30.6-47.1-32.3-76.4-0.2-3.4 0.3-5.9 3.1-8.3 5.6-4.8 9.7-10.5 7.9-18.6-0.2-1-0.1-2 0-3 1.3-39.8 2.4-79.5 4-119.3 1-24.2 2.7-48.5 4-72.9 2.1-0.5 4-0.9 5.9-1.3 13.6-3.2 27.9-4 40.4-11.2 2-1.2 4.1-3.5 4.6-5.7 2.4-12 5-24.1 6.1-36.2 2.4-26.8 5-53.7 5.8-80.6 1.8-58.9-0.1-117.8-2.8-176.7-0.3-6.8-0.7-13.6-1.1-20.4-1.2-19.6-2.5-39.1-3.8-58.7-0.8-12.4-1.9-24.8-2.7-37.2-0.5-7.8-0.9-15.6-1.3-23.4 19.6 64.4 29.6 131 48.7 196.9 5.9-5.6 10.7-10.2 15.8-15.1 6.7 13.1 13.2 25.6 19.9 38.5 0 0-0.7 0.7-1.3 1.5-4.9 6.2-10.1 12.2-14.6 18.7-1.2 1.8-1.4 5.6-0.3 7.2 1.1 1.5 4.6 1.7 7 1.7 2.3 0.1 4.7-0.8 7.1-1.3 0.2 1 0.3 1.5 0.3 2 0.8 27.9 1.4 55.9 2.5 83.8 1 24.2 2.9 48.4 3.8 72.7 1 24.9 1.4 49.9 2.1 74.9 1 34.1 1.8 68.2 3 102.3 0.7 20.4 2.2 40.8 2.9 61.3 0.9 27.4 1.4 54.9 2.2 82.3 0.2 9.5 0.7 19 0.9 28.4 0.1 6.3 0 12.6 0 18.8-11.5 1.4-18.6 7.4-20.6 17.9-0.7 3.5 0.2 7.4-0.4 10.9-1.3 7.8 2.9 12.1 8.9 15.5 1.6 0.9 3.2 1.8 4.8 2.5 15.3 6.4 30.5 8.5 45.7-0.3 5.2-3 8.8-6.9 7.7-13.6-0.5-2.9-0.1-6-0.1-9 0.1-12.7-7.1-21.2-19.1-23.1 0-7.7 0.2-15.3-0.1-23-0.4-10.1-1.6-20.2-1.8-30.4-0.8-55.9-1.1-111.9-2.1-167.8-0.4-23.4-1.9-46.9-2.9-70.3-1.3-29.4-2.7-58.8-4-88.2-1.1-23.9-2-47.9-3-71.8-1.1-27.3-2.1-54.5-3.1-81.8-0.1-2.4 0-4.7 0-7.1 1.4 1.3 2 2.6 2.5 3.9 2.4 6.4 8.3 8.9 12.1 3.7 3.6-5 9.4-7.6 12.2-13 0.4-0.8 1-2.3 1.6-2.3 7.3-0.4 8.1-6.2 9.8-11.3 0.3-0.9 1.3-2.1 2.2-2.2 4.5-0.8 6.8-4.7 6-7.9-1.4-6.1 1.9-9.6 4.7-13.8 2.3-3.6 5.8-8.1 2.3-12.8zm-712.8-374.6c-0.4 7.9 3.3 14.2 8 20.2 5 6.2 9.9 12.5 14.5 19 1.8 2.6 2.7 5.8 4 8.8l-1.6 1.6c-2.9-1.9-6.2-3.5-8.8-5.8-6.8-6.4-13.3-13.1-20-19.6-1.5-1.4-3.3-2.4-4.9-3.6-0.5 0.4-1 0.8-1.6 1.2 0.9 1.6 1.5 3.5 2.7 4.8 5.4 5.7 10.4 11.8 16.6 16.6 7.7 5.9 9.9 14.1 12.2 22.6 0.8 3.1 1.1 6.3 1.7 9.5-0.5 0.4-1 0.9-1.4 1.3-2.5-1.4-5.6-2.4-7.5-4.4-10-10.2-19.7-20.8-29.6-31.1-1.4-1.4-3.2-2.3-4.9-3.4-0.4 0.5-0.8 1-1.3 1.5 0.9 1.2 1.8 2.5 2.8 3.7 5.7 6.3 11.4 12.6 17.3 18.7 4.3 4.4 6.4 9.5 7.1 15.4 0.2 1.3-0.5 2.7-1 5.1-12.8-8.9-19-22.9-29.6-32.6q-0.7 0.6-1.5 1.2c2 2.9 3.9 5.9 6 8.6 3.8 4.9 7.8 9.5 11.5 14.4 0.8 1.1 0.6 3 0.9 4.5-0.7 0.4-1.3 0.8-2 1.2-4.9-4.7-10.2-9.2-14.7-14.3-3.9-4.3-7-9.3-10.3-14-3.1-4.3-3.7-9-2.8-14.2 2-12.1 7.2-22.8 14-32.7 2.2-3.2 6.3-5.7 10-7 8.7-3 15.9-8 23-13.6 6-4.7 7.8-5.1 13.8-3.7-5 9.8-14.6 14.1-22.6 20.1zm27.1 132.8c0.2-9.4 0-18.9 0-28.5 18.5 7.3 37.1 11.5 54.4-2.6-1 9.3-2.3 19-2.9 28.7-0.8 12.4-1.3 24.9-1.5 37.3-0.1 4.2-1.6 6.2-5.5 7.6-11.6 4.1-23.2 6.9-34.9 0.5-3.3-1.8-6.4-4.1-9.3-6.6-1-0.9-1.2-2.9-1.2-4.4 0.3-10.7 0.8-21.3 0.9-32zm-46 329.8c-0.5 0.1-1 0.1-1.6 0.2-2.5-11.5-5-22.9-7.5-34.4-0.6 0-1.2-0.1-1.8-0.1-0.3 2-1.1 4.1-0.8 5.9 1.2 7.8 3 15.6 4.2 23.4 0.3 2-0.6 4.1-0.9 6.2-0.9 0.1-1.8 0.1-2.7 0.2-1.9-6.1-4-12.2-5.6-18.5-1.1-4.3-1.3-8.8-2.2-13.1-0.2-1.2-1.6-2.1-2.4-3.2-0.5 1.2-1.5 2.4-1.4 3.5 0.7 7 1.6 14 2.4 20.9-0.3 0.1-0.6 0.2-0.9 0.4-1-6.1-2-12.3-3-18.4-0.6-3.7-1.1-7.5-1.9-11.2-0.2-0.9-1.3-1.7-1.9-2.5-0.6 1-1.7 2-1.8 3 0 2.4 0.5 4.9-0.2 7.3v-17.1c8.8 10.6 18.6 10.4 29.5 5.4 0.2 14.4 2.6 28.2 0.5 42.1zm12.7-30.4c-2.4-5.2-4.8-10.3-7.3-15.8 1.8-1.5 3.9-3.3 6.6-5.5 0.9 6.7 1.8 13.8 2.7 20.8-0.7 0.2-1.3 0.3-2 0.5zm346.3-732.6c-2.1 1.6-4.3 3.3-6.7 5.1 2.1-9.4 8.6-14.3 17.2-17.2-0.2-0.4-0.4-0.7-0.7-1.1-1.4 0.2-2.9 0.3-5.4 0.6 6.8-7.8 16.3-4.2 23.3-8.6-5 0.5-10 0.9-14.9 1.4 4.4-3.6 7.7-8.6 14.9-7.1 3.9 0.8 8 0.1 12.1 0.1 0-0.5 0-1 0.1-1.5-3.9-0.2-7.8-0.3-11.7-0.5 4.3-2.8 8.6-5.1 14-3.9 4.7 1.1 9.6 1.5 14.4 2.2 0.1-0.4 0.2-0.9 0.3-1.3-3.5-0.8-6.9-1.7-10.4-2.5 0-0.5 0.1-0.9 0.1-1.4 5.3-0.2 10.8-1.2 16-0.4 5.2 0.7 10.1 3.1 15.2 4.8 0.2-0.5 0.4-1 0.5-1.5-3-1.2-6.1-2.3-9.4-3.6 6-1.1 6.9-0.9 14.4 3.2q6.5 3.5 12.9 6.9c0.2-0.4 0.5-0.8 0.7-1.3-3.5-2.1-7-4.2-10.8-6.5 6.7-0.5 20.1 6.3 26.8 13.5-2.1-0.9-3.6-1.6-5.1-2.3-0.2 0.3-0.4 0.7-0.7 1 4.1 3 8.3 6 12.4 8.9 1.4 1 3.3 1.8 4.2 3.1 5.1 8 12.3 15.6 14.2 24.3 2.1 9.8 10.2 17.4 8.2 28-0.5-0.5-1.2-1.4-2.7-3 1.4 6.2 3.2 11.4 3.5 16.6 0.3 5.4-0.9 10.8-2.4 16.2-1.4-5.3-2.9-10.6-4.3-15.9-0.4 0.1-0.8 0.2-1.2 0.2 1 11.3 8.4 22.5 0.5 33.9-0.7-3.3-1.4-6.7-2.1-10.1-0.6 0-1.2 0-1.8-0.1 3.6 12.7 1.2 24.2-6.6 35.7 0.4-6.1 0.8-11.2 1.2-16.4-0.4-0.1-0.8-0.2-1.2-0.2-0.4 2.8-1.1 5.6-1.3 8.4-0.3 4.7-0.5 9.3-0.5 14 0 2.9-3.4 7.8-6.5 8.2 0.5-5.3 1-10.4 1.5-15.6-0.5-0.1-0.9-0.2-1.4-0.2-0.6 3.9-1.1 7.7-1.8 11.5-0.2 1.2-1.2 2.3-1.8 3.4-0.5-1.3-1.6-2.7-1.4-3.9 2.9-16.9 3.3-33.8-0.5-50.6-8.2-36.4-43.9-68.9-80.8-73.6-7.1-0.9-14.3-0.8-21.4-0.9-9.2-0.1-14 7.3-20.2 12.3-0.9 0.7-1.5 1.7-2.7 3-0.2-7.7 7.7-9.1 9.8-15.3zm-21.1 73c0.2-1.5 1.3-3.3 2.5-4.4 10.9-9.8 23.1-15 38-10 0.4 0.1 0.9-0.2 1.9-0.4-7.2-9.9-22.1-7.2-42.3 6.5 2-10.6 3.6-21.4 6.2-31.9 1.3-5.1 3.7-10.3 6.8-14.6 8.9-12.2 21.7-15.8 36.1-14.3 41.5 4.3 77.4 37.8 84.3 78.8 2.5 14.9 1.6 29.8-0.9 45.5-4.7 0-9.4 0.2-14.2-0.1-4-0.2-5.2 1.5-5.3 5.2-0.2 9.1-0.4 18.3-1.1 27.4-0.2 2.4-1.8 5.4-3.7 6.8-8.8 6.5-19 9.3-29.8 10.5-21 2.3-40.8 0-57.5-14.9-11.6-10.4-16.6-23.8-18.9-38.6-2.8-17-4.1-34.2-2.1-51.5zm37.1 125.8c0-0.9 0-1.8-0.1-2.6 6 0.3 10-1.4 11.5-5.1 5.6 19.6 12.4 38.9 18.8 58.3 0.4 1.4 1.2 2.6 2.5 3.7-4.6-23.7-13.4-46.3-20.3-69.4 37.6 1.3 36.8 0.7 61.3-9.5-0.6 12.4-1.2 24.8-1.8 37.3-0.7 17.1-1.3 34.2-1.9 51.4-0.3 8.7-0.8 17.3-0.8 26 0 3.2-1.3 5.2-3.7 6.7-26.6 17.3-58.2 8.6-65.1-24.2-0.6-2.9-0.4-6-0.4-9 0-21.3 0.1-42.4 0-63.6zm-0.9-19.6c6.1 0.7 9.5 3.7 11.6 9.7-2.1 3.8-6.4 4.3-10.9 5.2-0.1-5-0.5-9.9-0.7-14.9zm-75-31.6c10.7-7.4 20.7-15.4 33.8-17.4 1.3-0.2 2.4-2.2 3.6-3.4 2.6 20.7 12 37.1 30.2 47.9 3.1 1.8 4.3 3.8 4.2 7.5 0 4.3 0 8.5-0.1 12.8-0.4 0.1-0.8 0.3-1.2 0.4 0.4 0.1 0.8 0.1 1.2 0.2-0.1 20.8-0.2 41.6 0.1 62.5 0.2 17.6 1.2 35.2 1.8 52.8 0.1 1.7 0 3.3-0.5 5.1-1.7-5-3.1-10.1-5-15-15.1-39.4-29.5-79-47.9-117-1.4-2.8-2.4-5.8-3.4-8.7-3.3-10.4-8-20-16.8-27.7zm-80.4 120.1c9.4 3.5 19 6.8 28.7 9.5 14.4 4 25.8 12.9 36.5 22.5 19 17.1 35.7 36.1 46.2 59.9 6.7 15.3 11 31.2 13 47.7 2.8 23.3 4.8 46.7 6.8 70.1 1.8 22 3.4 44 4.4 66.1 0.8 17.8 1.4 35.6 0.7 53.4-1 24.8-3.1 49.5-9.9 73.6-1.6 5.7-3.8 11.4-6.7 16.5-4.3 7.6-12.3 9.1-19.7 4.4-7.3-4.6-11.9-11.5-14.9-19.4-6.2-16.4-7.8-33.8-9.4-51-0.7-7.3-1.2-14.6-1.4-21.9-0.2-6.8 0-13.6 0.5-20.4 2.3-29 0.2-57.8-1.6-86.7-0.9-15.1-1-30.3-3.1-45.2-3.6-25.6-8.5-51.1-13-76.6-0.4-2.2-1.9-4.1-3.8-5.9 14.9 64.7 16.5 130.6 18.9 196.9-8-0.8-11.9-5.8-15.7-10.7-6.5-8.6-8.8-18.8-10.3-29.2-0.3-2-0.8-4-1.5-7.3-5.2 7.5-2.3 14-0.7 19.8 4.1 14.2 10.6 26.9 26.9 31.2 1 23.2-3.2 44.7-23.8 59.6-8.5 6.1-18.5 8.3-28.6 8.6-11.5 0.3-23.1-0.9-34.7-1.6-7.5-0.4-14.5 1.2-21 5-0.9 0.5-2 0.9-3 1.3 1.4-11 3.4-21.8 4.1-32.6 0.9-14.6 1.2-29.2 1-43.8-0.3-19.6-1-39.2-2-58.8-0.9-17.6-1.6-35.2-3.6-52.6-2.8-25.3-6.2-50.5-10.3-75.7-2.9-17.9-7.6-35.5-11.2-53.2-1-4.9-1.2-9.9-1.8-14.8q1.4-0.3 2.7-0.6c8.4 9.5 9 21.6 10 33.7 0.5 0.2 0.9 0.3 1.4 0.5 2.6-2.8 5.4-5.5 7.7-8.5 8.5-11.7 16.7-23.5 21-37.6 3.5-11.6 3.9-22.8-1.8-33.7-0.3-0.5-0.3-1.2-0.8-2.8 8.4 3.7 16 7.3 23.8 10.3zm200 434.8c-1.2 26.8-3 53.5-4.7 80.2-1.6 25.4-3.5 50.8-4.8 76.2-0.3 5.3-2.4 6.3-7 6.2-17.3-0.2-34.7-0.4-52 0-19.8 0.5-39.6 1.7-58.5 8-11.1 3.7-21.8 8.6-32.7 13.1 1.2-20.1 2.1-40.2 3-60.3 0.9-22.2 1.5-44.5 1.9-66.8 0.3-14.3-0.2-28.7 0.4-43 0.7-16.9 2.3-33.8 3.2-50.6 0.2-3.8 0.8-6.1 4.8-7.4 2.1-0.7 5.2-3 5.3-4.8 0.4-6.6-0.1-13.2-0.4-19.9-0.1-4.1-1.8-8.8-0.3-12 2.8-5.6 7.6-10.1 11.4-15 1.4 13 2.6 26 4.2 38.9 1.6 12.8 4.1 25.6 11.4 36.6 3.3 4.9 3 9.3 1.7 14.9-1.6 6.9-1.3 14.3-1.1 21.5 0 1.6 3 4.1 4.9 4.4 1.4 0.2 3.7-2.1 4.8-3.9 1.4-2.1 2-4.8 2.9-7.2 0.8 1.5 0.8 2.8 0.8 4.2-0.4 6.3-1.2 12.6-1.3 18.9-0.2 7.5 0.9 8.3 8.3 7.7 0.5 0 1 0.1 1.5 0.2 4.8 1.6 7.6-0.6 9.6-4.7 0.5-1.1 1.3-2.2 2.2-3.1 4.5-5 8.2-10.7 13.8-14.9 2.1-1.6 3.1-5.6 3.2-8.5 0.2-13.1-1.3-25.9-6.7-38-0.3-0.6 0.1-1.6 0.3-2.3 6.6-25.5 9-51.5 10.1-77.6 0.1-2.4 0.2-4.8 0.2-7.2 0.3 0.1 0.5 0.2 0.8 0.3 4.4-9 9-17.9 11-27.8-0.6-0.2-1.3-0.5-1.9-0.7q-4.9 12.9-9.9 25.8c0.3-17.1-0.3-34.2-1.2-51.2-1.2-24.2-3.2-48.4-5.3-72.5-1.8-20.1-3.7-40.2-6.7-60.1-2.9-19.4-8.9-37.9-18.6-55.1-1-1.8-2-3.5-3.1-5.2 4.2 4.1 11.3 5.9 17.6 4.6 5.7-1.1 8.8-3.9 8.7-8.7-9.2 8.4-18.7 2.9-29-0.1-11.2-16.8-25.5-30.9-41-43.8-7.5-6.3-16.2-11.8-25.3-15.5-4.1-1.7-8.2-3.2-12.3-4.8 0.6-0.8 1.1-1.7 1-2.5-0.4-10.4 3.3-19.5 8.9-28 14.2-21.7 33.2-37.9 56.6-48.8 2.9-1.4 6-2.3 9-3.4 0.7 1.5 1.2 2.2 1.5 2.9 13.1 32.9 26.6 65.6 39 98.8 6.3 16.8 11.9 34.1 15.6 51.6 3.6 16.9 3.7 34.6 6.5 51.7 5 30.9 11.1 61.6 16.5 92.4 4.3 24.8 8.6 49.6 12.4 74.5 2.4 15.2 4 30.6 5.8 45.9 1.5 13.2 3.7 26.3 4.1 39.5 0.5 18.7-0.2 37.6-1.1 56.4zm-103.7-3.3c-1.4 6.5-1.8 13.2-6 20-3.5-10.4-1.1-19.2 1.5-28.3 3.9 1.9 5.4 4 4.5 8.3zm-145.5-449.8c10.5-0.9 22.4 8.1 25.1 19.3 2.7 10.9 0.5 21.4-4.1 31.4-2.2 4.8-4.8 9.5-7.6 13.9-3.8 6-8 11.6-12.7 18.5-0.6-11.1-2.3-20.5-8.1-28.6-0.6-0.9-0.5-2.8 0-4 6.7-14.3 7.8-28.7 1.6-43.5-1.7-4 0.5-6.6 5.8-7zm-87.6-39.5c-0.2-0.4-0.4-0.9-0.5-1.4-0.1-0.3 0.1-0.6 0.2-1.5 6.7 0.5 13-0.4 16.2-7.1l-0.6-1.5c-1.5 0.5-3.1 0.9-4.4 1.6-8.4 4.6-12.3 3.8-18.1-3.9-6.3-8.5-11.4-17.4-13.3-28-1.6-8.8 1.2-12.1 9.9-11.2 0.6 0.1 1.2-0.4 3.1-1-2.7-1.8-4.5-3.1-6.4-4.3 7.6-10 4.2-20-1.7-30.5 7.4-1.9 12.2-7.2 14.5-13.8 2.2-6.3 2.5-13.3 3.6-19.8 18.7 6.6 36.6-1.4 37.9-25.6 6 1.5 12 4 18.2 4.5 8.4 0.7 10.1-6.3 11.5-13.3 5 3.4 9.8 5.1 16.2 1 5 17.3 9.7 33.8 14.7 51.2-11.1-2-19.9 0.1-28.5 3.6l0.3 1.8c4.5-0.7 9-1.6 13.6-2.1 4-0.4 8-0.5 11.9-0.3 1.3 0.1 2.5 1.7 3.8 2.6-0.1 0.6-0.3 1.1-0.4 1.7-12.6 2.6-25.2 5.2-38.1 7.8-0.4-1.8-0.7-3.2-0.9-4.3q-16.6 4.7-33.3 9.3l-1.2-2.4c4.1-2.8 7.9-6.1 12.3-8.3 4.4-2.2 9.3-3.4 13.7-5.7-7.8-1.3-14.5 1.2-20.9 5.1-2.1 1.3-4.3 2.9-5.5 4.9-2.6 4.3-5.3 7.7-10.9 7.7-0.8 0-2.7 2.3-2.4 3.1 2.1 6.8 3.7 13.9 7.1 20 3.7 6.8 12.7 9 21.1 6.7 12.3-3.2 19.8-12.7 20.6-25.4 0.2-2.7 1.3-5.8 3-7.7 3.4-3.9 8.8-2.1 9.9 2.9 0.5 2.4 0.8 4.8 1.3 7.6-2.1-0.8-3.8-1.4-5.5-2-0.3 0.5-0.6 0.9-1 1.4 3 2.3 6 4.4 8.9 6.8 4.3 3.5 8.9 6.9 12.5 11 3.4 3.8 2 6.7-3.2 7.2-3.1 0.3-6.2-0.5-9.3-0.8-1.8-0.2-3.6-0.3-5.7-0.5 4 4.7 16.9 6.4 21.2 3.1 3.1-2.3 3.7-5.4 1.3-9.4 3.1-1.2 6-2.1 8.7-3.4 2.6-1.3 5-3.1 7.9-5 4.7 12 10.3 23.8 10.5 36.9 0.2 12.8-4.9 24.4-12.7 34.3-4.9 6.3-10.6 12.7-17.2 17-17.2 11.1-36.4 15.9-56.4 10.4-16.8-4.6-29-15.9-37.5-31zm110.4-69.3c-5.6 2.4-10.7 4.5-15.1 6.5-5.1-3.7-9.9-6.9-14.3-10.5-1-0.8-1.3-3-1.3-4.6-0.1-10.8 0-10.7 10.5-12.8 4-0.8 8-1.8 12.4-2.8 2.5 7.9 5 15.7 7.8 24.2zm-135.4 31.4c-1.1-1.2-2-1.8-2.3-2.6-6-15.6-16.1-28.4-27.1-40.7-1-1.1-1.6-3.2-1.4-4.7 1.3-9.1 4.7-16.3 15.5-16.9 1-0.1 1.9-1.5 2.9-2.9-7.6 0.4-7.9-5.4-7.4-9.5 0.6-5.4 2.8-10.8 5.4-15.6 1-1.9 5-2.2 7.6-3.2 1-0.4 2-0.7 3-1.1-8.1-18.1 4.1-36 25.7-38.2 0.1 2.5 0 5 0.5 7.4 0.2 0.9 1.8 1.5 2.7 2.2 0.6-0.8 1.6-1.6 1.7-2.5 0.3-2 0.2-4 0.1-6-0.5-8 3.4-14.4 7.9-20.3 7.3-9.4 17.8-10.6 32.1-4.7-2.2 3.2-4.6 6.4-6.4 9.8-0.6 1 0.2 2.8 0.3 4.2 1.3-0.8 3-1.2 3.7-2.4 6.3-10.9 16.2-14.1 27.9-13.1 2.7 0.2 5.8 1.3 7.7 3.1 1.8 1.6 2.2 4.7 3.3 7.2-1.8 0.6-3.6 1.1-5.4 1.7-0.5 0.1-0.9 0.3-2.1 1.6 1.7 0.9 3.3 2.4 5.1 2.7 4.9 0.8 8.2 3.1 9.4 8.2 1.3 5.4 1.3 10.5-2.6 15-2.3 2.7-5.2 2.5-7.6 0.5-2.3-1.8-3.9-4.5-5.9-6.6-0.8-0.8-1.9-1.3-2.9-2-0.4 1.1-0.9 2.1-1.1 3.3-0.1 1.3 0.2 2.6 0.2 4 0.2 12.4-6 16.4-17.1 10.6-4.3-2.2-7.9-5.7-12.9-9.4 0 3.3-0.2 5.8 0 8.2 0.6 6.5-0.4 12.6-4.3 17.9-7.6 10.2-18.6 11.6-31.5 4.5-1.4-0.8-3.1-1-4.7-1.5 0.1 1.8-0.3 3.7 0.3 5.3 3.9 10.1 2.2 19.1-4.7 27.3-4 4.8-8.4 5.5-14.1 2.9-1.4-0.6-3.4 0.2-5.1 0.3 1.1 1.4 1.8 3.5 3.2 4.1 12.1 5.4 15.3 21.8 5.8 30.9-4.9 4.7-7.1 10.2-5.6 17 0.5 1 0.2 2.2 0.2 4zm143.1-59c-1.2 7.3-2.2 13.7-3.3 20.2h-2.1c-1.9-5.8-3.8-11.7-5.9-18.1 3.7-0.7 6.8-1.2 11.3-2.1zm-64 32.7c-5.5 6.1-12.1 8.5-19.6 7.6-12.7-1.7-12.5-13.2-16.2-22.2 14-3.1 27.7-6.1 42.4-9.3-0.6 5.9-1.2 11.3-1.8 16.7h-1.4c0-4.5-0.8-8.8-6.3-8.9-4.4-0.1-5.9 2.9-6.1 6.9-0.2 6.2 1.6 8.3 9 9.2zm-23.6 186.9c-5.5-4.3-11.1-8.4-16.5-12.8-8.3-6.8-15.7-14.2-20.7-23.9-8.3-16-3.5-24.2 11.2-32.4 2-1.1 4.2-1.8 7.8-3.3-2 9-1.1 17.2 3.3 24 4.3 6.5 10.2 12 15.9 18.3-0.5 3.9-1.5 9.1-1.7 14.3-0.3 5 0.3 10.1 0.7 15.8zm5-33.5c-6-4.2-10.5-10.4-15.2-16.2-3.5-4.3-3.5-9.1-2.4-14.9 1.5-8.1 0.6-16.8 0.7-25.2v-6.7c18.3 12.6 37.6 12.2 56.9 6.2 2 12.8 4.6 24.4 5.4 36.1 0.4 5.8-1.8 12-3.5 17.8-0.6 2-3.8 3.1-5.1 5.1-1.7 2.7-3.1 5.8-4 8.9-0.7 2.4 0.4 6.7-0.9 7.5-3 1.8-7 2.1-10.6 2.8-1.4 0.3-3 0-4.5-0.1-9.1-0.4-9.6-1.1-11-10.1-0.5-4.2-1.3-8-5.8-11.2zm-68.4 944.7c-1.3-3.4-2-7.3-1.9-11 0-12.1 12.2-26.5 25.7-28.9-1.1 6.4-0.9 12.5-3.3 17.4-4 8.3-9.4 15.9-14.5 23.6-2.4 3.8-5.1 1.1-6-1.1zm26.7-38.7c-0.1-0.7 2-2.6 3-2.5 3.4 0.3 6.7 1.2 10.2 2-3.9 9.3-15.4 32.2-27.2 38.6 3.3-5.3 5.9-9.4 8.3-13.6 4.3-7.6 7.5-15.5 5.7-24.5zm25.1 72.7c-15.9 18.2-32.6 35.5-54 47.5-5.1 2.9-10.7 5.4-16.4 6.8-13.1 3.3-17.4-6.1-16.4-15.6 1.2-11 7.3-19.9 13.4-28.5 8.3-11.6 16.8-23 25.9-33.9 3-3.6 8-5.4 13-8.6-4.3 9.9-8.2 18.7-12 27.6-1.4 3.2-2.6 6.5-3.5 9.8-0.4 1.6-0.1 3.5 0.7 5.3 10.9-21.4 17.5-44.8 34-63.2-2.8 26.7-10.1 52.4-16.5 78.2 0.5 0.2 1 0.4 1.4 0.7 1.1-2.3 2.7-4.4 3.3-6.8 4.3-17.4 8.5-34.9 12.7-52.4 0.8-3.2 1.3-6.5 2-9.7 6.8 10.4 13.6 20.7 21 32-2.2 2.9-5.2 7-8.6 10.8zm13.2-15.6c-0.8 0.1-1.6 0.3-2.4 0.4-4-5.7-8.1-11.4-12.1-17.1-0.2-0.3-0.3-0.6-0.5-0.9q-9.7-17.9-4.3-38.7c7 1.5 11.4 6 13.7 11.7 3.8 9.4 7.4 19.1 9.3 29 0.9 4.8-2.3 10.4-3.7 15.6zm24.5-61.5c-5.5 13.6-11.2 27.1-17.1 41.2-3.1-8.3-5.7-15.7-8.5-23-4.1-10.3-12-15.6-22.8-17.1-4.4-0.6-8.8-1.5-13.1-2.4-1-0.2-2.4-0.7-2.8-1.5-3.4-6.9-7.1-13.8-9.9-20.9-2.7-7 0.9-11.8 8.4-11 9.8 1 19.7 2.2 29.4 4.3 8.2 1.7 16.3 4.2 24 7.3 4.4 1.8 8.4 5.1 11.7 8.7 3.9 4.1 2.7 9.5 0.7 14.4zm19-465.2c-0.4 14.8-1.1 29.6-1.7 44.3-0.9 22.6-1.8 45.1-2.8 67.7-0.9 20.7-2.2 41.4-2.8 62.1-0.7 24.6-0.3 49.2-1.2 73.8-0.7 19.2-2.6 38.4-3.9 57.6-1 13.6-2 27.1-3 40.7-1.3 19.2-2.7 38.3-3.8 57.5-0.7 12.1-0.7 24.2-1 36.4 0 0.8-0.1 1.6-0.2 2.5-17.2-8.6-35.3-11.9-53.9-14.7 0-11.2-0.1-22.1 0-33.1 0.1-10.6 0.7-21.3 0.8-31.9 0.3-27.6 0.7-55.2 0.6-82.8 0-21.3 0-42.6-1-63.9-0.9-20.5-2.8-41-4.6-61.4-2.2-24.6-4.7-49.2-7.3-73.7-1.6-15.6-4-31.2-5.4-46.8-1.4-15-2.2-30.1-3-45.2-0.8-14.9-1.1-29.9-1.7-45.8h10.1c22.8 0.3 45.6 0.7 68.4 0.8 4.5 0 9-0.4 13.4-0.9 3.8-0.4 5.1 1.6 5 5-0.3 17.4-0.5 34.6-1 51.8zm12.7-62.6c-8.9 1.1-17.8 1.7-26.7 2.1-11.5 0.5-22.9 0.9-34.4 0.7-12.1-0.2-24.2-1.2-36.3-1.6-3.1-0.1-6.2 0.7-9.4 0.6-4.2 0-8.4-0.4-12.2-0.5v-42.7c5.5 1.5 10.3 2.2 14.5 4.1 7.5 3.4 14.7 7.8 22.1 11.3 18.2 8.6 42.4 0.8 53.1-12.6 3.2-4 4-8.4 2.5-13.1-4-12.8-8.5-25.4-12.2-38.3-5.5-19-7.7-38.5-8.5-58.2-1.1-25.9-2.5-51.8-2.5-77.7 0-27.4 1.4-54.8 2.5-82.2 0.4-10.9 1.8-21.7 2.6-32.6 0.2-3.1-0.3-6.2-0.6-9.6 9.1 2 17.7 4.5 26.9-0.4 0.7 5.4 0.9 10.3 2 15 2 8.8 4.9 17.5 6.8 26.4 3.1 14.5 6.4 29 8.3 43.7 3 23.3 5.1 46.7 7.3 70.2 1.1 11.7 1.6 23.5 2 35.3 0.8 25.4 2.1 50.9 1.8 76.3-0.2 16.5-3.1 32.9-4.7 49.3-0.2 1.8 0.3 3.6 0.4 5.4 2-0.4 4.3-0.4 5.9-1.4 7.7-4.8 16.1-6.9 25.1-6.1 6.8 0.6 13.5 1.7 20.2 2.1 16.6 0.8 32.2-2.2 45.8-12.4 0.1 0 0.3 0.1 0.3 0.2 0.7 9 1.5 18.1 1.9 27.1 0 0.9-2.6 2.3-4.1 2.7-14.7 3.1-29.3 6.6-44.1 9-18.6 3-37.5 5.5-56.3 7.9zm9 261.9c-0.6-13.1-1-26.2-1.1-39.4-0.1-41.8 0.2-83.6-0.1-125.4-0.2-21.4-1.1-42.8-1.9-64.2-0.3-8.4-1-16.9-1.8-25.3-0.3-3.2 1.2-4.1 3.8-4.5 18.6-2.8 37.2-5.4 55.8-8.4 10.2-1.7 20.2-4 30.5-6.1-1.4 14.6-2.8 29.2-4.1 43.8-0.4 4.8-0.1 9.6-0.2 14.5-0.4 20.3-0.5 40.6-1.2 60.8-0.9 28.9-2.2 57.7-3.3 86.6-0.6 16.6-0.8 33.2-1.9 49.8-1.3 19-3.3 37.9-5.5 56.8-1.8 16.1-4.2 32.1-6.4 48.2-1.9 13.9-4 27.8-5.6 41.7-1.8 16.1-3.6 32.3-4.6 48.5-1.1 17.9-1.3 35.9-1.8 53.8-0.1 2.6 0 5.2 0 8.1h-48.3c-0.4-4.3-1.4-9.9-1.4-15.6 0.3-22.6 1.2-45.2 1.5-67.8 0.5-28.3 1.2-56.6 0.7-84.8-0.1-23.7-2-47.4-3.1-71.1zm117.8-2.4c-16.4-6.1-28.2-17-38.9-30.6 0-0.4 0.1-0.8 0.1-1.3 0.2-3.8 0.5-7.6 0.7-11.4 1.8 0.6 3.6 1.4 5.1 1 5.1-1.4 9.9-3.6 14.9-5.5 7.2-2.7 14.4-5.4 22.8-8.6-6.5 19.3-4 37.6-4.7 56.4zm-111.5 296.8c-0.9-5.7-1-10.8-2.6-15.3-2.9-8.1-6.5-15.8-10-23.7-2.9-6.6-2.2-8.7 4.6-10.3 18.2-4.2 36.5-5.2 54.8-1.4 13.1 2.6 17.7 13.7 11.3 25.3-8.2-4.6-16.6-8.1-24.5-0.5-4.1-1.3-7.7-3-11.5-3.6-7.1-1.2-12.8 3-16.7 12-1.2 2.7-2 5.6-2.9 8.4-0.7 2.8-1.4 5.4-2.5 9.1zm63.1 10.1c-9-4.3-14.3-10.4-19.1-16.9-2.8-3.7-5.2-7.6-7.4-11.7-2.3-4.3-1.3-6 3.3-7.6 4.9-1.7 14.5 1.2 17.2 5.2 0.4 0.6 0.6 1.5 0.5 2.3-1.4 9.6 0.4 18.8 5.5 28.7zm55-17.2c-5.4 16.6-13.5 31.7-24.5 45.2-1.7 2-3 4.4-4.3 6.7-2.4-3.6-4.9-7.1-7.4-10.7-4-5.6-7.4-11.5-11.2-17.4 7.2-2.7 8.8-6 7.4-12.6-1.9-8.7-6.2-16-12.5-22.2-2.5-2.5-3.2-4.6-2.3-8.2 3.7-14.8 0.5-20.9-13.1-27.2-1.1-0.5-2.1-2.3-2.2-3.6q-0.3-7.5 0-15c0.6-15.1 0.9-30.2 2-45.3 1-13.8 3-27.6 4.5-41.4 1.6-14.7 2.9-29.3 4.8-44 2.4-18.6 6-37.2 7.9-55.9 2.3-21.5 3.7-43.1 5.1-64.8 4.7 14 21.8 27 40.1 30 0 13.3-0.1 26.8 0 40.3 0.6 51.1 1.2 102.2 2.3 153.3 0.2 10 1.3 20.3 9.6 27.9 0.8 0.8 1.1 2.3 1.2 3.6 1.6 20.9-1 41.3-7.4 61.3zm-102.7 33.3c-0.3 0.5-0.9 1-1.5 1.6-10.9-9.2-11.2-20.7-8-32.7 1.5-5.5 3.8-10.9 6.4-16 1.7-3.3 4.7-5.4 9-5.1 5.6 0.4 7.8 2.2 7.3 7.6-1.6 15.7-5.1 30.9-13.2 44.6zm12.1 15.7c-4-3.7-7.4-6.8-10.1-9.3 4.5-10.8 8.8-21 13.1-31.3h0.5c-1.1 13.4-2.3 26.8-3.5 40.6zm83.6 55.2c0.4 1.9 0.6 4 0.4 5.9-0.4 5-4 7.6-8.6 5.8-4.2-1.7-8.7-3.7-12-6.8-19.5-17.8-38.7-35.9-57.9-54.1-1.6-1.5-2.5-4.6-2.4-6.9 0.8-17.6 2-35.3 3.1-52.9 0-0.1 0.2-0.2 1-1.3 2.7 22.2 5.3 43.7 7.9 65.9 3.3-6.4 1.1-35-4-58.9 3.1 3.4 5.3 6.6 8.3 9 5.5 4.4 11.4 8.3 17.2 12.5 0.9 0.6 2.1 1 2.6 1.8 9.6 14.5 19.3 28.9 28.5 43.7 7 11.3 13 23.2 15.9 36.3zm-49.9-113.9c7.2 6.1 11.1 13.6 13 22 0.4 1.9-1 5.4-2.7 6.5-3.2 2-4-1.6-5-3.7-3.8-7.6-6.9-15.5-5.3-24.8zm129.3-288.8q-1.2 50.7-1.8 101.4c-0.3 28.8 0.2 57.6-0.3 86.4-0.2 14.3-1.7 28.5-3 42.8-0.2 2-2 4.7-3.8 5.7-16.6 9.6-35 9.5-51.3-3.8-11.3-9.2-12.3-20.4-12.5-32.6-0.3-32.6-0.1-65.3-0.3-97.9-0.2-39-0.7-77.9-0.7-116.9 0-9.2 1.7-18.5 2.8-27.7 0.4-3.8 2.5-6 6.6-6.7 21.9-3.4 44-4.4 66.8-4.4-0.8 18.3-2.1 36-2.5 53.7zm-30.6-226.5c-0.4 1.6-1.2 3.2-1.2 4.7 0 7.8 0.3 15.6-2.9 23-0.5 1-1 2-2.1 2.9 0.7-8.8 1.4-17.7 2.1-26.5q-1.3-0.1-2.7-0.3c-0.5 3.7-1.1 7.4-1.7 11.1-1.3 8-2.5 15.9-4 23.8-0.5 2.6-1.9 5.2-6 3.5q5.3-17.5 2.4-35.7c-2.8 11.8-0.9 24.5-8.3 35.4v-41.3q15.6-1.3 26-19.1c1.9 9.6 3.9 18.8 5.4 28 0.9 5.7-0.8 10.7-5.2 14.2v-23.4c-0.5-0.1-1.2-0.2-1.8-0.3zm78.2-43.1c-0.9-13.3-1.4-25.4-2.6-37.4-2.2-21.9-3.8-44-7.5-65.7-7.5-44.5-16.7-88.8-24.3-133.3-3.9-22.8-6.5-45.9-9-68.9-1.9-17.8-2.7-35.8-4-53.6-0.1-1.6 0-3.2 0-6.2 13.8 21.4 41.1 28.7 67.7 8.4 0.3 117.5 3.5 234.7-3.9 353.4-4.8 0.9-10.5 2.1-16.4 3.3zm194.2 30.7c-1.9-7.8-4-15.6-5.6-23.4-12.7-62.4-26.6-124.5-42.3-186.3-3.4-13.3-3.9-27.2-5.9-40.8-2.7-19.1-5.8-38.1-8.3-57.1-1.2-8.9-1.2-17.9-1.8-26.8-0.4-7.3-0.8-14.5-1.3-21.8-0.6-0.1-1.1-0.1-1.7-0.2-0.7 3.7-1.9 7.4-1.9 11-0.2 22.9 2 45.5 6.5 68 1.8 8.9 2.3 18.1 3.4 27.2 1.5 13.5 3.1 27 4.5 40.5 0.6 6.1 1.1 12.2 1.5 18.4 1.1 18.1 2.1 36.1 3.2 54.2 1.3 22.7 3.1 45.4 3.9 68.2 1.9 50 3.9 100.1 4.6 150.2 0.4 28.3-0.9 56.6-2.9 84.8-1.8 25.1-5.6 50.1-8.8 75.1-0.3 2.3-2 4.4-3 6.7-1.3-2.2-3-4.3-3.7-6.7-3.3-12.1-11.2-20.8-21-27.6-17.7-12.3-37.4-20.3-58.4-25.2-14.6-3.4-29.3-5.8-44.4-5-0.6 0-1.3-0.1-2.7-0.3 0.6-12.6 1-25 1.9-37.4 0.9-12.4 2.2-24.8 3.5-37.2 1.8-17.1 3.9-34.2 5.7-51.3 0.7-6.6 1.1-13.3 1.2-19.9 0.8-31.8 1.6-63.6 2.1-95.4 1.1-60.3 2.5-120.5 2.8-180.8 0.3-62.8-0.6-125.6-0.7-188.3 0-19.5 0.9-38.9 1.9-58.4 1.2-22.3 3.1-44.6 4.6-67.1 8.6-2.2 17.3-0.7 25.9 1.9 4.2 1.3 8.5 2.5 12.8 3.7 2.7 0.8 3.9 2.5 3.7 5.6-0.5 5.9-1 11.9-1 17.9 0 14.8 4.1 28.3 15.3 38.4 4.8 4.3 11 7.1 16.8 10 10.3 5 20.8 9.4 31.2 14.3 34.3 16.2 56.6 42.6 65.1 79.7 5.4 23.4 9.9 47.1 13.3 70.9 8.9 61.2 15.1 122.9 30.2 183.2 3.4 13.6 6.2 27.5 14.1 39.6 1.9 2.9 3.5 5.9 5.4 8.7 2.3 3.5 1.7 6.4-1.2 9.3-7.2 7.2-14.3 14.5-21.4 21.7-15.6 15.7-31.2 31.6-47.1 47.8zm-94.9 558.8c10 12.6 19.1 25.9 28.4 39.1 2.2 3.2 3.3 7.2 4.7 10.9 1.6 4.3-0.2 7.4-3.9 9.7-5.7 3.5-11.9 3.2-17.8 0.9-5.5-2.2-11.2-4.5-16-7.9-11.9-8.3-23.6-16.8-34.9-25.8-21.6-17.1-30.8-40.3-31.1-67.3-0.1-9.8 0-19.6 0-29.4 22.9 1.4 25.5 1 42.4-6.8 0.7 6.4 1.4 12.7 2.1 19 2.6 22 12.6 40.5 26.1 57.6zm-7.2-317c-1.3 14-2.6 28.1-3.7 42.2-1.4 17.6-2.5 35.1-3.7 52.7-0.8 12.3-1.7 24.6-2.2 36.9-0.9 21.6-1.6 43.2-2.1 64.9-0.2 7.3 0 14.7 0.9 21.9 0.8 5.9-1.8 9.4-5.8 12.7-9.9 8.2-21.4 11.8-34.1 11.4-12-0.4-23-3.7-31.8-12.2-2.2-2.2-4.1-5.9-4.1-9-0.5-63.9-0.9-127.8-0.9-191.7 0-17.3 1-34.6 1.8-51.8 0.4-9.1 1.2-18.1 2.1-27.2 0.2-2 1.1-4 1.8-6.4 29.3 0.6 56.4 7.9 82.4 20.1 2.8 1.3 3 3.2 2.7 5.6-1.1 9.8-2.3 19.8-3.3 29.9zm1.8 16.7c1.3-16.6 2.6-32.7 4-49.1 17.8 7.5 28.1 20.4 33.2 41.3-12.1 2.6-24.1 5.1-37.2 7.8zm-84.5-280.4c-0.2-3.6-0.7-7.2 4.7-7.1 0.6 0 1.3-1.1 3-2.7-0.7 25.9-1.5 50.6-2.2 75.2h-1.1c-0.8-9.1-1.7-18.1-2.3-27.2-0.8-12.6-1.3-25.4-2.1-38.2zm210.8 79.9c-1.3 0.6-3.9 0.2-4.8-0.8-0.9-1-1.2-3.6-0.5-5 1.6-3.2 3.6-6.4 6.1-8.9 6.9-6.8 14.2-13.2 21.8-20.1 5.9 4.8 6.9 11.9 10.9 18-11.4 5.8-22.4 11.4-33.5 16.8zm59.4 573c-10.5 6.1-21.9 5.7-33.1 2.4-5.6-1.7-10.9-4.6-16.1-7.3-3.7-1.9-5.3-5.3-4.8-9.6 23.9 16.5 45.1 17.2 62.5 1.8 1.4 7.5-4.1 10.2-8.5 12.7zm-3.2-38.8c0-0.1 0.2-0.2 0.5-0.6 6.4 3.4 10.3 8.3 10.4 15.9 0.1 7.4-3.6 12.3-10.2 14.9-14.7 5.7-29.1 5.4-42.8-2.9-5.7-3.5-9.1-8.4-7.8-15.3 1.4-7.6 6-12.8 13.5-15.1 1.5-0.5 3.2-0.5 3.8-0.6-1.8 5-5 10.1-5.3 15.4-0.7 11.7 10.7 18.8 21.5 14.3 10.6-4.5 17-11.8 16.3-24 0-0.7 0.1-1.3 0.1-2zm-6.1-2.7c4.5 1.9 4.3 5.2 4 8.3-1.1 9.3-10.8 18.5-20.1 19.2-4.6 0.4-10.2-3.3-12.1-8-2.2-5.3-1-11.8 3.2-15.6 0.4 3.9 1.1 7.6 1.1 11.3 0.1 4 2.4 5.6 5.7 6.2 8.4 1.4 18.7-5.6 20.1-14 0.2-2.1-1.2-4.6-1.9-7.4zm-15.9-440.2q1.4 36.9 3 73.8c0.9 21.8 2 43.5 3 65.3 1 23.6 2.4 47.2 2.9 70.8 1 46.1 1.2 92.2 2.1 138.3 0.6 28.1 1.8 56.1 2.9 84.2 0.2 5.4 0.7 10.7 0.9 16.1 0 1.2-0.6 2.8-1.5 3.5-3.7 2.6-7.3 5.6-11.4 7.2-5.3 2-7.6-0.1-7.8-5.7-0.2-4.7 0.1-9.3-0.1-14-0.7-17.8-1.5-35.5-2.1-53.3-0.2-4.3 0.3-8.7 0.1-13-0.9-24.9-1.9-49.8-2.9-74.7-1-24.9-2.2-49.8-3.1-74.7-0.8-22.6-1.4-45.2-1.9-67.8-0.8-30.4-1.1-60.9-2.2-91.3-0.9-26.4-2.8-52.8-3.9-79.2-0.9-24.3-1.2-48.6-1.9-72.8-0.1-3.3 0.8-5.1 4-6.4 5.5-2.2 10.8-5 17.9-8.3 0 10.4-0.2 19.7 0 29 0.5 24.2 1.2 48.6 2 73zm39-126c0.8-11.6-3.8-20.6-10.5-28.8-0.5 0.2-0.9 0.3-1.4 0.5 0.6 1.5 1.1 3.1 1.7 4.6 2.2 5.5 5.1 10.8 6.6 16.5 1.9 7.2-0.2 13.8-5.5 19.8-1.3-6.9-2.2-13.1-3.9-19.2-1.6-5.8-4-11.4-6.1-17.1-0.6 0.2-1.3 0.4-1.9 0.6 0.7 2.4 1.4 4.7 2 7.1 1.9 7.3 4 14.6 5.6 22 1.2 5.7-1.8 12-6.2 14.4l-7.5-28.5c-0.7 0.2-1.4 0.3-2.1 0.5 0.8 3.6 1.8 7.2 2.5 10.9 1 5.7 2.1 11.3 2.3 17 0.2 4.5-0.8 9.2-7.5 9.2-4-16.4-12.6-30.8-23.6-43.8-5.4 1.3-6.4 3.3-3.3 10 2.4 5 0.8 7.7-4.2 10.4-2.2-4.5-4.5-9-6.7-13.5-3.8-7.7-7.7-15.3-11.3-23.1-0.6-1.3-0.6-3.8 0.2-4.5 9.6-9.2 19.5-18.1 29.6-27.5 3.4 1.6 8.7 3.7 13.7 6.5 5.7 3.2 11.3 6.8 16.5 10.8 4 3.1 7.2 7.3 11 10.7 8 7.4 11.2 17.4 14.2 27.3 1 2.8-0.3 5.9-4.2 7.2zm11.4-27.4c-1.6 3.4-3.7 6.6-6.1 10.8-2.8-5.4-5-9.6-7.5-14.5 3.9-0.3 7.2-0.7 10.6-0.8 3.4-0.1 4.3 1.9 3 4.5z"/><path  d="m870.4 691.4c-0.6 0.1-1.1 0.1-1.7 0.2-0.1 1.5-0.4 3.1-0.4 4.6 0.9 27.4 12.9 49.3 33.1 67.1 3.3 2.9 7.7 4.5 11.6 6.6 0.3-0.6 0.6-1.3 0.9-1.9-3-2.2-6.3-4.2-9-6.7-16.5-15.2-26.6-34.1-31.6-55.8-1-4.8-1.9-9.5-2.9-14.1z"/><path  d="m879.1 492.6c-11.7 0.8-23.5 2.4-35.3 2.2-12.4-0.2-22.6-6.8-32-14.5 3.2 13.2 26.2 21.8 48.3 18.8 11.7-1.6 19-4.6 19-6.5z"/><path  d="m749.1 284.3c11.2-2.4 28.4-12.3 28.6-20.2-16.8 16.1-35.8 23.6-58.8 17.4 9.3 6.9 19.8 5.1 30.2 2.8z"/><path  d="m770.1 197.8c6.8 0.3 13.5 3.8 20.8 6.1-6.9-9.2-16.5-10.3-26.3-10.4-6.2 0-11.7 2.4-16.2 8.5 8.2-1.7 15-4.6 21.7-4.2z"/><path  d="m744.1 259.6c-9.7-0.7-10.2-6.8-9.6-13.4 0.1-1.5 0.4-2.9 0.7-4.4 0.4-2.8 0.8-5.6 1.3-9-1.4 0.6-2 0.7-2.2 1-3 6.9-4 14.1-2.1 21.3 1.3 5 6 6.9 11.9 4.5z"/><path  d="m761.5 227.6c0.9 2.6 3.3 4.9 5.6 6.6 0.4 0.3 3.2-2.5 6.2-5-3.3-3-5.5-5-7.7-6.9-1.5 1.8-4.5 4.1-4.1 5.3z"/><path  d="m719.9 229.1c-0.6-2.3-3.4-4.1-5.3-6.1-1.4 1.7-2.8 3.4-5 6.1 2.6 2.4 4.4 4 6.2 5.7 1.4-2 4.4-4.3 4.1-5.7z"/><path  d="m752.7 566.6c0 0.7 0.1 1.3 0.1 2 10.6-0.8 21.3-1.7 31.9-2.5-0.1-0.7-0.1-1.4-0.2-2.1-10.7-1.3-21.2 0.9-31.8 2.6z"/><path  d="m809.2 128.2c6.9 6.5 13.9 13 20.8 19.5 0.4-0.4 0.7-0.8 1.1-1.2-7.1-6.3-12.8-14.2-21-19.3-0.3 0.4-0.6 0.7-0.9 1z"/><path  d="m817.7 175.1c5 9.4 9.4 17.7 14.2 26.5 0.3-5-8.8-22.3-14.2-26.5z"/><path  d="m750.2 129.8c8.9 2.1 17.4 4.2 26.6 6.4-4.8-4.2-21.9-8.2-26.6-6.4z"/><path  d="m819.3 125.3c-7.7-4.7-15.4-9.3-23.2-14-0.3 0.5-0.6 1-0.8 1.6 7.7 4.7 15.4 9.3 23.1 14 0.3-0.6 0.6-1.1 0.9-1.6z"/><path  d="m779.2 117.9c-8.4-2.2-16.8-4.4-25.1-6.6-0.2 0.6-0.4 1.1-0.5 1.7q12.6 3.3 25.2 6.6c0-0.5 0.2-1.1 0.4-1.7z"/><path  d="m790.5 125.4c6.8 4.6 13.5 9.3 20.3 13.9 0.4-0.5 0.7-1 1.1-1.6q-10.2-6.9-20.4-13.8c-0.4 0.6-0.7 1-1 1.5z"/><path  d="m799.6 140.4c5.4 5.3 10.9 10.5 16.3 15.8 0.5-0.5 0.9-1.1 1.4-1.6-5.5-5.1-11.1-10.3-16.6-15.4-0.4 0.4-0.7 0.8-1.1 1.2z"/><path  d="m763.4 139.6c6.8 4 13.6 7.9 20.4 11.9 0.4-0.5 0.7-1.1 1.1-1.6-6.9-3.9-13.7-7.8-20.6-11.8z"/><path  d="m795.3 119.4c-7-3.3-13.3-8.1-21.6-8.5 6.9 3.3 13.9 6.6 20.8 9.8 0.3-0.4 0.6-0.9 0.8-1.3z"/><path  d="m833.4 152.1c4 6.4 8 12.8 12.1 19.1 0.5-0.3 0.9-0.6 1.4-0.9-4-6.4-7.9-12.8-11.9-19.2-0.6 0.4-1.1 0.7-1.6 1z"/><path  d="m836.2 188.9c1.9 7.1 3.9 14.2 5.8 21.2 0.6-0.2 1.2-0.3 1.8-0.5-2-7.1-4-14.2-6-21.2-0.5 0.2-1.1 0.4-1.6 0.5z"/><path  d="m818.1 147c4.5 5.1 9 10.2 13.5 15.4 0.5-0.4 0.9-0.8 1.4-1.2-4.5-5.1-9.1-10.2-13.6-15.3-0.5 0.3-0.9 0.7-1.3 1.1z"/><path  d="m768.6 125.4c6.7 2.7 13.4 5.5 20.1 8.2 0.2-0.6 0.5-1.1 0.7-1.7-6.7-2.7-13.4-5.5-20.1-8.2-0.3 0.5-0.5 1.1-0.7 1.7z"/><path  d="m827.1 245.5h1.2v-19.3c-0.4 0-0.8 0-1.2 0.1z"/><path  d="m789 153.7c4.4 5 8.8 10 13.2 15.1 0.5-0.4 1-0.9 1.5-1.3-4.5-5-8.9-9.9-13.4-14.9-0.5 0.3-0.9 0.7-1.3 1.1z"/><path  d="m782.4 141.4c6.1 3.8 12.2 7.5 18.3 11.3q0.5-0.7 0.9-1.5c-6-3.8-12.1-7.5-18.1-11.3-0.4 0.5-0.7 1-1.1 1.5z"/><path  d="m730.2 135c0-0.6-0.1-1.2-0.1-1.8-6.4 0.5-12.9 0.9-19.3 1.4 0 0.6 0.1 1.2 0.1 1.9 6.4-0.6 12.9-1.1 19.3-1.5z"/><path  d="m737 134.7c6.8 1.1 13.6 2.2 20.3 3.3q0.2-0.9 0.3-1.8c-6.8-1.1-13.6-2.1-20.4-3.2 0 0.6-0.1 1.2-0.2 1.7z"/><path  d="m819.1 196c2.1 7 4.2 13.9 6.3 20.9 0.5-0.2 1.1-0.3 1.6-0.5-2.1-6.9-4.2-13.8-6.2-20.8-0.5 0.2-1.1 0.3-1.7 0.4z"/><path  d="m840.4 147.7c-4.4-5.4-8.8-10.8-13.2-16.3-0.4 0.4-0.8 0.8-1.3 1.2 4.4 5.4 8.7 10.8 13.1 16.2 0.5-0.4 1-0.7 1.4-1.1z"/><path  d="m821.4 163.7c3.2 5.5 6.4 11 9.7 16.5 0.5-0.3 0.9-0.6 1.4-0.8-3.2-5.5-6.3-11.1-9.5-16.6-0.5 0.2-1.1 0.5-1.6 0.9z"/><path  d="m806.4 173.9c3.4 5.2 6.7 10.4 10.1 15.6 0.5-0.3 1-0.6 1.5-1-3.4-5.3-6.8-10.5-10.1-15.8-0.6 0.5-1 0.9-1.5 1.2z"/><path  d="m834.2 211.2c0.4 5.8 0.9 11.6 1.3 17.5 0.6 0 1.3-0.1 1.9-0.1-0.5-5.8-1.1-11.7-1.6-17.5-0.5 0.1-1.1 0.1-1.6 0.1z"/><path  d="m758.4 121.5c-5.7-1-11.3-1.9-17-2.9-0.1 0.6-0.2 1.1-0.3 1.7 5.7 1 11.4 2 17 3q0.2-0.9 0.3-1.8z"/><path  d="m835.3 170.4c3.1 5.2 6.2 10.5 9.4 15.7 0.5-0.3 1.1-0.6 1.6-0.9-3.2-5.3-6.4-10.6-9.5-15.9-0.6 0.3-1 0.7-1.5 1.1z"/><path  d="m817 170.1c-3.4-4.3-6.9-8.7-10.3-13-0.5 0.4-1 0.7-1.5 1.1 3.5 4.3 6.9 8.6 10.4 13 0.5-0.3 1-0.7 1.4-1.1z"/><path  d="m740.9 126.7c0-0.5-0.1-1-0.1-1.5-5.5 0.2-11 0.5-16.5 0.7 0 0.2 0.1 0.5 0.1 0.7 5.5 0.1 11 0.1 16.5 0.1z"/><path fill-rule="evenodd" class="a" d="m255.6 596.1h809.7v54.4h-809.7z"/></svg>