<svg version="1.2" xmlns="http://www.w3.org/2000/svg" viewBox="0 0 1920 1920" width="1920" height="1920"><style>.a{fill:#fff}.b{fill:#1dd3f5}.c{fill:#5ae288}</style><path class="a" d="m580.8 1847c-1.6-0.8-2.2-1.3-2.8-1.4-20.8-1.8-41.6-3.8-62.6-2.5-6.7 0.5-13.5 0.5-20.2 0.2-17.7-0.9-29.3-10.7-36.8-26-2.4-4.7-1.7-6.9 2.6-10.4 1.9-1.6 3.5-3 3.9-5.6 3.2-20.7 9.4-40.7 15.3-60.7 4.4-15.2 9.5-30.2 14.3-45.3 2.1-6.7 4.1-13.5 6.2-20.3 0.4-1.6 1.1-3.4 0.9-4.9-1.3-8.4 1.7-16 4-23.7 10.3-34.2 20.7-68.4 29.4-103 0.7-2.6 1.2-5.3 2-7.9 0.7-2.3 1-4.4 0-6.8-2.1-4.6-1.1-9.3 0.2-13.9 5-18.2 10-36.3 14.9-54.6 3.5-13 6.8-26 9.9-39.1q9.3-38.8 18.1-77.7c1.7-7.9 2.7-15.9 4.3-23.9 4.5-22.8 11-45.1 18.8-67.1 1-2.8 2.1-5.7 3.6-8.3 2.9-5.4 2.7-10.9 1.1-16.8-6.2-1.9-12.3-3.7-18.4-5.4-6.2-1.8-10.7-6.3-15.7-10-0.8-0.6-1.2-1.7-2-2.3-7.7-5.3-9.9-13.2-10.6-21.8-0.2-2.3 0-4.6 0.1-6.9 0.3-4.4 1.1-8.7 0.8-13-0.4-7.1-1.5-14.1-2.2-21.1-0.6-5.7-1.1-11.4-1.6-17.1-2.7-28.9-1.7-58-2.3-87-0.3-11-2-22.1-3-33.1-0.8-8.7-1.7-17.3-2.7-26.6-2.4-0.5-4.2 1.6-6.3 3-1.6 1.1-2.9 3.1-5.5 1.3 0.6-4.7 1.1-9.6 1.9-14.5 1.9-12.6 3.8-25.3 5.8-37.9 0.3-1.9 0.9-4 1.9-5.6 1.6-2.5 1.9-5 2.1-7.7 0.7-12.2 3.7-24 8.6-35.1 8.3-19 14.5-38.5 17.8-58.9 0.7-4.3 1.4-8.6 4.1-12.3 0.6-0.8 1-1.8 1.4-2.7 3.5-10.2 7.3-20.3 10.4-30.6 3.6-12.3 11.6-21.9 18.5-32.3 7.2-4.2 11.2-12.8 20.1-14.6 1-0.2 1.8-1 2.6-1.6 12.5-10 26.6-17.2 40.6-24.6 3.6-1.9 7.1-3.9 10.5-6 10.5-6.3 21.3-11.7 33.1-15 1.9-0.6 4.3-1.5 5.8-0.8 4.4 2.1 7.8 0 11.4-1.8 9.2-4.3 18.1-9.4 27.6-12.6 23.9-8 41.6-24.3 58.9-41.4 4.4-4.4 7-10 9.1-15.7 5.5-14.5 10.9-29 13.6-44.4 1.2-6.9 2.4-13.9 3.4-20.9 0.5-3.7 0.3-7.3-1.5-10.8-1-2.1-1.6-4.4-2.4-6.7-2.6-7.6-7.1-12.9-14.5-17.1-27-15.2-47.6-37.4-64.4-63.1-1.1-1.7-1.6-3.7-2.3-5.6-1.3-4.1-2.5-8.3-4-12.9-8.1 1.7-12.8-4-17.6-8.2-5.9-5.4-11-11.8-16.1-18.1-6.9-8.5-10.8-18.6-15.2-28.4-2-4.5-1.8-9.3-1.4-14 0.9-11.5 5.5-21.5 13.7-29.6 4-3.9 8.8-6.2 14.2-7.5 1.6-0.4 3.3-0.4 5-0.8 6.8-1.7 8.1-1.5 11.3 4.3 4.7 8.6 8.3 17.6 9.1 28.5 1.3-1 2.8-1.5 3-2.3 1.5-5.9 3-11.7 4.1-17.7 2.3-11.9 4.1-23.9 6.5-35.8 1.9-9.5 4.9-18.9 9.7-27.5 0.4-0.9 1.5-1.8 1.4-2.6-0.8-8.9 6.2-14.5 8.7-21.8 8.4-3.2 16.6-6.2 24.9-9.3 1.9 1.1 3.6 2.1 5.5 3.2 12.4-2.6 22.6-9.8 32.8-17 5.7-4.1 11.4-8.4 16.6-13.2 4.7-4.3 8.9-9.2 12.8-14.3 1.4-1.9 1.2-5 1.8-7.6 4.8-1.8 9.4-3.6 14.1-5.3 0.6-0.2 1.4-0.2 1.9 0 5.2 2.6 10.6 1.2 16 1.3 10.4 0.1 20.9 0 31.3 0 3.7-0.1 7.4-0.3 10.9-0.5 0.5-0.9 1-1.5 1-2.1-0.1-5.3 2-7.2 6-5 4.5 2.4 8.7 5.3 12.7 8.3 12.7 9.6 24.6 20 35.6 31.5 2.6 2.6 5.3 5 9 8.6v-10.3c4.2 3.4 4.6 7.7 5.7 11.4 4.7 16.5 7.7 33.4 8.9 50.6 0.6 8.8 3 17.1 6.5 25.1 2.5 0.5 5.5 0.2 7.4 1.5 2.3 1.7 4.3 4.5 5.2 7.2 1.6 5.1 2.8 10.5 3.1 15.8 0.5 8.7 0.1 17.5 0.2 26.3 0.1 5.5-1.3 10.7-3 15.8-1.5 4.3-3.2 8.2-7.7 10.2-2.4 1-3.4 3-3.9 5.5-0.5 2.3-1.1 4.6-1.7 6.8-1.6 6.6-3.2 13.1-5 19.6-1.8 6.8-5 13.1-5.5 20.4-0.2 3.2-2 6.4-3.4 9.5-7 15.3-15.2 30-24.2 44.3-9 14.3-21.2 24.2-35.7 32-1.5 0.8-2.9 1.7-4.4 2.4-3.3 1.8-4.8 4.4-4.8 8.2 0.1 8.1-0.2 16.2-0.2 24.3 0 13.9-0.4 27.7 0.2 41.5 0.5 11.3 4.2 21.7 12.5 30 4 4.1 7.8 8.5 12 12.3 2.2 2 4.9 3.5 7.6 4.8 16.7 8.1 34.1 14.6 49.9 24.5 19.2 12.1 40.6 19.7 60.5 30.4 1.1 0.6 2.9 1.5 3.7 1 5.8-2.9 10.6 0.2 15.2 2.6 10.2 5.4 19.8 11.7 28.6 19 17.4 14.3 31.8 31.2 42.7 50.8 1.8 3.2 3 6.8 4.4 10.2 0.7 1.8 1.2 3.8 2.1 5.6 4.9 9.3 9.5 18.7 12.6 28.7 0.5 1.6 1.2 3.4 2.3 4.5 9.6 9.2 13.1 21.8 18.7 33.2 3.3 6.6 5.5 13.8 7.8 20.8 0.7 2.4 1.1 5.6 0.1 7.8-1.4 3.3-1.6 6.5-1.3 9.9 0.7 6.7-1.5 12.6-5.2 18-1 1.4-1.9 2.7-3 4.3 0.5 1.7 1.3 3.2 1.5 4.9 1.1 7.4 6.1 10.9 12.7 12.6 6.8 1.8 13.7 3.1 21.1 4.7 2.5-9.7 4.8-18.8 7.3-27.8 2.9-10.4 6-20.7 9.1-31 2.2-7.8 7.7-13.3 13.2-18.8 0.8-0.8 2.9-1.4 3.6-1 1.2 0.8 2.4 2.5 2.5 3.9 0.4 4.3 0.3 8.6 0.4 13 4.8 0.3 7.4-5.1 13-2.1 1.1 3.1 3.3 7 6.8 10.2 3.4 3.1 4.5 7.4 2.4 12.1 1.6 1.2 2.8 2.3 4.2 3.2 2.8 1.9 4 4.5 3.6 7.8-0.5 4.5-0.5 8.6 2.6 12.4 2.2 2.9 1.7 6.6 0.3 9.7-1.6 3.4-3.5 6.6-5.5 9.6q-8.3 12.1-17 24c-3.9 5.3-3.8 10.5-0.3 15.9 1 1.7 1.7 3.8 3.1 5.2 4.4 4.4 6.5 10.2 9.3 15.5 5.5 10.1 6.8 20.9 6.6 32.2 3.4 2.2 7.2 1.7 10.7 0.8 3.5-0.9 5.6-3.8 7.2-6.8 3.7-7.1 7.4-14.3 11-21.6 1-1.8 1.6-3.7 2.4-5.6 1.8-3.9 2.9-8.5 5.6-11.7 2.7-3.2 6.9-5.1 10.6-7.5 1.1-0.7 2.4-1 3.7-1.4 1-0.2 2.4 0.2 3-0.3 6.8-6.8 17.4-4.8 24.6-10.8 1.2-1 3.8-0.4 6.1-0.6 3.6 8.5 4.4 16.8 0.8 25.4-4.9 12-10.7 23.3-20.1 32.5-1.2 1.1-2.3 2.4-3.5 3.6-7.7 7.8-14 16.3-16.4 27.3-0.9 3.9-2.5 7.7-3.9 11.4-2.6 6.8-7.3 11.3-14.3 13.3-2.9 0.8-5.8 1.8-8.5 2.6-4.6 6.6-5.6 15.9-14.6 18.1-15.9-5.7-26.8-18.4-41.1-26.8-2.4 5.2-2.8 10-2.3 15.1 0.5 4.9 0.3 10 0.3 15-0.1 4.4-0.7 8.8-0.6 13.1 0.3 17.2-1.5 34.4-2.5 51.5-0.2 3-1.1 6-1.8 8.9-1.7 6.5-3.6 13-5.3 19.5-0.4 1.6-1.2 3.7-0.5 4.8 3 5.1 0 9.3-1.7 13.5-6.1 14.3-14.7 27.3-23.5 40.1-2.6 3.8-5.2 7.8-8.1 11.5-1.4 1.8-3.1 3.6-5 4.8-6.7 3.9-13.4 7.9-20.3 11.3-15.2 7.5-31.1 13.1-47.7 16.4-3.6 0.7-7.2 1.2-11.1 1.8-1.2 4.3-0.3 8.2 0.7 12.1 2.7 10.4 5.9 20.8 7.6 31.4 4.6 27.6 12.7 54.4 18.5 81.7 4.5 21.1 8.6 42.2 12.8 63.4 0.8 4.2 1.5 8.6 1.7 13 0.1 2.2-0.6 4.6-1.5 6.7-1.3 2.6-1.2 5-0.8 7.8 2.6 16.6 4.6 33.3 7.3 49.9 2.5 15.3 5.6 30.5 8.3 45.7 3.2 17.6 6.3 35.1 9.2 52.7 0.5 3.2-0.3 6.7-0.6 10-0.2 2.6-1.1 5.3-0.7 7.9 1.1 9.7 2.6 19.3 4.1 29 0.1 1 0.4 2.1 0.9 2.8 5.8 8.2 7.8 17.9 10 27.3 5.4 23.6 10.2 47.4 15.2 71.1 0.6 2.7 1.2 5.3 1.7 7.9 1.5 7.2-0.4 13.3-5.3 18.7-8 8.9-18 14.2-29.4 16.8-5.9 1.4-12 2-18 2.1-16.9 0.3-33.8 0.3-50.6 0.4-11.9 0.1-23.5 2-35.1 4.2-2.6 0.5-5 2.1-7.6 2.8-1.8 0.5-4.4 1.3-5.8 0.5-4.1-2.5-7.8-0.7-11.6 0.4-19.5 5.5-38.3 13-57.2 20.3-18.5 7.1-37.2 13.8-56.9 17.3-24.9 4.5-49.6 4.5-74-3.2-18.2-5.9-34.4-15.4-48.5-28.5-5.4-5-10.8-10.2-16.6-14.7-4-3-8.7-5-13.1-7.4-0.9-0.5-2-0.5-2.9-0.9-11.7-6.2-24.4-6.7-37.3-7.2-26.4-1.1-51.4 4.6-75.9 13.9-12.3 4.7-24.8 8.9-37.3 12.7-12.3 3.7-25 5.8-37.9 5.6-20.5-0.4-39.9-5.5-58.4-14.5q-0.9-0.5-1.7-1c-5.3-3.1-5.9-4.6-4.1-10.7 0.3-1.2 0.6-2.4 1.1-4.2z"/><path class="b" d="m858.4 1011.5c1.6-11.9 0.4-23.3 7-34 2.3-2 5.5-4.5 8.4-7.2 6.1-5.5 13.1-9.5 20.7-12.5 4.8-1.9 9.7-2.7 14.8-2.4 7.1 0.4 14.2 0.5 21.3 1 3.7 0.2 7.3 0.8 11 1.3 3.2 0.5 5.5 2.1 7.4 4.8 2.5 3.6 5.5 6.8 7.9 10.5 2.8 4.1 6.5 6.6 11.1 8.4 9.1 3.5 18.2 7.1 27.1 11.1 4.9 2.2 9.3 5.4 14.7 8.6 16-2.2 30.7 4 45 13.1 11.5-3.4 23.7-4.7 35.7-2.5 9.1 1.7 18.9 1.7 27.3 8.3-0.2 1.6-0.1 3.6-0.7 5.4-1.4 4.9-3.1 9.6-0.4 14.7 0.6 1.3 0.4 3.5-0.1 4.9-6 14.8-7.9 30.7-11.9 46-0.6 2.3-1.6 4.4-2.2 6.1-3.3 2.4-6.4 1.5-9.3 0.9-13.2-2.9-26.3-6-39.5-8.8-14.9-3.2-29.9-5.4-45-1.3-13.8 3.7-27.8 5.4-42.1 5.4-4.4-0.1-4.4 0-8.5 3.4-2-0.9-2.4-5.4-6-2.8-11.1-0.7-22.2-1.4-33.2-1.9-5.1-0.2-10.2-0.4-15.2 0.3-24 3.3-48.1 6.9-72.1 10.3-9.8 1.3-19 4.7-28 8.4-2.5 1-4.9 2.4-7.5 3-13.6 3.3-26 9.4-38.1 16.2-3 3.9-3.1 9.7-8.2 12.3-4.4-2.4-7.4-6.1-10.1-9.9-10.5-14.8-24.7-24.8-41.3-31.5-5-2-9.7-4.5-15.5-3-2.8 0.7-5.3-2.7-4.1-5.3 2.6-5.8 4.9-11.9 10.4-16.5 6.3 0.6 12.8 0.5 19.4 2.3 8.1 2.4 16.6 2.2 23.9-3.1 2.5 1 4.8 2.5 7.4 2.9 7.9 1.5 15.9 3 24 3.8 3.5 0.3 7.3-0.8 10.8-1.8 3.6-1 6.9-2.6 10.4-3.9 3.5-1.3 6.9-2.1 10.7 0 1.8 0.9 4.6 0.8 6.8 0.4 8.7-1.4 17.1-3.9 25.2-7.5 2.4-1.1 4.5-2.9 6.8-4.3 4.5-3 8.7-6.4 13.4-9 8.6-4.6 13.6-12.3 17.4-20.4 2.9-6.4 1.3-14.1-1.9-20.6-0.8-1.5-3.1-2.3-5.1-3.6z"/><path class="b" d="m913.1 786.3c0.3-3 0.8-5.3 0.7-7.5-0.2-4.7-1-9.4-1.1-14.1 0-2.6 0.6-5.4 1.5-7.8 1.8-4.5 6.6-5.1 9.6-1.3 5.8 7.4 8.5 16 8.9 25.3 0.1 3 0 6 0 8.8 3 1.4 4.2 0.2 4.5-2.3 0.1-1.6-0.6-3.7 0.2-4.8 1.1-1.4 3.3-2 5-2.9 0.3-0.2 0.7-0.2 1-0.3 31.2-5.5 58.9-47.6 58.9-75.8 0-14.6 0.1-29.1-4.8-43-1.2-3.5-2.9-6.8-4.2-10.3-1.2-3.1-0.7-5.2 1.2-6.2 2.1-1.2 3.9-0.5 5.5 1 2.3 2.4 4.4 4.9 8 5.9 1.3 0.3 2.3 2.3 3 3.8 1.4 2.7 2.4 5.5 3.6 8.4 6.2 3.3 12.7 4.9 19.5 2.7 1 3.3-1 3-2 3.6-1 0.8-2.2 1.4-4 2.4 2.4 3.9 4.7 7.6 7.3 11.8-2.3 1.3-4.6 2.7-6.9 4 0.8 5.4 7.3 6.9 7 12.9-1.7 0.7-3.5 1.4-5.2 2.2-1.5 0.7-2.9 1.6-4.5 2.5 1.5 5.6 7.5 9.3 5.2 15.8q-4.1 4.5-8.9 9.5c0.9 3.1 1.9 6 2.5 8.9 0.7 3.2-0.4 5.1-3.3 6.4-3.7 1.7-8.1 1.5-11.3 5.6q0.4 7.5 0.9 16.8c-4.1 0.5-7.6 0.9-11.6 1.4-1.7 5.4-0.6 10.8-1.1 16.3h-10c-3.1 3.6-2.2 7.8-2.1 12.4-5-0.7-9.3-1.3-13.5-1.9-4.1 1.8-3.1 6.6-6.1 9.4-2 1.1-3.2-1.3-4.9-2-2.1-0.9-4.3-1.6-6.5-2.4-4.1 4.4-5 9.9-7.3 15.3-3.5-1.6-6.7-3-10.3-4.7-2.3 4-4.5 7.7-7.1 12-4-3.1-7.8-6.2-11.9-9.4-3.1 3.4-5.8 6.2-9 9.6-1.1-0.7-2.6-1.3-3.7-2.3-3-2.7-5.9-5.6-8.9-8.4-4 1.8-7.6 3.4-11.2 5-4.9-2.5-4.9-8.2-8.6-11.6-4 0.6-8.2 1.3-12.7 1.9-0.9-3.5-1.7-6.4-2.5-9.6-2.2 0.2-4.2 0.3-6.1 0.5-6.9 0.5-8.3-0.5-9.9-7-0.4-1.6-0.8-3.2-1.3-5.3h-11.5c-1.1-4.2-2-7.9-3.1-12.1h-11.3c-0.9-3.2-1.7-6-2.6-9.4h-9.9c0.5-4 0.8-7.3 1.2-10.3-0.7-0.9-0.9-1.7-1.4-1.9-6.9-2.4-9.4-7-7.3-14.1 0.2-0.9-0.2-2-0.3-3.3-2.6-1.1-5.4-2.2-8.6-3.6 0.5-3.6 1-7.2 1.5-11.5-1.8-1.3-3.9-2.7-6.5-4.6 0.6-3.3 1.2-6.8 1.9-10.7-2.5-1.9-5.2-3.8-8.3-6.1 2-3 3.8-5.6 5.8-8.7-2.5-1.7-4.7-3.1-7-4.5 2.2-3.1 4.3-5.9 6.4-8.8-3.2-4.3-8.5-3.2-12.1-6.6 5.3-3.9 9.6 1.3 14.9 1.2 2-1.8 4.5-4 7.1-6.2 0.3-3.1 0.4-6.1 0.9-9.1 0.2-1.2 0.6-2.7 1.4-3.6 0.8-0.9 2.4-1.6 3.5-1.4 1 0.1 2.1 1.3 2.8 2.3 0.4 0.8 0.3 2 0.3 3 0.4 8.1 0.6 16.2 1.4 24.2 1.4 15 5.5 29.1 14 41.8 5 7.5 9.1 15.7 16.9 21.1 1.1 0.7 1.8 2 2.5 3.2 5.9 9.9 15 16.4 24.8 21.7 8.9 4.8 18.2 9.1 27.7 12.4 7.2 2.4 15 2.9 23.4 4.3zm19.9 23.8c-1.6-6.1-3-11.2-9.2-12.5-0.3 0.7-0.8 1.3-0.9 1.9-0.3 3.3-5.4 5.3-3.4 8.8 1.8 3.1 5 5.3 7.5 7.8 0.2 0.2 0.6 0.2 1.3 0.5 1.5-2 3-4.1 4.7-6.5zm-79.3-27.6c-6.8 4.3-6.9 4.9-2 13 2.9-0.5 6-1.2 8.8-1.7 2.1-6.7-1.2-9.4-6.8-11.3zm124.9-4.8q-7.6 4.6-5.8 13.7c2.2 0.7 4.7 1.5 7.7 2.4 0.8-5.8 4.9-11.1-1.9-16.1zm-158.1-6.2c3.3-0.8 6.1-1.4 8.5-1.9 1.6-4.2 5-7.9-1.4-10.9-3.2 3.2-9 4.6-7.1 12.8zm211.4-73.1c-3.1-2.9-5.7-5.3-8.2-7.5-5.4 3.8-5.6 4.5-3.2 12.3 3.9-0.7 7.4-2.2 11.4-4.8zm-132.9 113c3.1 3.1 5.7 5.6 8.3 8.1 1.6-2.1 2.8-3.7 4-5.2 0.2-0.3 0.3-0.7 0.4-1-1.8-2.7-3.4-5.6-5.5-8-0.8-1-2.8-1-4.6-1.5-0.9 2.7-1.6 4.8-2.6 7.6zm-98.9-66.7c2.8 1.4 4.6 3.8 8.3 1.8 0.3-1.4 0.4-3.5 1.2-5.2 0.8-1.9 2.3-3.6 3.7-5.7-1.7-1.1-2.9-2.6-3.7-2.4-2.8 0.8-5.4 2.1-8 3.2-0.5 2.8-1 5.1-1.5 8.3zm149.9 52.1c-4.6-1.4-7.1 1.1-10 2.5-0.4 2.8-0.7 5.3-1.1 7.9 2 0.9 3.4 3.1 6.4 2.2 1.6-3.8 4.1-7.4 4.7-12.6zm56.3-31.2c-0.7-5.2 0.7-9.1-1.5-12.9-4 0.7-5.4 3.6-7.1 5.8-1.6 2-0.8 4.8 1.7 5.8 1.7 0.7 3.8 0.8 6.9 1.3zm-196-4.7c2.7-0.6 4.5-1 6.2-1.3 1.5-3.3 2.9-6.2 4.1-9.3 0.2-0.6-0.5-1.6-0.9-3.1-4.3 3.9-10.8 5.1-9.4 13.7zm-10.4-28.7c2.2-4.1 8.7-6.6 3.7-13.6-3.2 1.1-6.2 2.2-9.6 3.3-0.6 3-1.2 5.7-1.8 8.8 2.8 0.6 5 1 7.7 1.5zm84.8 82.7c3.3-2.1 5.5-3.5 7.6-4.9-1.2-3.7-2.1-6.8-3.2-10.2-4.1 0.4-6.2 2.7-8.1 6 1 2.6 2.2 5.3 3.7 9.1zm109.1-32.8c0.4-4.2 1-8.5 1-12.8 0-1.3-1.4-2.6-2.5-4.6-2.4 2.3-4.2 4.1-5.7 5.5 0.6 3.4 1 6 1.7 8.6 0.6 2.5 2.2 3.9 5.5 3.3zm24.7-106.9c-0.1 1.3-0.2 2.6-0.2 3.9q0 1.5 0.4 3c0.7 3.4 3.2 4.7 6.7 3.2 1.4-0.6 2.5-1.9 3.9-3.1-2.2-3.4-3.4-6.9-6.8-8.9-1.4 0.7-2.6 1.2-4 1.9zm-175.3 106.3c0.9-5.3 0.5-9.1-4.4-10.8q-5.4 3.4-3.7 11.3c0.9 0.1 1.9 0.4 2.8 0.3 1.6-0.1 3.3-0.5 5.3-0.8zm165-36.4c4.6-0.9 8.4-1.6 12.2-2.5 0.5-0.1 0.8-0.9 1.7-1.8-1.1-1.7-2.2-3.6-3.3-5.3-6.7-0.7-9.2 3.1-10.6 9.6zm21-26.8c-2.8-4-4.2-8.3-9.5-9.8-2.8 5.2-3.5 10.4-3.5 15.7 0 0.9 1.6 1.7 2.7 2.8 3.4-2.8 6.5-5.4 10.3-8.7zm-162.2 86.2c3-1.2 5.3-2.1 7.7-3-0.4-3.7 0.4-7.1-2.9-9.2q-6.1 4.2-4.8 12.2zm97.2-4.4c2.9-4.5 1.6-7.7-1.1-10.6-0.4-0.4-1.1-0.5-2.2-1-1.7 1.3-3.7 2.8-6.1 4.6 2.8 3.4 5.5 5.5 9.4 7zm-167.3-102.2c0.2-3.1-0.8-4.7-3.2-5-4.5-0.4-8.9-0.5-10.7 5.6 1.7 1.1 3.5 2.4 5.3 3.6 2.9-1.4 5.6-2.7 8.6-4.2zm-4.1 19.7c1.9-4.8 5.8-7.2 6.7-12.2-5.4 0.4-9.9 1-11.7 6.4-0.2 0.8-0.3 1.8-0.5 3.1 1.6 0.8 3 1.5 5.5 2.7zm-10.2-34.1c1.9 3.4 3.6 4.1 5.6 2.9 1.9-1.2 3.7-2.7 5.4-4.3 1.3-1.1 2-3.1 0.7-4.3-1-0.8-3.4-1.2-4.4-0.6-2.6 1.7-4.8 4.1-7.3 6.3zm18.6 31.7c-0.6-1.1-1-1.6-1.3-2.1-0.8 0.7-1.7 1.4-2.4 2.3-0.2 0.1 0.5 1 0.8 1.5q1.4-0.9 2.9-1.7zm6.3 15.2c-0.2-1-0.4-1.6-0.5-2.1-0.7 0.4-1.6 0.7-2.1 1.3-0.2 0.2 0.1 1 0.3 1.5q1.1-0.4 2.3-0.7z"/><path class="b" d="m1220.6 1228.5c-10.3-14.4-19.8-27.8-32.5-38.7-5.1-4.3-9.7-9.3-14.5-14-4-3.8-5-8.5-3.9-13.8 1.4-6.5 4.1-12.2 9-16.6 11.8-10.6 25.4-13.3 40.3-7.9 9.2 3.3 16.5 9.1 21.8 17.3 9.3 14.3 12 29.8 7.8 46.3-3 11.8-10.4 20.3-21.1 25.8-2 1-4.5 1.1-6.9 1.7z"/><path class="b" d="m1053.9 1243.6c-2.5 1.3-4.4-0.4-6.4-1.3-32.8-16.5-67.9-23.7-104.2-26.6-4.3-0.4-8.7-0.5-13.1-1.2-16.7-2.4-33.5-3.6-50.4-3.1-4.5 0.1-9.3 0.6-14.4-1.8 1.1-1.8 1.6-3.6 2.7-4.4 4.2-2.8 8.2-6 12.8-7.9 10.6-4.3 21.3-8.5 32.3-11.7 16.7-4.7 33.9-5.8 51.1-2.8 3.9 0.6 7.9 1.9 11.4 3.8 12.2 6.4 24.2 13.3 36.2 20 15.6 8.6 28.6 20.2 40.3 33.4 0.7 0.7 1.2 1.6 1.7 2.5 0.1 0.3 0 0.7 0 1.1z"/><path class="b" d="m1227.6 861.7c1.7 3.8 3.4 7.5 5.1 11.3 3 1.4 6 2.9 9.4 4.5-0.1 4.4 3.6 8.1 3.2 13-1.7 0-2.6 0.2-3-0.1-8.5-6.7-18.4-5.5-28-3.9-10.6 1.8-20.8 5.5-30.8 9.6-8.7 3.5-17.6 6.6-26.4 10-1.3 0.4-2.6 0.9-3.7 1.6-13.5 8.3-28 15-40.1 25.5-1.9 1.7-3.8 4-7.6 2.7-2.5-3.1-0.7-7.5-2.5-11.3 2.3-2 4.4-3.6 6.9-5.7-0.5-2.7-1-5.6-1.5-8.3-3.9-2.2-7.5-4-10.9-6.1-1-0.6-1.7-2.2-1.9-3.4-0.1-1.1 0.7-2.3 1.4-4.2 4 1.8 7.6 3.3 11.8 5.1 1.2-3.1 2.4-5.7 3.3-8.5 1-2.7 1.6-5.6 2.4-8.3 5-2.6 8 2.8 12.8 2.8 0.2-7.3 7.4-9.6 10.9-14.7 0.4-0.7 2.6-0.8 3.7-0.5 2.2 0.6 4.3 1.8 6.7 2.8 4.4-2.9 5.8-8.1 8.8-12 5.7-1.5 9.4 3.2 14 4.4 5.2-1.7 6.3-6.8 9-10.3 5.9-1.5 10.6 2.2 16.4 3.3 2.8-3.2 5.7-6.4 8.8-9.8 6.1-0.7 11.2 3.1 16.9 5.7 1.8-2.4 3.3-4.6 4.7-6.6 1.8 0.1 2.5 1 2.2 2.6-0.6 3-1.4 5.9-2 8.8zm-7.1 9c1.6-3.3 2.5-6.2-0.5-8.5-4.2-3.4-8.7-6.1-14.8-5.3-1.5 2.7-2.9 5.2-4.6 8.1 1.7 2.2 3.2 4.3 4.2 5.7h15.6zm-91.3 37.4c-1-9.3-4.4-14.9-13-16.3-2.3 15.3-3.4 13 4.9 21.6q3.9-2.6 8.1-5.3zm9.6-29.2c-5 4.6-5.7 6.6-5.6 13.6 0 4 1.4 7 4.3 9.1 3.8-1.1 6-2.6 6.2-6.3 0.2-4 0.9-8 1.4-12.5-2.1-1.3-4.2-2.6-6.3-3.9zm54.3-11.8c-4.6-2.3-8.2-3.6-12.4-2.8-1.5 2.8-3 5.3-4.6 8.1 1.3 2.1 2.5 4 3.9 6.3 4-1.4 7.6-2.7 11.3-4 0.6-2.6 1.1-4.8 1.8-7.6zm-34.8 21.6c3.1-1.7 5.4-3 7.6-4.2 0.8-3.6 1.5-6.7 2.3-10.3-3.2-1.8-6.1-3.3-9.4-5-1.8 4.2-3.5 7.8-5.1 11.5 1.4 2.5 2.7 4.8 4.5 8z"/><path class="b" d="m1148.5 1303.5c-2.4-2.3-2.2-4.6-1.5-6.9 3.8-13.5 10.8-24.5 23.5-32.3 1.5 1 3 2.3 4.7 3.1 5.9 2.5 11.8 2.6 17.6-0.4 2.8-1.5 3.3-3.9 1.3-6.5-0.4-0.5-1.2-0.7-1.6-1.2-3.1-4.5-1.9-8.1 3.5-8.7 4.6-0.5 9.4-0.6 14 0 12.9 1.7 24.4 7.3 35.4 14.1 0.3 0.2 0.5 0.4 0.8 0.6 7.3 5.5 7.5 9.9 0.2 14.9-4.5 3.1-9.2 5.7-14.1 7.9-19.3 8.5-39.4 13.7-60.4 15.3-3.7 0.3-7.4 0.1-11.1 0.1-3.9 0-7.9 0-12.3 0z"/><path class="b" d="m1301.6 1117.6c0 9.1 0 18.2-0.1 27.3 0 2.7-0.1 5.5-0.6 8.1-1.8 9.6-11.2 14.5-20 10.1-3.2-1.6-6.3-4.1-8.6-6.8-5.8-6.6-8.6-14.5-9.2-23.1-1.3-20.6 6.2-37.6 21.5-51.3 2.7-2.5 5.7-4.7 8.8-6.7 2.4-1.6 5.9-0.6 6.7 2.2 1 3.2 1.7 6.5 1.8 9.8 0.2 10.2 0.1 20.3 0.1 30.4h-0.4z"/><path class="b" d="m795.3 1031.6c-5-0.5-8.4-0.6-11.6-1.3-9.1-2-12.4-11.7-6.3-18.8 2.1-2.5 4.9-4.6 7.8-6.2 11.3-6.4 18.7-16.1 23.8-27.8 2.7-6.2 7-10.6 13.6-12.5 4.6-1.3 6.9-0.6 9.3 3.5 1.8 2.9 3.1 6 4.6 9 1.7 3.5 1.6 7.1 0.9 10.9-1.2 6.2-2.3 12.5-3.1 18.9-1.2 10.1-7.8 18.7-17.6 21-7.5 1.8-15.3 2.4-21.4 3.3zm10.4-21.9c1.1 0.1 1.5 0.1 1.8 0.1 4.7-0.8 8.8-6.4 7.9-11.2-0.1-0.9-1.9-2.2-2.8-2.1-4.4 0.6-8.4 4.3-8.8 8.4-0.1 1.7 1.3 3.4 1.9 4.8z"/><path class="b" d="m544.2 960.9c-2.4-9.6-2.9-19 5.1-27.3 2.3 3.8-1.5 7.4 0.8 10.9 1.8 2.7 2.9 5.9 4.4 9.2 2.7-1.5 4-3.1 3.3-5.8-0.6-2.2-1.7-4.4-2-6.7-0.4-2.3-0.1-4.6-0.1-6.7-1.9-1.9-3.5-3.6-4.9-5.2 1.4-3.9 3.9-1.4 6.6-1.6 2.5-4.6 5.2-9.5 8.3-15 2.2 1.1 4.4 2.2 7.2 3.5 2.6-3.8 5.2-7.6 6.2-12.2 2.3-1.1 3.8 0.5 5.3 1.7 2.1 1.7 3.9 3.6 6.1 5.5 2-1.3 3.9-2.4 7.3-4.6-2 3.8-3.2 6.1-4.4 8.3-0.1 0.7-0.3 1.4-0.1 2 0.9 5.6 1.9 11.3 2.8 16.9 0.6 3.9-0.5 7.2-2.8 9.9-0.8 0.3-1.2 0.5-1.4 0.5-9.2-2.5-14.7 2.7-19.2 9.4-2.1 3-3.6 6.4-5.3 9.7-4.7 9.1-10.3 17.5-18.3 23.9-2.1 1.7-4.4 3.1-6.8 4.3-1.8 0.9-4.3-0.6-4.8-2.5-0.2-0.7-0.5-1.4-0.4-2 0.9-9 1.4-18.1 7.1-26.1zm20.8-42.4c-0.6 6.4-6.5 12.2 0.5 17.9 5.5-1.8 4.5-6.7 5.1-10.7 0.4-3.5-1.5-5.6-5.6-7.2zm14.2-7c-0.9 3.2-2.1 6.3-2.7 9.5-0.2 1 0.6 2.8 1.6 3.4 0.9 0.6 2.7 0.5 3.8 0.1 2.6-1 5.1-5.6 4.5-8.3-0.6-2.7-2.3-4.8-7.2-4.7z"/><path class="b" d="m1114.5 1103.7c1.9-12.3 6.4-23.1 11.5-33.7 1.5 0.4 2 0.4 2.1 0.6 4.9 11.4 7.3 12.9 19.8 12.5 1.9 0 3.8 0.4 5.4 0.5 2.3 3.6-0.6 5.4-1.6 7.7-2 4.4-1.2 6.7 3.2 8.9 1.5 0.7 3.1 1.2 4.7 1.9 1.2 0.6 2.3 1.3 3.3 1.8 0.3 2.8-1.4 3.9-3.1 4.8-2.4 1.1-4.9 2.2-7.5 2.8-10.2 1.9-26.8-1.4-37.8-7.8z"/><path class="c" d="m798.1 219.7c1.5 0.5 3.1 1 4.6 1.4 3.8 1 6.6-0.8 8.9-3.3 0.8-0.9 1.1-2.5 1-3.8-0.2-3-0.9-6-1.1-9 0-0.8 0.6-2 1.3-2.4 0.7-0.3 2.3-0.1 2.7 0.4 3.8 4.6 5.4 10 4.8 16-0.1 1.6-0.9 3.3-2 4.5-3.9 4.4-9 7-14.7 8.2-2.7 0.6-5.3-1.2-6.4-3.8-0.8-1.9-0.6-3.1 0.9-8.2z"/><path class="c" d="m1110.3 1257c-9.8 3.5-16.7 1.3-22-4.3-2.8-2.9-3.8-7.6-5.4-11.5-0.2-0.7 0.6-2.2 1.2-2.6 1.1-0.6 2.6-1 3.7-0.7 1.2 0.2 2.3 1.3 3.2 2.2q4.4 4.2 8.7 8.5c1.4 1.4 2.6 3.1 4.1 4.4 1.4 1.2 3.2 2 6.5 4z"/><path class="c" d="m1138 1236.9c-1 2-1.8 3.4-2.4 4.5-1.1 0.1-2 0.4-2.4 0.1q-11.4-8.1-22.8-16.5c-0.7-0.5-1.5-1.5-1.6-2.4-0.2-0.8 0.2-1.9 0.7-2.7 0.2-0.4 1.2-0.8 1.7-0.6 1.3 0.3 2.5 0.9 3.6 1.6 7.4 5.1 14.9 10.3 23.2 16z"/><path class="c" d="m1148 1202c-2-0.7-4.1-1-5.5-2.1-5.4-4.4-10.7-9-17.2-11.8-0.6-0.2-1.1-0.8-1.5-1.3-1.2-1.3-2.1-2.9-0.5-4.3 0.8-0.7 2.6-1.1 3.5-0.7 2.7 1.3 5.1 3.1 7.8 4.5 2 1.1 4.1 2.5 6.3 2.8 2.4 0.4 4.6 0.5 5.8 2.9 1.5 3 3.1 5.9 1.3 10z"/><path  d="m455.4 1825.2c-1.6-5.4-0.4-9.6 0.4-13.8 4.2-24.3 10-48.2 16.2-72.1 15.4-59 31.4-117.9 46.5-177.1 13.7-54.3 26.5-108.8 39.7-163.2 11-45.3 22.3-90.4 36.5-134.8 2.9-9.3 6.3-18.4 9.7-28.2-1.8-0.9-3.5-1.9-5.3-2.6-6.5-2.7-13.2-5-19.6-8.1-9-4.5-16-11.4-19.6-21-1.9-4.9-3.1-10.3-3.6-15.6-4.1-44.4-8.7-88.7-6.7-133.4 0.8-18.2 0-36.5-0.1-54.7 0-2.2-0.4-4.5-0.6-6.7-4.3-0.3-5.6 2.9-7.8 4.7-2.4 1.9-5.6 0.6-6.2-2.4-0.2-0.7-0.5-1.4-0.3-2 2.7-11.6 1.4-23.5 3.1-35.2 4.6-31.8 10.4-63.1 21.9-93.4 5.4-14.1 8.3-29.1 12.6-43.7 5.2-17.1 10.6-34.1 16-51.1 3.8-11.6 11.1-20.8 20-28.8 12.6-11.4 26.5-20.9 41.4-29 25.5-13.9 51.9-25.7 79.6-34.7 8.4-2.7 16.8-5.2 25-8.1 14.2-4.9 27.3-11.5 38.3-22 4.2-3.9 9-7.1 13.4-10.8 6.6-5.5 11.6-12.1 15-20 7.8-18 15.7-35.9 19.6-55.3 1.2-6.2 2-12.6 2.5-19 0.3-3.3-0.5-6.7-0.9-10-0.3-3.3-1.9-5.7-5.1-6.9-0.7-0.2-1.2-0.6-1.8-0.9-36.4-17-62.2-44.6-80.2-80q-2.1-4-4.2-8c-0.1-0.3-0.4-0.5-0.6-0.7-27-8.9-38.8-29.9-44.1-55.7-1.6-7.6-1.6-15.4-0.5-23.2 2-14.8 6.5-23 18.8-33 0-3.9 0-8.2 0-12.6 0-27.6 4.6-54.4 15.3-79.9 13.3-31.6 33.4-57.7 61.5-77.5 2.1-1.5 4.8-2.4 5.6-6.1-2.6-0.9-5.2-0.4-7.8-0.5-2.3-0.1-4.7 0-7-0.2-2.7-0.2-5.3-0.6-7.4-0.9-8.7 6.3-16.8 12.3-25 18.2-0.4 0.3-1.2-0.1-2.5-0.1 1.8-4.7 5.6-7.5 8.7-10.8 3-3.2 6.1-6.2 9.6-9.7-1.8-1.3-3-2.4-4.4-3.2-23.1-13-26.7-37.6-20.7-56.9 2.2-7.2 5.8-13.7 10.5-19.5q2.9-3.4 5.8-6.9-14.5-12.9-16.1-19.5c2.8 1.3 5.2 2.1 7.4 3.3 4.2 2.3 8.2 4.8 12.2 7.3 3.2 2 6 2 9.4 0 5.3-2.9 10.7-5.6 16.3-7.9 9.7-3.8 19.8-4.9 29.8-2.2 5.7 1.5 8.9-0.3 12.1-4.5 9.8-12.9 21.7-24 34.7-33.7 1.5-1.1 3.2-1.9 6.2-3.6-1.3 5.3-4.4 7.5-6.7 10.1-2.4 2.8-5 5.4-7.6 8.1-2.4 2.4-4.8 4.7-7.1 7.2-2.4 2.8-5.4 5-7.2 9.5 3-0.4 5.2-0.6 7.4-1 15.5-3.5 31.1-5.6 47.1-3.2 16 2.4 29.8 8.4 39.6 21.9 0.4 0.5 1.1 0.8 1.7 1.3 2.5-0.4 2.4-2.7 3-4.4 2.2-6.4 4.2-12.9 6.4-19.2 0.6-1.9 1.7-3.5 3.6-7.3 0 3.5 0.2 4.8-0.1 5.9-2 9.6-4.1 19.1-6.4 28.6-1 4-1.8 7.8-0.7 12 2.4 9.3 2.3 18.6 0.6 28.1-0.2 0.9 0.2 1.9 0.4 3.3 6.2 2.1 13.3 1.4 19.2 5.3-4.6 2.4-5 2.6-10.2 2.7-3.7 0-7.4 0-11.7 0-0.8 1.8-1.7 3.8-2.5 5.6 0.9 0.9 1.3 1.7 1.8 1.6 6.3-0.3 12.7-0.5 19.1-1.1 4.2-0.4 8.4-1.2 13-0.1-3.5 4.8-4.6 5.4-15.8 7.7-5.8 1.2-11.8 2-17.6 2.9-0.6 2.2 1.1 2.4 2.2 2.8 24.2 8.8 43.5 24.3 59 44.6 18.3 23.8 31.8 50.1 38.4 79.5 3 12.9 3.7 26.1 3.7 39.3 0 3.6 0 7.3 0 11.3 1.7 0.6 2.9 1.2 4.1 1.4 4.5 0.4 7.5 3 9.3 6.8 1.8 3.7 3.3 7.5 4.3 11.4 4.1 16.5 4.9 33.3 3.8 50.2-0.2 3-0.9 6.1-1.5 9-2.6 11.4-5.7 14.3-17.7 16.4-1.6 9.1-3 18.5-4.7 27.7-3.3 17.3-8.5 34-16.2 49.9-4.8 9.8-10.5 18.9-17.4 27.3-10.7 13-23.7 23-39 29.8-2.8 1.3-5.5 2.4-8.6 3.7 0 2.6-0.1 4.9 0 7.2 1.3 25.6 3.9 51.1 8.1 76.5 1 6.2 3.9 10.7 8.8 14 4.2 2.8 8.6 5.3 13 7.8 10 5.6 20 11.3 30.2 16.6 8.7 4.4 17.6 8.4 26.6 12.3 26.4 11.2 53 21.8 79 34 21.5 10.1 39.1 24.9 55 42.2 2.9 3.2 5.4 7 7.3 10.9 16.3 33.7 31.4 68 44.1 103.2 3.3 9.2 5.8 18.7 8.3 28.1 0.9 3.2 1 6.7 1 10 0 5.3-1.4 10-5.8 13.4-1.1 0.8-1.7 2.1-2.5 3-0.7 7.4 3.7 13 5 19.8 7.8 0.7 15.1 1.3 23 2.1 3.3-5.7 4.6-12.3 6.3-18.7 2.9-10.7 5.5-21.6 9-32.1 2.1-6.4 5.2-12.5 8.6-18.3 1.8-3.1 4.6-5.9 7.5-8 4.7-3.4 10.3-1.5 12.3 4 1.1 3.2 1.5 6.5 2.2 9.7 0.8 0 1.4 0 2-0.1 7.6-1.5 8-1.2 9.6 5.8 0.4 1.6 0.6 3.9 1.7 4.5 6.5 4 7.6 9.9 6.6 17.1 6.6 2.8 9.2 7.8 7.4 14.7-0.6 2.5 0 4.4 1.5 6.5 3.4 4.5 2.8 9.5 0.9 14.5-2.6 6.6-6.7 12.4-11.2 18-5.3 6.5-10 13.5-12.9 22.1 1.4 2.3 3.1 4.8 4.7 7.3 3.2 5.2 6.6 10.2 9.5 15.5 3.9 7.3 5.9 15.1 5.7 23.4 0 2.3-0.2 4.8 0.3 7 0.3 1.5 1.4 3.5 2.5 3.7 1.3 0.3 3.4-0.8 4.2-2 6.1-8.1 10.8-17.1 14.9-26.4 1.7-4 3.3-8.1 5.3-12 1.6-3.4 3.8-6.3 7.8-7.3 1.5-0.4 2.8-1.7 4.2-2.7 1.3-1 2.6-3 3.9-2.9 6.8 0.4 11.2-5.7 17.6-6.4 3.1-0.3 5.9-2.9 8.8-4.5 0.6-0.3 0.9-1 1.4-1.5 7.8-6.4 17.2-3 18.5 7.2 0.6 4.2 0.2 8.8-0.7 13-3 14.4-8.9 27.6-18.5 38.9q-5.3 6.2-10.6 12.3c-5.2 5.9-9.1 12.5-11 20.2-0.9 3.3-2.1 6.4-3.2 9.6-3.7 10.2-10.7 17-21.1 20.1-1.6 0.5-3.3 0.9-5.4 1.4-0.8 2-1.5 4.2-2.6 6.2-1.8 3.2-3.5 6.6-5.9 9.3-2.8 3.3-6.4 4.3-10.9 2.4-8.2-3.2-16-7-23.1-12.3-2.4-1.8-4.9-3.3-8.3-5.6-0.2 3.7-0.5 6.3-0.5 8.8-0.4 30.5-2.8 60.7-7.8 90.7-2.9 17.8-8.5 34.7-16.6 50.8-17.2 33.6-44.1 54.8-80.8 63.6-8.4 2-17 3.4-26 5.2 1.4 4.7 2.9 9.1 3.9 13.6 4.1 18.8 8.5 37.6 12 56.5 9.5 51.7 18.8 103.5 27.8 155.4 6.7 39.2 12.9 78.5 19.1 117.8 5.9 36.7 11.7 73.3 17.2 110 3.2 21.7 5.5 43.5 8.2 65.3 0.2 1.3-0.1 2.6-0.2 3.8-2.6 0-3-1.7-3.3-3.3-3.4-15.5-7.3-30.9-10.2-46.5-8.4-45.1-16.6-90.2-24.5-135.4-10.8-61.8-21.1-123.7-31.8-185.5-8-46.3-16.2-92.4-24.2-138.6-0.7-4-1.3-7.9-2-12.4-12.8-1.3-25.4-1.6-36.9-6.8-11.1-5.1-22-10.4-30.9-18.7-16.5 0.2-27.8-7.7-35.1-21.7-2.9-5.4-6.6-8.9-12.4-10.9-5.4-1.8-10.8-4-15.8-6.8-17.3-9.7-36.2-14.7-55.6-17.7-23.7-3.7-47.4-7-71.2-9.4-15.8-1.6-31.7-1.4-47.5-1.7-3-0.1-6.2 0.5-8.8 1.8-15.1 7.9-31.3 12.5-47.8 16.2-12.5 2.7-25 5.4-37.7 7.2-10 1.5-20.1 1.9-30.2 2.5-10.5 0.6-20.9 0.8-31.4 1.3-0.9 0-1.9 0.4-3.6 0.9 1.6 6.9 3.1 13.7 4.7 20.5 0.3 1.2 1.2 2.4 2.2 3.2 7.7 6.8 11.1 16 13.9 25.4 1.5 4.8 2.6 9.7 3.9 14.9 2.8 0.6 5.4 1.3 8 1.7 15 2.6 23.4 12.3 28.5 25.8 1.4 3.6-1.1 5.7-3.1 8.4 0.8 3 1.8 6.2 2.5 9.5 0.9 4.2 0.5 8.2-3.4 10.8-2.2 1.4-3.3 3.1-4 5.5-0.6 1.9-1.6 3.8-2.8 5.3-1.7 2.2-4 4-7 2.8-2.9-1.1-5 0-7.5 1.2-2.7 1.3-5.9 2.8-8.6 2.4-6.3-1-12.6-1-18.8-2.4-6.3-1.5-11.8-4.9-16.1-10-1.3-1.5-2.7-3-3.7-4.7-10.7-17.7-24.9-32.8-37.9-48.7-8-9.8-14.1-20.5-19-32.1-1.2-2.8-2.1-5.7-3.5-8.4-3-6.1-6.5-11.9-9.1-18.1-2.6-6.2-4.3-12.7-6.5-19.6-2-0.4-4.1-0.8-6.3-1.2-0.7 1.4-1.5 2.2-1.7 3.1-6.5 25.8-13.3 51.6-19.4 77.5q-16.7 71.4-32.8 143c-20.9 93.2-44.6 185.6-71.5 277.3-6.9 23.6-14.2 47.1-21.4 70.6-1.4 4.6-3.2 8.9-4.9 13.3-0.4 1.1-1.5 1.9-2.9 3.5zm738.9-852.9c-4.4 0.2-8.7 0.5-13.1 0.7-11.9 0.7-23.6-1-34.7-5.4-5.1-2-9.7-4.7-12.7-9.6-3.3-5.4-1.8-10.1 4.4-11.7 4.9-1.2 10-1.9 15-2.3 6.4-0.5 12.8-0.4 19.2-0.5 6-0.1 7.8-0.5 13.9-3.4-0.9-0.7-1.6-1.6-2.4-1.8-16.4-3.5-32.8-4.4-49 0.8-11.6 3.7-23.1 7.4-34.5 11.5-18.1 6.5-36 13.3-55.1 20.4 3.4 1.7 5.8 2.7 8 4.1 1.9 1.3 3.6 3 5.3 4.6 0.3 0.3 0.3 1.5 0 1.9-0.5 0.7-1.5 1.7-2.2 1.6-1.6-0.1-3.2-0.7-4.8-1.2-5.1-1.7-10-4-15.2-5.3-11.5-2.9-22.9-5.7-34.5-7.9-13.9-2.6-27.9-4.5-41.9-6.6-1.5-0.2-3.4-0.9-4.7 1.9 3.6 4.4 7.2 9.2 11.1 13.7 1 1.2 2.7 2.1 4.2 2.5 14.4 3.9 28.1 9.5 40 17.6 19-4.2 33.3 4.4 46.8 15 3.2-0.5 6.2-1.1 9.2-1.4 6.4-0.7 12.8-1.8 19.1-1.6 5.1 0.1 9.3-1 13.1-4.1 2.6-2.1 5.5-4.1 7.6-6.6 4.5-5.7 10.4-9.6 16-13.9 7.2-5.3 15.3-9.4 24.4-8.2 11.6 1.6 22.9 0 34.3-1.1 4.5-0.4 9.4-0.2 13.1-3.9h4.4c-2.3-1.9-3.4-1.5-4.3 0.2zm-331.6 2c6.3-10 14.5-14.7 23.1-18.6 12.1-5.5 24.6-7 37.6-4.8 2.7 0.4 5.4 0.5 8 1.3 11.3 3.6 23 4.1 34.8 4.9 19.9 1.4 39.4 5.3 58.8 9.9 6.3 1.5 11.8 0.9 17.6-1.5 17.8-7.2 35.8-14 53.7-21.1 1.8-0.7 3.5-1.5 5.5-2.4 0-6.9-2-12.9-4-19-6.8-20.6-16.3-39.9-27.5-58.4-1.2-2.1-2.7-4-3.5-6.2-0.3-1 0.2-2.6 0.9-3.6 1.1-1.5 2.9-1.8 4.5-0.8 1.4 0.9 2.9 1.9 3.9 3.1 1.8 2.4 3.5 5 5 7.6 10.4 19 19.3 38.6 25 59.6 0.6 2.4 0.7 5.2 2.5 7.1 0.8 0 1.2 0.1 1.4-0.1q3.5-2.1 6.9-4.2c25.4-16.2 52.1-29.7 80.8-39.1 18.7-6.1 25.4-6.7 43.1-4.4-0.3-1.8-0.4-3.4-0.9-4.8-3.4-9.2-6.5-18.5-10.3-27.5-11.2-26.4-22.6-52.7-34.1-78.9-4.7-10.7-11.3-20-20.1-27.7-8.2-7-16.4-14-24.9-20.7-4.2-3.4-8.7-6.4-13.5-8.8-18.5-9-36.8-18.5-55.9-26.1-26.9-10.8-53.8-21.7-77.7-38.7-1-0.8-2.3-1.2-3.6-1.8-1.4 3.2 0.3 5.6 1.1 8 4.3 14 6.4 28.3 5.7 42.9-2.1 38.9-21.4 65.8-57.3 80.8q-4.1 1.7-8.3 3.4c-0.5 2.4-0.8 4.4-1.4 6.3-1.1 3.2-2 6.5-3.7 9.3-5.1 8-13.7 9.1-20.7 2.6-2.4-2.2-4.1-5.2-5.9-8.1-1.3-2.2-2.2-4.8-3.3-7.2-2-0.3-3.7-0.5-5.3-0.8-18.4-3-35.1-10-49.4-21.8-31.8-26.2-49.9-59.7-52.8-101-0.1-1.6 0.6-3.4-1.9-4.4-0.9 0.6-2 1.3-3.1 2.1-10 8.2-21.3 14.1-33.5 18.5-7.6 2.8-15.2 5.4-22.9 7.9-27.7 8.9-54.2 20.5-80 33.9-15 7.9-29.1 17.1-41.9 28.2-8.3 7.2-15 15.5-18.6 26-5.9 17.3-12.1 34.4-16.1 52.2-4 17.8-9.5 35.1-16.5 52-4.1 9.9-7.6 20.3-9.9 30.7-4.4 20.8-7.8 41.8-11.5 62.7-0.5 2.8-0.1 5.8-0.1 9.4 1.7-0.6 3-0.8 4-1.5 5.4-3.2 9.1-8 12.2-13.3 3.1-5.2 6.1-10.5 9.5-15.5 4.9-7.4 11.5-12.2 20.9-12.3 1.2 0 2.5-0.6 4.1-1 0.4-4.2 0.7-8.2 1-12.2 2.7-30 16.5-53.9 40.9-71.3 21.1-15.1 45.2-21.2 70.8-20 36 1.5 66.4 16.3 91.6 41.7 2.6 2.7 5.2 5.5 7.1 8.6 3.7 5.8 8.4 10.5 13.8 14.6 6.6 4.9 12 10.8 17 17.3 11.7 15.2 19.5 32.2 25.1 50.5 0.4 1.5 1 3 2.2 6.5zm-90.8-605.2c-9.2 0-11.8-1.2-14.4-7.5-1-2.3-1-5.2-0.8-7.8 0.3-5.9-0.4-11.5-3.9-16.4-3.7-5.2-9.6-8-14.9-6.1-9.2 3.2-17.2 8.4-20.5 18.1-3.1 9.3-4.4 19.2-2.5 29 3.2 15.9 10.1 30 21.6 41.6 5 5.1 10.7 9.5 17.7 11.4 4.5 1.2 6.7 3.9 8.2 8 4.9 13 12.3 24.7 21 35.6 12.9 16.4 28.6 29.5 47 39.3 14.4 7.6 29.8 12.6 45.3 17.4 4.4 1.4 9.2 2.3 13.9 2.4 26.1 0.9 51.8-0.5 76.9-9 12.9-4.4 23.7-11.1 33-20.7 6.4-6.6 11.6-13.9 16.3-21.8 14.3-24.1 22-50.7 29.7-77.2 0.5-2 0.8-4 1-6 1.6-16.8 2.3-33.7 0.5-50.5-0.6-5.4-1.2-10.8-1.1-16.2 0.3-19.3-2.6-38.3-5.9-57.3-1.9-11.3-4.4-22.5-8.3-33.3-1.1-3.2-2.4-6.3-5.5-8.2-12.4-8-22.5-18.3-31.5-29.8-0.6-0.7-1.4-1.4-2.1-2.1-5.2-5.2-11.3-8.4-18.5-9.8-6.7-1.3-13.4-1.4-20.2-1-9.7 0.5-19.5 1-29.3 1.8-5 0.3-10 1-15 1.6-8.9 1.1-16 5.1-20.8 12.8-0.9 1.5-2 2.8-3 4.2-5.7 8-12.9 14.6-21.5 19.6-5.2 3.1-10.5 6-15.9 8.9-7.8 4.2-16 6.7-25 7.4-12.7 1-23.1 6.9-31.1 16.8-7.9 9.7-12.6 20.8-13.1 33.3-0.3 5.4-0.2 10.8-0.6 16.2-0.8 12.1-1.7 24.2-2.8 36.3-0.4 4.1-0.2 7.9 0.8 12 4.2 16.4 5.5 33.2 5 50.2 0 1.3 0.6 3.3-2 4.2-4-15.5-3.6-31.5-7.7-47.3zm-54.1 819.3c-3.1 7.3-5.3 14.2-8.7 20.2-3.7 6.4-8.6 12-13.2 18.4 1.5 3.1 3.2 6.3 5.1 9.9 6.4 0 12.4 0 18.4 0q4.6 0.1 9.1 0c8.1-0.1 16.2 0.3 24.2-0.5 22.6-2.1 44.6-7.4 66.5-13 14.8-3.7 28.6-9.8 41.5-18 28.9-18.5 60.5-27.6 94.9-27.2 12.6 0.2 23.9 3 34.5 9.7 16.8 10.6 33.3 21.8 48.4 34.8 8.7 7.4 18.1 14.2 24.8 23.7q5 7 9.6 14.2c4.8 7.4 11.4 12.4 19.7 15.1 1.7 0.5 3.6 0.1 6.3 0.1-1.4-2.3-2.2-3.8-3-5.2-6.8-10.9-13.7-21.6-18.6-33.6-0.8-1.7-2.4-3.1-3.8-4.5-0.9-1-2-1.8-0.5-3.8 3.1-0.6 6.3 0.6 9.1 2.4 4.1 2.4 8.2 4.8 11.8 7.8 11 9.4 21.8 19.1 32.7 28.7 3 2.7 5.9 5.5 9 8.1 3 2.6 6.6 3 10.5 2.3 2.7-0.5 4.3-2.6 3.2-5.1-1.3-3-2.6-6.3-4.6-8.9-4.5-5.9-8.9-12-14.3-17-9.5-9.1-19.7-17.4-29.6-26.1-2.3-2-4.7-3.8-6.8-6-1.4-1.4-2.5-3.2-0.4-5.6 1.3 0 3.1-0.4 4.5 0.1 4.5 1.6 8.8 3.4 13 5.6 20.5 10.5 39.3 23.7 56.7 38.7 3 2.7 6.2 5.2 9.1 8 3.1 3 6.6 2.9 10.4 1.9 2.3-0.7 3.5-2.5 3.1-4.6-0.7-3.2-1.5-6.7-3.3-9.3-4.2-6.1-8.8-12-13.8-17.4-16.9-18.6-37.7-32.7-56.6-48.9-2.2-1.9-4.9-3.2-7.1-4.7 0.8-4.1 3.5-4.7 6.2-4.7 5.5-0.1 10.6 1.6 15.5 4.2 8.4 4.3 16 9.9 23.3 15.9 13.6 11.1 27.1 22.3 40.7 33.4 4.2 3.4 8.6 6.5 13 9.6 1.6 1.1 3.5 1.7 5.4 2.6 2.4-3.8 1.1-7-0.2-10-4.6-10.6-9.9-20.8-18.2-29-25.8-25.9-18.6-22-52.8-41.9-4.6-2.7-9.4-5.2-14-8.1-4-2.5-7.8-5.2-11.6-8-1.6-1.2-3-2.7-4.3-4.3-1.5-1.7-1.1-2.9 1.7-5.4 4.2 2.1 8.2 4.7 12.6 6.2 10.4 3.6 21.2 4.2 31.9 2.5 7.4-1.2 14.5-3.5 20.7-7.8 2.2-1.5 5-3 4.5-6.1-0.6-3.5-3.9-3.3-6.5-3.5-19.4-1.2-37.7-6.6-55.9-13.2-11.1-3.9-22.4-7.3-33.8-10.4-11-3-22.3-5.2-33.3-8.1-19.4-5.1-38.7-5.5-58.1-0.7-16.4 4-33.1 6.3-50 6.2-6.4-0.1-12.9 0.1-19.3-0.1-18.9-0.4-37.7 0.7-56.6 2.4-11.7 1.1-23.4 2.7-35 4.7-23.1 4-44.9 11.8-66.4 21.1-5.7 2.4-9 5.7-11.2 11.6-8 21.1-20.9 38.4-40.1 50.6zm92.4-139.8c1.9 0 2.9-0.1 3.9 0 16.8 1.4 29.6-7.3 34.5-23.2 1-3.3 2-6.5 2.8-9.8 6-24 5.4-47.5-5.8-70-7.2-14.6-16-28.2-27.6-39.8-8.6-8.5-17.2-17.1-26-25.4-17-16-37.1-26.7-59.8-32.5-32.5-8.4-62.9-4.3-90.6 15.2-33.1 23.2-45.8 57.1-37 96.6 5.5 24.4 18.6 44.6 36.5 61.8 1.7 1.6 3.6 3 5.5 4.4q9.9 7.1 19.9 14c1.9 1.3 3.9 2.4 5.8 3.5 2.5-1.8 4.6-3.5 6.9-4.8 1.2-0.7 2.8-2 4 0.2-0.5 0.6-0.8 1.3-1.2 1.7-6.6 6.3-7.7 10.6-3 17.6 8.9 13.1 21.3 20.3 37.6 19.6 6.2-0.3 10.9-3.3 13.9-8.7 0.9-1.5 1.5-3 2.4-4.5 0.3-0.4 1.1-0.5 1.6-0.8q1.9 2.5 1.8 7.9c1 0.7 2 1.7 3.1 2.4 1.1 0.6 2.4 1.2 3.7 1.5 12.1 3.5 24.1 3.7 35.5-2.2 6.8-3.5 13.4-7.6 19.9-11.9 4.8-3.2 8.8-7.3 11.8-12.8zm289.2 47.5c4.8-15.6 9.1-29.7 13.3-43.9 0.8-2.6 1.4-5.2 1.8-7.9 0.3-1.6 0.8-3.5 0.3-4.9-2.1-6.1-1.4-11.9 1.5-17.4-3.9-5.4-9.7-5.2-14.8-6.2-15.1-3-30.1-3.4-44.5 2.9-6.6-4.3-12.7-9-19.5-12.7-6.8-3.7-14.1-6.3-22.4-4.9 0 1.1 0.2 2.1 0.1 3.1-0.1 0.8-0.4 1.7-1 4.2-16.1-12.3-33.4-19.8-52.4-23.7-19.7-4-38.7-1.7-57.7 4.4 0.9-1.6 1.8-3.2 3.2-3.7 4.3-1.9 8.6-3.7 13.2-5 9.1-2.5 18.6-2.9 28.1-2.8 1.8 0 4 0.9 5.9-1.6-2.7-5.4-5.8-10.8-10.2-16.3-11.2-0.5-22.6-1.5-34.1-1.4-13.9 0.2-26.1 5.8-37.1 14.3-4.9 3.8-8.7 8.7-9.8 14.8-1.3 7.6-1.6 15.4-2.4 23 7.1 4.9 8 6.2 7.6 13.9-0.1 3.7-0.9 7.4-2 10.9-1.7 5.6-5.2 10.2-9.3 14.3-11.4 11.4-24.5 20-39.9 24.9-5.7 1.8-12 3.4-17.8 3-8.7-0.6-16.6 1.3-24.7 3.9-12.2 4-24.5 3.7-36.6-1.2-2.5-1-5.1-1.7-7.7-2.5-6 3.6-12.2 6.5-19.2 5.3-6.8-1.1-13.5-3.4-20.8-5.4-4 4.6-8.3 9.2-10.2 15.7 4.7 0.9 9.1 1.5 13.2 2.8 4.2 1.2 8.4 2.7 12.2 4.7 16.5 8.5 30.5 19.9 40.6 35.7 0.8 1.3 2 2.4 3.4 4.1 1.1-2.3 1.9-3.7 2.5-5.2 3.5-10.2 3.6-20.5 1.6-31-0.6-2.9-0.7-5.9-0.9-8.9 0-0.5 0.8-1.3 1.2-1.3 1-0.2 2.2-0.2 2.8 0.4 0.9 0.8 1.6 2.1 2 3.4 2.3 6.8 2.8 13.8 2.8 20.9 0 1.9-1.1 4 0.9 5.5 0.5 0 0.8 0.1 1.1 0 1.2-0.5 2.5-1 3.6-1.7 17.5-9.7 36.2-16.4 55.6-21.1 24-5.9 48.5-8.3 73.1-9.7 15.1-0.8 30.3-0.7 45.5-0.8 22.3-0.3 44.4-2.5 66.4-6.5 14.1-2.5 28.1-2.7 42.1 0.6 7.9 1.8 15.8 3.7 23.7 5.5 8.5 1.9 17 3.6 25.7 5.5zm104.8-25.1c-2.6 3.1-5.9 3.9-9.1 4.7-11.4 2.8-22.3 7.6-34.2 8.7-4.4 0.4-6.8 3.6-6.7 7.5 0 3.6 2.8 6.2 7.7 6.1 6.1 0 12.2-0.3 18.2-1.2 15.6-2.4 31.2-5.2 46.9-7.7 11.9-2 24-3.6 35.9-5.6 15.9-2.7 30.4-9 43.8-17.8 9.7-6.3 17.8-14.4 24.2-24.1 1.3-1.9 2.7-4.1 2.9-6.3 0.9-11.8 1-23.8-4.8-34.6-10.4-19.2-23.6-36.1-41.1-49.5-8.5-6.4-18-10.3-28.6-11.8-10.3-1.5-20.3-0.1-30.2 1.9-20.2 4-40.6 6.6-61.2 7.1-7.8 0.2-15.5 1.1-23.2 1.9-2.2 0.2-4.4 1.2-7 2 0.7 1.8 0.9 3.3 1.8 4.1 2.6 2.1 5.2 4.4 8.2 5.6 12.4 5.2 25.3 7.4 38.6 5.7 4.4-0.6 8.6-2.1 12.9-2.9 1.9-0.4 4-0.6 5.9-0.4 2.4 0.2 4 3.6 2.6 5.4-1.1 1.6-2.5 3.3-4.2 4.2-3.9 1.8-8 3.7-12.2 4.7-13.9 3.1-27.9 5-42.2 4.1-9-0.7-16.5 2.5-23.3 7.9-2.6 2.1-4.9 4.7-6.5 7.6-6.1 10.5-0.1 20.9 11.8 21.1q3.1 0 6.1-0.4c9-1.3 18-2.8 26.5-6.2 8.8-3.6 18.1-5.1 27.5-6.4 2.1-0.3 4.4 0.3 8 0.5-1.8 1.9-2.5 3.2-3.4 3.6-3.2 1.1-6.5 1.9-9.7 2.7-6.6 1.8-13.2 3.1-19.6 5.2-14.2 4.6-28.5 8.1-43.6 7-0.9-0.1-1.9 0.5-2.7 0.8-1.7 10.9 2.6 18.1 12.3 21.1 4.6 1.3 9.3 1.7 14 0.7 11.9-2.6 23.7-5.1 35.6-7.7 3.3-0.7 6.5-2 10-0.3-0.2 0.9-0.2 2.3-0.8 2.7-1.7 1.1-3.5 2-5.4 2.5-10.8 2.8-21.5 5.6-32.4 7.9-7.3 1.5-14.7 2.5-22.1 0.6-0.9-0.2-1.9 0.2-3.4 0.4 0.1 7.1 2.9 13.1 6 19 2.5 4.6 6.3 6.7 11.6 6.4 10.8-0.5 21.5-1.3 31.9-4.7 6.4-2.1 12.9-3.8 19.5-5.5 2.1-0.5 4.6-1.5 7.2 1.7zm-32.1 146.3q-0.8 0.8-1.7 1.5c2.2 2.4 4.6 4.7 6.6 7.2 5.4 6.4 11.1 12.7 15.9 19.6 2.5 3.5 3.9 7.9 5 12 1 4.2-0.3 8.1-3.8 10.9-5.9 4.8-14.3 4.7-20.4-0.2-2.6-2.2-5-4.6-7.4-6.9-12.4-11.6-25.7-21.8-40.2-30.6-1.2-0.7-2.3-2.2-4.2-0.8 4.1 3.8 8.4 7.1 12 11 5.8 6.2 11.5 12.5 16.5 19.2 2.8 3.6 4.7 8.2 6.3 12.5 2 5.4 0.1 9.1-5 11.6-6.4 3.2-12.6 2.6-18.2-1.6-3.7-2.8-7.1-6.1-10.4-9.6-9-9.6-18.9-18.2-29.2-26.4-1.7-1.4-3.6-2.5-7.5-5 1.7 3.6 2.2 5.1 3.1 6.4 4.5 7.1 9 14.2 13.7 21.2 2 3.2 4 6.2 2.7 10.3 11.1 6.7 22.3 12.2 34.2 16.1 5 1.6 10.5 2.4 15.8 2.8 16.7 1.3 33-1.2 49-5.6 32.2-8.8 55.5-28.3 70.3-58.1 8.4-17.1 13.8-35.2 16.1-54.1q3.5-28.6 5.5-57.4c0.8-11.1 0.4-22.2 0.2-33.4-0.1-3.5-0.3-7.2-2.3-10.1-1.3 0.2-2.1 0.1-2.6 0.4-11.8 5.3-24.2 8.4-36.9 10.3-10.4 1.5-20.7 3.2-31 5-14.9 2.6-29.8 5.5-44.8 7.8-6 1-12.1 1.4-18.2 1.3-9.1-0.3-12.7-4.6-12-13.7 0.2-1.5 0.4-3.1 0.6-4.6q-14.4-1.6-23.6-12.6c-3.6 9.2-6.7 18.2-9.4 27.1 1 0.9 1.4 1.6 2 1.8 18.3 7.2 36.8 13.3 56.4 15.4 3.3 0.4 6.8 1 9.8 2.2 5.5 2.3 7.2 7.9 3.5 12.5-2.5 3-5.7 5.7-9.2 7.7-9.5 5.4-20 7.9-30.9 8.2-2.9 0.1-5.8-0.4-8.6 0.5 0.3 1 0.3 1.5 0.5 1.6 2.3 1.4 4.5 2.9 6.9 4.2q27.8 15.4 49.7 37.5c9.5 9.5 16.3 20.6 21.7 32.7 1.4 3.1 2.4 6.4 3 9.6 0.4 2.3 0.2 4.8-0.4 7-1.2 4.5-5.1 6.5-9.4 4.9-2.8-1-5.6-2.5-8.1-4.2-5.7-4.1-11.3-8.5-16.8-12.9-5-4-9.9-8.1-14.9-12.1zm-356.7-578.7c2.1 8.7 6.4 14.8 11.9 19.8 7.2 6.5 14.8 12.7 22.7 18.5 9.2 6.8 19 12.9 28.4 19.5 13.3 9.4 25.6 19.8 35.3 33 0.6 0.8 1.5 1.4 2.3 2.1 0.7-0.9 1.5-1.6 1.9-2.4 4.3-9.4 10.5-17.3 16.9-25.2 6-7.3 12.1-14.5 17.9-22 7.2-9.4 13.1-19.6 17.1-30.8 1.9-5.3 3-10.3-0.1-15.6-1.3-2.2-1.7-5.1-2.4-7.7-7.5-28.4-8.7-57.2-4.8-86.3 0.2-1.6 0.3-3.2 0.5-5.5-3.8 0.7-6.7 1.2-9.6 1.7-5.9 1.1-11.9 2.5-17.9 3.1-28.9 2.9-57.2 0.4-84.8-9.2-1.8-0.7-3.7-1.9-5.6 0.1 6.2 19.1 2.9 38-2.2 56.7-5.1 18.8-12.6 36.4-27.5 50.2zm-201.6 588.9c0.4-2.2 0.8-2.9 0.7-3.5-2.1-10.7-1.4-21.4 0.6-32.1 5-26.3 15.9-49.3 36.9-66.8 1.5-1.3 2.9-2.8 3.9-4.5 3.8-5.9 7.9-11.8 11-18.1 5.3-10.5 11.7-20.1 20.1-28.7-5.4-5-10.9-9.3-13.1-15.9-1.8-5.3-5.4-8.2-9.8-10.9-5.5-3.2-11.1-6.5-16.2-10.3-27.1-20-45.3-45.9-52.1-79.3-0.4-2.3-1.1-4.5-1.8-7.4-2.1-0.4-4.6-1.6-6.6-1-2.8 0.7-5.8 2.2-7.7 4.3-3 3.1-5.3 6.9-7.5 10.7-5 8.8-9.8 17.7-17.2 24.5 0.6 6.1 1.5 11.7 1.8 17.4 0.7 17.5 1.6 35.1 1.7 52.6 0.3 29.3 1.3 58.7 3.8 87.9 1.5 17.5 3.2 34.9 4.7 52.4 0.2 2.9 0.9 5.4 2.8 7.3 3.1 3.1 6.1 6.5 9.7 8.8 10.3 6.6 22 9.8 34.3 12.6zm47-95.6c-22.6 15.8-26.7 23.5-33.4 42.8-0.9 2.5-1.7 5.1-2.5 7.6-3.6 11.5-4.7 23.4-2.9 35.1 2.1 12.6 5.7 24.9 9.2 37.3 8.3 29.4 23.6 55 44.2 77.4 8.6 9.3 16.2 19.1 22.9 29.6 2.6 4 5.6 7.7 9.8 10 1.3 0.7 3 0.7 4.4 1 1-4.4 2.2-5.4 4.2-4 2.7 1.9 5.2 4.3 8 6.1 4.9 3.3 10 3.7 15.4-0.3-2-2.1-3.8-4-5.6-5.9-2.9-2.9-5.8-5.6-8.6-8.5-0.9-1-1.8-2.2-0.2-3.8 9.6 3.4 14.6 13.4 23.3 17.6 3.7-1.7 4.9-4.3 5.4-7.6-4.1-3.4-8.5-6.5-12.4-10.2-4-3.9-9.3-6.6-12.9-12.7 2.5 0 4.3-0.5 5.4 0.1 3.1 2 6 4.3 8.8 6.7 3.7 3 7.1 6.2 10.8 9.1 1.2 0.9 2.9 1.2 4.1 1.6 0.9-1 1.7-1.5 1.8-2 1.2-7.5-0.1-13.9-7.4-18.2-4.6-2.8-8.8-6.2-13.2-9.4-1.3-0.9-3-2.4-1.5-4 0.9-0.8 3.4-0.9 4.6-0.3 2.7 1.3 5.1 3.2 7.6 4.9 2.4 1.6 4.8 3.3 7.5 5.1 0.1-1.4 0.3-2.1 0.1-2.6-5.3-13.2-16-18.3-29.3-19.9-4.3-0.5-8 0.5-11.5 2.9-6.2 4.2-11.2 9.7-15.6 15.7-2.2 3-4.1 6.2-6.5 9-0.9 1.1-2.6 1.6-3.9 2.3-2.3-3.1-1.4-5.8-0.2-8.1 5.5-10.4 13-19 23.5-24.5 2.1-1 4.2-2 6.7-3.2-1.4-11.7-4.4-22.6-10.2-32.7-0.8-1.5-1.9-2.8-3.2-3.9-3.6-2.9-5.3-6.8-6.2-11.2-0.7-4-1.8-7.9-2.5-11.9-0.8-4.5-3.1-8-5.9-11.6-8.5-10.7-18.4-19.6-30.8-25.8-1.5-0.7-2.9-1.6-4.2-2.7-1.3-1-2.8-2.6-1.6-4.2 0.8-1.1 2.9-2 4.2-1.8 3.6 0.7 7.3 1.6 10.5 3.2 6.2 3 11.1 7.7 15.6 12.8 1.5 1.6 3.2 3 5.8 5.6 1.1-1.8 1.7-3.1 2.5-4.1 6.7-8.2 12-17.2 14.6-27.5 1-4.2 2.9-7.4 7-9.3 5.7-2.6 9.6-7.4 13.6-11.9 6.4-7.4 12.5-15 16.4-24.5-12.8-19.7-29.9-33.8-51.9-41.9-2.8-1-5.9-1.5-8.9-1.9-9.7-1.1-13.6 0.9-17.7 9.7-2.6 5.8-4.6 11.9-7.3 18.9zm279.7-360.7c1 0.1 1.4 0.2 1.6 0.1 28.1-9.4 46.3-28.2 53.4-56.9 5.7-23.2 2.8-46.2-5.1-68.5-1.9-5.6-6.1-9.1-11.7-13.3 0 7-1.9 12.2-3.6 17.5-5.4 17-14.4 31.8-25.1 45.8-5.8 7.4-11.6 14.8-17.3 22.3-4.9 6.5-9.2 13.3-12.5 20.8 0.8 3.3 1.6 6.5 2.3 9.5 11.2 6.1 11.3 6.2 18 22.7zm-35.6 4c1.4-11 2.8-21 11-28-16.2-19.5-34-36.3-54.3-50.5-5-3.5-9.9-7-14.6-10.9-7.1-5.7-14.1-11.5-20.8-17.7-5.7-5.3-10.4-11.4-13.4-18.8-0.4-1-1.4-1.9-3-3.9-1 4.5-2.2 7.8-2.2 11-0.1 5.7 0 11.5 1 17.1 3.8 20.1 11.6 38.6 23.4 55.4 8.6 12.3 18.9 22.8 31.5 31.1 12.2 8.1 25.5 13.5 41.4 15.2zm435.6 306.7c9.3 1.1 17.2 0.4 24.9-2.4 6.1-2.1 10.2-6.5 12.7-12.3 1.7-4 3.1-8.2 4.3-12.4 2.1-8 6.1-14.9 11.4-21.2 3.9-4.6 7.9-9.2 11.8-13.8 8.7-10.3 14-22.2 16.9-35.2 0.6-2.6 0.8-5.3 0.9-8 0-3.7-1.6-6.1-3.9-6.2-2.9-0.1-4.2 2-5.1 4.1-2 4.3-3.6 8.7-5.5 13-0.7 1.5-1.6 3.1-4.2 2.6-0.7-1.5-1.6-3.2-2.5-4.8-1.5 0.4-3 0.8-4.8 1.3-0.2-1.7-0.3-2.7-0.3-3.6 0.1-1.1 1.2-2.5-1.2-3.5-1.7 2.7-3.4 5.5-5.2 8.2-1.1 1.7-2.2 3.4-3.6 4.9-0.5 0.5-2 0.6-2.7 0.3-0.6-0.3-1.2-1.6-1.2-2.4 0.1-1.5 0.6-3 1.1-5.4q-5 6-10.5 6.7c-1.4 3.5-2.8 7.3-4.4 11-3 6.8-5.8 13.6-9.3 20.1-3.6 6.8-7.7 13.4-15.2 16.3-1.6 14.3-4.3 27.9-4.4 42.8zm-26.2-114.8c2.4-3.6 4.1-6.8 6.4-9.7 2.5-3.1 5.6-5.8 8.1-9 3.3-4.2 6.4-8.6 9.4-13.2 2-3.1 3.2-6.7 2.3-10.6-0.1-0.5-0.7-0.9-1.2-1.5-2 0.8-4.1 1.5-7.2 2.6 0.3-2.7 0.3-4.7 0.9-6.4 1.1-3.1 2.9-6.1 3.8-9.3 0.8-2.7 0.2-5.3-3.5-6.3-1.5 2.5-3 5.1-4.7 7.5-0.2 0.4-1.3 0.8-1.7 0.5-0.8-0.4-2-1.4-1.9-1.9 0.9-3.2 1.9-6.4 3.1-9.5 1.3-3.2 2.8-6.2 2-9.7-0.5-2.1-1.3-3.9-4.4-3.7-0.9 2.3-1.9 4.7-2.8 7.2q-1.4 3.8-5.4 7c-1.7-9.1 5.7-16.7 3.5-25.5q-7.3 1.4-8.9 6.6c-0.9 2.9-1.6 5.8-2.5 8.7-0.5 1.6-1.1 3.2-2 4.6-0.5 0.6-1.9 1.2-2.6 0.9-0.6-0.2-1.5-1.5-1.4-2.2 0.3-2.6 0.9-5.3 1.5-7.9 1.4-5.9 3.3-11.7 2.6-17.9-0.2-1.8-1.3-3.5-1.9-5.1-3.8-0.1-5.7 2.1-7 4.3-3.1 5.2-6.3 10.4-8.5 16-5.7 14.1-9.4 28.9-12.8 43.7-0.7 3.2-1.2 6.5-1.8 9.8 5.1 2.9 9.9 5.4 14.3 8.4 4.4 3.1 8.5 6.6 12.5 10.2 4 3.6 7.7 7.4 11.8 11.4zm-440.7 239.8q2.4 0.2 4.9 0.3c17.5 1.2 35 2.1 52.5 3.7 12.4 1 24.8 2.8 37.1 4.6 25.8 3.7 51.3 8.6 74.2 22 1.6 1 3.3 2.4 6 1-1.7-3.7-5.1-5.9-8.1-8.2-17-13.5-34.7-25.7-53.6-36.3-6.4-3.6-13.5-6.1-20.3-8.9-4.1-1.7-8.2-2.3-12.8-0.8-3.4 1-7.3 0.7-11 0.8-9.9 0.2-19.5 1.6-29 4.1-14.1 3.7-27.6 8.6-39.9 17.7zm327.2-265c6-1.2 12.3-2.3 18.5-3.8 6-1.5 12.5-1.5 18.3-5-3.4-12.4-6.8-24.3-10.2-36.2-0.4-1.6-1.2-3.1-2.2-5.2-5.1 0.5-10 1.5-14.9 2.7-15.4 3.9-30.3 9.1-44.7 15.8-18.2 8.6-36.2 17.8-54.3 26.7-0.5 0.3-0.6 1.1-1.1 2.1 6-0.7 11.2-2.9 16.5-4.7 15.6-5.4 31.5-6.9 47.8-4.8 9.9 1.3 19.2 3.7 26.2 12.4zm132.3 154c0.7-10.3 0.9-19 1.9-27.6 1-8.8 2.8-17.5 4.7-28.7-3.9 5.1-6.2 8.3-8.8 11.4-2.6 3-5.3 6-8.2 8.8-2.9 2.8-6.2 5.2-9.2 7.8-2.9 2.5-6.9 3.8-9.5 7.7 8.9 7.9 17.6 15.1 29.1 20.6zm-473.1-78.6c-1.3 1.5-2.3 2.4-2.9 3.5-1.8 3.6-3.4 7.3-5.1 10.9-6.4 13.5-16.9 21.7-31.8 23.6-3 0.4-6.1 0.3-8.4 2.9q-3.3 3.8-7 7.3c-2.4 2.3-4.9 4.3-8 7 1.7 0.3 2.7 0.8 3.5 0.6 19.8-3.6 36.7-13 51.2-26.8 2.9-2.8 5.3-6.2 7.4-9.6 2.9-4.7 4.1-10 3.2-15.5-0.2-1.2-1.2-2.2-2.1-3.9zm65.4-221.4c5.2-5.6 5.8-11.5 5-17.6-1-7.3-2.3-14.7-8.6-19.7-0.9-0.7-2.4-0.7-3.9-1.2-3.6 9.1-4 18-1.9 27 1.2 4.9 3.7 9.2 9.4 11.5zm129.2-486.5c-0.7 0.7-1.1 0.9-1.1 1 1 22.2 2.2 44.3 1.4 66.4 0 0.6 0.5 1.2 0.7 1.7 2.6-0.3 2.8-2.5 3.2-4.4 3.4-16.3 2.8-32.7 0.9-49.1-0.5-4.3-1.7-8.6-2.9-12.8-0.3-1-1.4-1.8-2.2-2.8zm64.7 738.1c-2.6 10.4-5 20-7.3 29.7-1.3 5.2-2.5 10.4-3.5 15.7-0.3 1.5-0.1 3.2 0.1 4.9 0.1 0.4 0.9 0.9 1.5 1 0.5 0.1 1.5-0.2 1.7-0.6 0.7-1.5 1.3-3 1.7-4.6 3.1-10.3 6.1-20.6 9.2-30.8 1.3-4.4 0.9-8.6-0.1-12.8-0.3-0.9-1.9-1.5-3.3-2.5zm222 42.5c-0.6 4.2 0.5 6.8 2.7 9.5 3.7-2.4 5.3-5.4 6.1-9.5zm-189.8 112.6c-5.8-8.1-10-11.1-18.2-14.4 0.8 1 1.3 1.9 2 2.5 5.4 4 10.8 7.9 16.2 11.9zm86.7-297.2c1.4-4.2 1.6-6.8 0.2-9.3-1-1.7-2.3-3.3-5.1-1.7 0.5 3.5 1.9 6.6 4.9 11zm-128.8 99.2q-7.1 4.5-6.4 6.1c1.9 0.3 4.1 0.8 7 1.4-0.2-2.7-0.4-4.5-0.6-7.5zm54.5 208.1q0.4-0.3 0.9-0.6c-0.4-0.7-0.6-1.5-1.1-2-0.9-0.8-1.9-1.4-2.9-2.1q-0.4 0.4-0.8 0.8 2 2 3.9 3.9z"/><path  d="m697.8 1499.8c0.1 1.3 0.5 2.7 0.2 3.9-4.4 24.9-7.6 50-14.1 74.5-7.1 26.5-17.2 51.9-28.9 76.6-5.2 10.9-10.4 21.9-16 32.7-21.1 40.6-36.4 83.4-47.9 127.6-3.2 12.1-6.8 24-10.3 36-0.8 2.7-1.4 5.7-3.4 7.8-2.7-1-2-2.9-1.9-4.4 2-20.5 5.3-40.8 9.8-60.9 8.3-37.1 20.7-72.6 37.8-106.5 5.6-11.2 11-22.5 16.8-33.5 20.7-39.7 36.1-81.3 46-125 1.8-8.2 4.5-16.2 7-24.3 0.7-2.1 1.4-4.6 4.9-4.5z"/><path  d="m889.9 1401.2c1.9 2.3 3.9 3.8 4.6 5.8 2.2 6.3 4.5 12.7 5.9 19.3 4.9 24.4 4.9 48.9 1.5 73.5-3.7 27.2-11.5 53.4-20.2 79.4-9.2 27.8-18.8 55.5-26.2 84-8.4 32-14.2 64.5-17.7 97.5-1.9 17.7-3.8 35.5-5.8 53.3-0.5 4.7-1.4 9.4-2.5 13.9-0.8 3.6-1.9 7.2-5.9 9.7-0.7-1.3-1.8-2.3-1.9-3.3-0.2-4.1-0.3-8.1-0.1-12.2 1.4-22.5 2.8-45.1 5.5-67.6 5.1-42.3 14.5-83.7 27.9-124.2 7.8-23.6 16.3-47.1 24.3-70.8 7.1-21.5 13.2-43.2 15.9-65.8 3.5-29.7 3.4-59.3-6.3-88.1-0.2-0.6-0.2-1.3-0.2-2 0-0.3 0.3-0.5 1.2-2.4z"/><path  d="m1047.8 1533.2c5.4 24.7 10.6 49.4 16.3 74 9.2 40.5 18.8 80.8 28.1 121.2 7.8 34.2 14 68.8 18.7 103.5 1.2 9 1.8 18.1 2.5 27.2 0.2 1.8-0.2 3.7-1 5.6-1.9-2.9-2.7-6-3.4-9.3-3.7-19.8-7.4-39.7-11.4-59.5q-11.8-57-24-113.9c-8-36.9-16.2-73.7-22.4-111-1.7-10-3-20-4.4-30-0.3-2.7 0-5.3 0-8q0.5 0.1 1 0.2z"/><path  d="m422.3 1617.6c-0.6 0.2-1.1 0.5-1.7 0.5-0.1 0.1-0.5-0.5-0.5-0.7 0-0.3 0.5-0.7 0.6-0.7 0.6 0.2 1 0.6 1.5 0.9z"/><path  d="m886.6 422.2c-3.8 3.5-5.9 5.5-8.5 7.9 1.2 1.7 1.9 3.8 3.4 4.7 5.1 3.1 10.3 6.3 16 8.5 17.1 6.6 35.1 9.3 53.5 9 2.2 0 4.4 0.1 7.4 0.2-1.1 1.5-1.5 2.7-2.1 2.9-3.2 1-6.5 2.1-9.8 2.4-19.4 1.6-38.4-0.3-56.7-7.3-4.7-1.8-9.2-4.2-13.4-6.9-2.7-1.8-5.1-4.5-6.9-7.3-2.8-4.4-2.2-9.9 1.4-12.9 2-1.6 4.7-2.9 7.2-3.2 2.1-0.4 4.3 0.9 8.6 2z"/><path  d="m896.5 331.2c-0.3 11-11 19.1-20.8 15.7-10-3.5-13.6-16.9-6.7-24.9 0.9-1 1.9-1.8 2.9-2.8 4.7-4.3 10-5.3 15.8-2.8 5.2 2.3 8.9 8.7 8.7 14.8z"/><path  d="m994.3 324.5c-0.2 7.2-4.2 12.7-10.6 14.3-5.4 1.3-10.2 0.3-13.9-3.9-3.7-4.1-4.7-9.1-2.5-14.1 1.6-3.7 3.8-7.2 6.4-10.2 3.6-4.4 10.1-4.4 14.5-0.5 4.2 3.8 6.1 8.7 6.1 14.4z"/><path  d="m899 287.3c-7.8 0.8-15.1 1.4-22.5 2.2-7.3 0.8-14.7 1.4-22 2.8-7.2 1.4-14.3 3.6-21.5 5.4-7 1.8-13.5 6-22.1 6.3 1.2-2.1 1.6-3.6 2.5-4.3 3.2-2.4 6.4-5 10-6.7 22.5-11 46.2-13.7 70.8-9.8 1.9 0.3 4.2 0.2 4.8 4.1z"/><path  d="m940.1 401.5c3.4 1.3 6.1 2.5 8.9 3.3 6.4 1.9 11-2 9.5-8.6-0.9-4.1-2.8-8.2-4.7-12.1-2.4-4.8-5.3-9.3-7.8-14.1-2.7-5.1-4-10.7-4-16.5 0.1-1.9 0.8-3.8 1.6-7.6 1.4 3.1 2.3 4.4 2.6 5.8 2 8.3 6.1 15.5 10.8 22.5 2.8 4.2 5.5 8.5 7.8 13 1.9 3.9 3.1 8.1 2.9 12.7-0.4 7.7-5.4 13.7-12.7 14.7-6.2 1-12.9-3.2-15.7-10-0.2-0.4 0.2-1.2 0.7-3.1z"/><path  d="m1024.4 276.6c-1.3 0.4-2 0.9-2.5 0.8-15.9-2.5-31.4 0.6-47 3.2-4.6 0.8-9.2 1.8-13.9 2.5-3.1 0.4-6.4 1.3-9.9-0.4 1.3-3.8 4.7-4.1 7.3-4.9 12.2-3.9 24.7-6.3 37.5-7.5q11.1-1 22 1.3c2.5 0.6 5.2 1.2 6.5 5z"/><path  d="m793.4 1035.7c-5.1 0.7-11.3-0.5-17-3.9-6.2-3.8-8-8.6-6.1-15.5 1.5-5.4 4.7-9.7 9.3-12.8 2.5-1.7 5.1-3.2 7.8-4.6 7.5-4 12.7-9.9 16-17.6 1.6-3.7 3.1-7.6 5.1-11 1.7-2.8 3.8-5.7 6.4-7.7 6.9-5.3 16.3-3.8 21.5 3.2 4.1 5.7 5.7 12.2 4.9 19.1-0.8 8.4-2 16.8-3.1 25.1-0.8 5.6-3.8 10-7.7 13.9-6.8 6.8-15.3 9.6-24.5 10.9-3.7 0.5-7.4 0.5-12.6 0.9zm1.8-6.1l0.1-0.6c2.3-0.1 4.8 0 7-0.5 5.6-1.1 11.4-1.9 16.6-4.1 8.6-3.7 13.7-10.4 14.2-20.3 0.2-4.7 1.4-9.3 1.8-14 0.4-4 0.7-8.1 0.5-12.1-0.2-3.7-1.9-7.1-4.5-9.9-3.1-3.2-7-3.8-11.1-2-3.6 1.7-5.7 4.7-7.6 7.9q-5.3 9.1-10.4 18.4c-2.4 4.2-5.7 7.5-9.7 10.2-2.5 1.7-5.1 3.1-7.7 4.8-3.5 2.2-6.1 5.1-7.8 9-2.2 5.5-0.9 9.5 4.8 11.1 4.4 1.3 9.2 1.5 13.8 2.1z"/><path  d="m797.9 893.8c-7.6 5.1-13.5 8.4-18.7 12.6-4.9 4-9.3 8.7-13.8 13.3-4.7 4.7-6.7 11.4-11.5 15.8-2.8-1.1-2.9-2.9-2.4-4.4 0.9-2.9 1.9-5.9 3.5-8.4 9-14.2 21.4-24 37.6-28.9 0.9-0.3 2 0 5.3 0z"/><path  d="m725.1 948.6c-3.6 5.3-7 9.8-10.1 14.6-1.6 2.5-2.8 5.4-3.8 8.2-1.8 4.8-3.2 9.6-4.9 14.4-1 2.8-1.8 5.8-5.4 7.5-0.7-1.1-1.9-2.2-1.8-3.2 1.8-15 6.7-28.8 18.3-39.3 1.8-1.6 3.8-3.9 7.7-2.2z"/><path  d="m737.7 994.8c-0.9-0.8-3-1.8-3.6-3.3-3.1-7 2.9-15.9 10.5-15.8 4.5 0 7.6 3.5 6.8 8-0.2 1.6-0.8 3.3-1.7 4.7-2 3.2-7.1 6-12 6.4z"/><path  d="m780.9 942.1c0-6.2 3.5-9.9 8.9-9.3 2.1 0.3 3.8 1.3 4.7 3.3 2.5 5.2-1 12-6.6 13.1-3.8 0.8-6.4-1.2-6.9-5.1-0.1-0.7-0.1-1.4-0.1-2z"/><path  d="m772.1 971c5.3-2.4 9.4-4.4 13.7-6.1 2.9-1.2 6.4 0.5 7.2 3.6 1 3.7 1.3 7.6-0.7 11.5-4.8-1.8-1.8-7.2-5.5-9.7-4.3-0.3-8.8 4.5-14.7 0.7z"/><path  d="m1153 1058.3q3.1 8.5 2.3 16.5c-5.6-3.8-6.7-11.5-2.3-16.5z"/><path  d="m1145 1010.5c-5-5.6-3.8-11.4-3-17.2 2.8 5.1 4.1 10.5 3 17.2z"/><path  d="m1145.3 1043.2c-2.9-4.3-2.4-7.6-0.8-11.8 2.5 4.2 2.2 7.5 0.8 11.8z"/><path  d="m798.1 1015.2c2.8-0.1 5.4-0.2 8-0.5 10.9-0.9 17.1-8.5 15.6-19.2-0.2-1.9-0.8-3.8-1.1-5.5 1.7-1.7 2.6-0.5 3.4 0.5 3.8 5 4.2 10.4 2 16.2-3.9 10-14.5 15.8-24.4 13.1-1.5-0.3-2-1-3.5-4.6z"/><path  d="m816.7 994.5c1.5 5 1.1 9.4-1.9 13.4-2.9 3.8-7.9 5.1-10.5 2.9-2.4-2.1-2.5-6.5-0.1-10.2 2.9-4.4 6.4-7.8 12.5-6.1zm-8.8 10.2q4.9-1.8 4.2-5.5c-1.6 2.1-2.9 3.8-4.2 5.5z"/></svg>