<svg width="24" height="24" viewBox="0 0 24 24" fill="none" xmlns="http://www.w3.org/2000/svg">
<path d="M12.9475 4.79999H12.4767C10.1695 4.79999 9.01588 4.79999 8.13463 5.25776C7.35947 5.66043 6.72924 6.30295 6.33427 7.09323C5.88525 7.99166 5.88525 9.16777 5.88525 11.52V14.4M12.4244 7.19999H13.4707C14.9356 7.19999 15.668 7.19999 16.2276 7.49724C16.7197 7.75872 17.1199 8.17593 17.3707 8.6891C17.6557 9.2725 17.6557 10.0362 17.6557 11.5636V14.8364C17.6557 16.3638 17.6557 17.1275 17.3707 17.7109C17.1199 18.224 16.7197 18.6413 16.2276 18.9027C15.668 19.2 14.9356 19.2 13.4707 19.2H12.4244C10.9595 19.2 10.2271 19.2 9.66753 18.9027C9.17536 18.6413 8.77521 18.224 8.52444 17.7109C8.23935 17.1275 8.23935 16.3638 8.23935 14.8364V11.5636C8.23935 10.0362 8.23935 9.2725 8.52444 8.6891C8.77521 8.17593 9.17536 7.75872 9.66753 7.49724C10.2271 7.19999 10.9595 7.19999 12.4244 7.19999Z" stroke="#2F2F2F" stroke-width="1.5" stroke-linecap="round"/>
</svg>
