<svg width="24" height="24" viewBox="0 0 24 24" fill="none" xmlns="http://www.w3.org/2000/svg">
<path d="M15.6 4.2H8.39999C6.41176 4.2 4.79999 5.87893 4.79999 7.95V11.65C4.79999 13.7211 6.41176 15.4 8.39999 15.4C8.73136 15.4 8.99999 15.6798 8.99999 16.025V18.2869C8.99999 18.5792 9.35083 18.7115 9.53045 18.4869L11.8201 15.6249C11.9341 15.4824 12.1029 15.4 12.281 15.4H15.6C17.5882 15.4 19.2 13.7211 19.2 11.65V7.95C19.2 5.87893 17.5882 4.2 15.6 4.2Z" stroke="#2F2F2F" stroke-width="1.5"/>
<path d="M10.8 9.9C10.8 10.3971 10.3971 10.8 9.9 10.8C9.40294 10.8 9 10.3971 9 9.9C9 9.40294 9.40294 9 9.9 9C10.3971 9 10.8 9.40294 10.8 9.9Z" fill="#2F2F2F"/>
<path d="M15 9.9C15 10.3971 14.5971 10.8 14.1 10.8C13.6029 10.8 13.2 10.3971 13.2 9.9C13.2 9.40294 13.6029 9 14.1 9C14.5971 9 15 9.40294 15 9.9Z" fill="#2F2F2F"/>
</svg>
