<svg width="18" height="18" viewBox="0 0 18 18" fill="none" xmlns="http://www.w3.org/2000/svg">
<path d="M12.1877 13.95C12.1877 14.3366 12.5011 14.65 12.8877 14.65C13.2743 14.65 13.5877 14.3366 13.5877 13.95H12.1877ZM4.25979 13.95C4.25979 14.3366 4.57319 14.65 4.95979 14.65C5.34639 14.65 5.65979 14.3366 5.65979 13.95H4.25979ZM14.1638 11.1952V10.4952C13.78 10.4952 13.4678 10.8042 13.4638 11.1879C13.4598 11.5716 13.7655 11.887 14.1491 11.8951L14.1638 11.1952ZM13.938 6.36303C13.5514 6.36303 13.238 6.67643 13.238 7.06303C13.238 7.44963 13.5514 7.76303 13.938 7.76303V6.36303ZM15.9315 13.95C15.9315 14.3366 16.2449 14.65 16.6315 14.65C17.0181 14.65 17.3315 14.3366 17.3315 13.95H15.9315ZM3.83608 11.1952L3.85072 11.8951C4.23438 11.887 4.54006 11.5716 4.53604 11.1879C4.53203 10.8042 4.21982 10.4952 3.83608 10.4952V11.1952ZM4.06197 7.76303C4.44857 7.76303 4.76197 7.44963 4.76197 7.06303C4.76197 6.67643 4.44857 6.36303 4.06197 6.36303V7.76303ZM0.668498 13.95C0.668498 14.3366 0.981899 14.65 1.3685 14.65C1.7551 14.65 2.0685 14.3366 2.0685 13.95H0.668498ZM11.1967 7.01999C11.1967 8.27301 10.1798 9.28999 8.92376 9.28999V10.69C10.9516 10.69 12.5967 9.04754 12.5967 7.01999H11.1967ZM8.92376 9.28999C7.66777 9.28999 6.65078 8.27301 6.65078 7.01999H5.25078C5.25078 9.04754 6.89589 10.69 8.92376 10.69V9.28999ZM6.65078 7.01999C6.65078 5.76696 7.66777 4.74999 8.92376 4.74999V3.34999C6.89589 3.34999 5.25078 4.99244 5.25078 7.01999H6.65078ZM8.92376 4.74999C10.1798 4.74999 11.1967 5.76696 11.1967 7.01999H12.5967C12.5967 4.99244 10.9516 3.34999 8.92376 3.34999V4.74999ZM5.65979 13.95C5.65979 13.3921 5.66091 12.9193 5.71582 12.4993C5.76989 12.0857 5.87026 11.7805 6.03105 11.548C6.32432 11.1238 7.00777 10.69 8.92376 10.69V9.28999C6.87577 9.28999 5.57723 9.74265 4.87951 10.7517C4.54481 11.2358 4.39743 11.7839 4.32763 12.3178C4.25866 12.8454 4.25979 13.4144 4.25979 13.95H5.65979ZM8.90856 10.6898C10.8324 10.7316 11.5235 11.1629 11.8193 11.5843C11.9787 11.8114 12.0782 12.1077 12.1319 12.5127C12.1866 12.9251 12.1877 13.3917 12.1877 13.95H13.5877C13.5877 13.4148 13.5889 12.8503 13.5197 12.3287C13.4496 11.7996 13.3013 11.2587 12.9652 10.7799C12.27 9.78964 10.9791 9.33446 8.93896 9.29015L8.90856 10.6898ZM15.2158 9.12912C15.2158 9.59471 15.0991 9.94466 14.9312 10.1613C14.7814 10.3545 14.5527 10.4952 14.1638 10.4952V11.8952C14.9607 11.8952 15.608 11.5734 16.0378 11.0189C16.4494 10.4877 16.6158 9.8046 16.6158 9.12912H15.2158ZM13.938 7.76303C14.6876 7.76303 15.2158 8.32298 15.2158 9.12912H16.6158C16.6158 7.65312 15.5602 6.36303 13.938 6.36303V7.76303ZM14.1491 11.8951C15.5528 11.9244 15.7891 12.2317 15.8521 12.3512C15.9051 12.4515 15.9418 12.6112 15.9487 12.9027C15.9521 13.0443 15.9484 13.198 15.9432 13.3767C15.9381 13.5502 15.9315 13.7471 15.9315 13.95H17.3315C17.3315 13.7725 17.3373 13.6 17.3426 13.4178C17.3478 13.2409 17.3527 13.0529 17.3483 12.8696C17.3398 12.5113 17.2965 12.0885 17.0903 11.6979C16.6352 10.8353 15.6377 10.5259 14.1784 10.4954L14.1491 11.8951ZM1.38422 9.12912C1.38422 9.80456 1.55052 10.4877 1.96215 11.0188C2.3919 11.5734 3.03915 11.8952 3.83608 11.8952V10.4952C3.44717 10.4952 3.21848 10.3545 3.06877 10.1613C2.90093 9.9447 2.78422 9.59474 2.78422 9.12912H1.38422ZM4.06197 6.36303C2.43981 6.36303 1.38422 7.65312 1.38422 9.12912H2.78422C2.78422 8.32298 3.31245 7.76303 4.06197 7.76303V6.36303ZM3.82144 10.4954C2.36219 10.5259 1.36466 10.8353 0.909579 11.6979C0.703492 12.0886 0.660124 12.5113 0.651661 12.8696C0.647332 13.0529 0.652215 13.2409 0.657405 13.4178C0.662751 13.6 0.668498 13.7725 0.668498 13.95H2.0685C2.0685 13.7471 2.06189 13.5502 2.0568 13.3767C2.05156 13.198 2.04793 13.0443 2.05127 12.9027C2.05816 12.6112 2.09489 12.4515 2.14784 12.3511C2.21084 12.2317 2.44709 11.9244 3.85072 11.8951L3.82144 10.4954Z" fill="#2F2F2F"/>
</svg>
