<?xml version="1.0" encoding="UTF-8"?><svg id="a" xmlns="http://www.w3.org/2000/svg" viewBox="0 0 1159.02 1242.08"><defs><style>.b{fill:#fff;}.c{fill:#2d3269;}</style></defs><path class="b" d="M928.2,618.51l-22.59-12.42-53.08,1.13-30.49,13.55-45.18,16.94,3.39-21.46-44.05,13.55-49.69,46.31-70.02,176.19-22.59-14.68-37.27-62.12-24.85-50.82-19.2-58.73-20.33-46.31-45.18-39.53-56.47-15.81-50.38-10.09-4.96-11.37,4.52-36.14,7.95,10.72,48.28-8.61,13.8-23.56,19.2-60.99,4.52-31.62,29.36,22.59,15.81-12.42-2.26-19.2-14.68-24.85-9.04-44.05-6.78-58.73-22.59-89.22-37.27-16.94-119.72,80.19-22.59,144.56-3.39,91.48-14.68,55.34-32.75,51.95-60.99,62.12-22.39,44.37,12.23,114.87,41.79,82.45-15.81,177.32-5.65,124.24,82.45-45.18,140.05-75.67,49.69-33.88,90.35,4.52,85.84-11.29-41.79,48.56,28.24,9.04,212.33,11.29,74.54-5.65,42.92-160.38-169.41-18.07-81.32,67.76-28.24-3.39,32.75-39.53,42.92-107.29,19.2-81.32,55.34-6.78,1.13,12.42,22.59,5.65h15.81l20.33,14.68,41.79,4.52,38.4-11.29,10.16-19.2,2.26-37.27-2.26-82.45Zm-468.54,334.62l-2.17-103.64,13.05-47.11,17.39,34.79,57.26,72.48,34.79,25.37,29.72,28.99-150.02-10.87Zm355.6-216.03l-16.94-2.82,5.08-16.38-2.82-11.29,3.95-11.86-6.21-9.04,9.6-14.12-10.73-6.21,6.78-19.76,12.99-1.13-1.69,92.61Z"/><g><path class="c" d="M1107.17,809.05c-4.8,13.85-9.61,27.29-14.11,40.84-8.99,27.03-17.9,54.09-26.63,81.21-2.48,7.71-7.42,11.84-14.61,15.65-16.27,8.63-32.14,18.21-47.31,28.67-12.83,8.85-24.41,19.51-36.59,29.31-13.1,10.54-26.14,21.15-39.43,31.44-5.24,4.06-10.85,7.8-16.69,10.92-11.45,6.12-21.2,14.33-30.57,23.12-2.17,2.03-4.48,4.28-7.15,5.28-2.14,.8-5.58,.69-7.24-.59-1.35-1.04-1.06-4.39-1.21-6.73-.06-.9,.56-1.91,1.05-2.77,10.5-18.55,14.41-39.07,18.5-59.65,1.99-9.98,6.2-19.51,9.11-29.33,2.23-7.53,3.46-15.39,6.09-22.76,4.73-13.29,6.36-27.61,11.29-40.83,1.84-4.92,4.57-11.07,5.54-16.24,4.78-25.69,14.67-48.47,26.22-71.76,8.11-16.37,9.22-33.52,16.42-50.24,2.64-6.13,7.29-13.61,9.04-20.12,1.12-4.17,2.51-10.01,7.38-9.78,3.54,.17,6.36-2.03,6.83-6.28,.22-1.97,4.73,.5,6.41-.59,42.73-27.72,85.65-58.07,128.14-86.15,8.73-5.77,17.18-12.75,26.58-17.16,2.73-1.28,9.01-2.96,12-2.4,1,.19-.32,10.32-.48,12.55-.7,9.58-2.09,18.91-7.24,27.51-2.73,4.56-3.68,10.2-5.3,15.4-3.25,10.42-6.78,20.78-9.42,31.36-.97,3.9,.25,8.35,.46,12.55,.1,2.11,.66,4.35,.16,6.32-5.77,22.85-15.41,43.51-21.37,66.31-1.65,6.3-.95,9.31-5.85,4.93Zm-99.22,47.2c0,6.12-.44,11.57,.13,16.91,.52,4.89,6.4,6.91,10.46,4.01,3.24-2.3,6.44-4.67,9.59-7.08,8.69-6.67,10.32-28.14,7.36-29.98-.83-.89-7.06-8.34-8.31-8.12-7.84,1.37-8.43,.37-10.15,8.49-.09,.43-6.42,7.92-6.64,8.49-.97-.74-.92,8.45-2.45,7.28Z"/><path class="c" d="M363.03,861.62c.54-16.59,3.8-32.68,12.56-47.32,13.45-22.45,34.32-29.76,59.38-24.51,8.98,1.88,17.3,5.1,23.26,12.33,1.94,2.36,3.5,5.79,3.61,8.79,.67,17.92,1.15,35.86,1.12,53.8-.02,10.23-1.1,20.45-1.76,30.68-.06,.95-.22,2.17-.82,2.78-5.65,5.72-11.06,11.77-17.21,16.92-27.89,23.33-61.28,7.96-73.59-20.33-4.56-10.48-6.25-21.55-6.56-33.13Z"/><path class="c" d="M159.83,959.85c2.05-1.44,3.93-2.31,5.17-3.73,5.76-6.6,13.54-8.44,21.59-8.57,11.15-.17,22.1,1.63,32.09,7.08,19.14,10.44,29.04,26.78,31.66,48.31,2.1,17.34-1.26,32.94-12.41,46.42-10.05,12.15-23.05,19.76-38.89,20.87-18.92,1.33-35.07-10.8-42.95-29.49-5.36-12.73-3.86-25.21-1.59-37.95,2.14-11.97,4.59-23.88,6.54-35.88,.39-2.42-.84-5.11-1.21-7.06Z"/><path class="c" d="M240.13,685.24c25.25-.9,40,13.12,51.47,32.22,6.18,10.29,10.11,21.66,10.74,33.41,1.13,21.13-.84,41.9-14.65,59.62-1.28,1.64-1.1,4.39-1.69,6.6-.36,1.36-.54,3.33-1.46,3.83-1.21,.66-3.41,.7-4.54,0-2.07-1.29-3.81-3.21-5.43-5.09-25.88-30.06-44-68.58-66.61-101.15-2.53-3.65-11.94-12.17-8.7-14.49,13.71-9.82,24.13-15.91,40.86-14.92Z"/><path class="c" d="M414.6,710.76c-9.37-1.84-18.95-4.02-25.6-12.64-.97-1.26-2.59-2-3.79-3.11-3.83-3.53-8.41-8.49-4.76-12.24,1.15-1.19,2.86-2.55,3.38-4.35,.87-2.97,2.15-3.28,2.9-6.28,.39-1.57,3.53-4.38,3.32-5.94-1.85-13.77-3.78-27.54-5.82-41.28-.51-3.41-1.24-6.85-2.38-10.09-4.34-12.38-.36-23.14,6.34-33.3,3.76-5.7,7.66-6.96,13.54-4.98,.78,.26,1.86,1.4,1.81,2.07-.29,4.35,3.58,5.01,5.81,7.25,6.53,6.56,14.02,12.68,18.74,20.44,10.16,16.71,18.96,34.27,27.99,51.65,2.02,3.89,2.97,8.44,3.87,12.79,1.23,5.96-.83,11.07-4.12,16.24-9.57,14.99-23.56,21.74-41.23,23.78Z"/><path class="c" d="M371.47,1049.63c-2.72,1.25-5.49,2.4-8.15,3.76-5.46,2.79-11.06,5.39-16.26,8.61-20.49,12.69-40.86,25.56-61.22,38.44-3.22,2.04-5.97,4.91-9.33,6.62-1.91,.97-5.43,1.35-6.75,.24-1.55-1.3-2.64-4.9-1.97-6.82,8.39-24.23,22.63-43.94,45.46-56.55,7.32-4.04,15.21-5.35,23.74-5.91,12.84-.85,23.08,4.7,33.85,9.6,.21,.67,.43,1.35,.64,2.02Z"/></g><g><path class="c" d="M2.03,1242.08c-.6,0-1.29-.1-2.03-.21,0-.12,.02-.24,.03-.36,.07-.99,.19-2.66,.54-3,2.55-2.43,6-4.14,8.72-5.36,8.4-3.77,16.97-7.53,25.26-11.17,12.69-5.57,25.81-11.34,38.62-17.24,15.32-7.06,30.76-14.52,45.69-21.73,6.25-3.02,12.5-6.04,18.76-9.04,.86-.41,1.69-.88,2.48-1.34,.36-.21,.72-.41,1.09-.62l1.3-.72-.31-1.45c-3.52-16.46-2.25-33.22-1.02-49.43,.15-1.98,.3-3.96,.44-5.93,2.39-33.36,5.29-68.69,8.88-108.02,1.32-14.5,2.91-29.24,4.45-43.48,1.41-13.1,2.87-26.64,4.13-39.99,1.14-12.13,1.57-24.18,1.88-38.54,.07-3.11-1.1-6.86-3.21-10.27-21.09-34.23-33.7-64.13-39.7-94.09-2.86-14.3-4.57-29.13-6.22-43.48-.47-4.09-.94-8.18-1.44-12.27-1.83-15.08-3.06-31.28,.31-47.55,3.98-19.19,12.9-36.82,26.52-52.39,7.24-8.27,14.69-16.61,21.9-24.66,10.6-11.84,21.56-24.09,32.04-36.4,27.45-32.21,43.29-70.12,47.08-112.67,.68-7.64,1.48-15.26,2.25-22.63,.35-3.3,.69-6.55,1.01-9.71l.24-2.34-2.35,.14c-2.68,.16-5.33,.42-7.9,.66-4.21,.4-8.18,.78-12.13,.78-1.37,0-2.64-.05-3.88-.14-14.63-1.1-25.92-9.06-32.65-23.02-5.73-11.9-10.6-24.52-15.3-36.71l-.7-1.82c-9.8-25.42-15.43-53.78-17.22-86.71-.41-7.52-.47-15.24-.54-22.7-.08-8.86-.16-18.03-.79-27.25l-.3-4.29-3.09,2.99c-.4,.39-.8,.8-1.19,1.21-.78,.81-1.51,1.57-2.3,2.15-2.56,1.88-5.09,3.87-7.55,5.8-5.74,4.51-11.68,9.17-18.06,12.53-6.07,3.21-12.09,4.83-17.9,4.83-9.35,0-18.17-4.16-26.23-12.37-14.5-14.78-24.3-34.11-29.15-57.47-9.62-46.41-2.05-91.53,23.14-137.93,6.7-12.34,16.81-22.07,30.04-28.93C105.6,2.6,115.68,0,125.66,0c14.59,0,28.79,5.7,41.07,16.49,13.83,12.16,23.18,28.4,28.61,49.68l.23,.93c.21,.84,.42,1.67,.65,2.5,.13,.46,.31,.84,.51,1.25,.08,.18,.18,.37,.28,.6l1.05,2.4,2.04-1.65c1.22-.99,2.42-1.98,3.61-2.96,2.6-2.14,5.05-4.16,7.62-6.13,16.57-12.72,35.71-18.9,58.51-18.9,1.68,0,3.41,.03,5.14,.1,40.26,1.54,70.92,21.21,95.61,40.25,23.56,18.17,37.72,38.97,43.27,63.58,.4,1.75,1.01,3.23,1.81,4.38,10.62,15.11,15.46,32.96,20.14,50.22,.5,1.84,1,3.68,1.5,5.52,10.81,39.29,15.84,80.32,20.7,120.01l.14,1.11c1.86,15.21,6.21,28.37,13.28,40.24,3.28,5.5,5.91,12.21,8.29,21.12,2,7.5-1.76,15.92-9.15,20.47-2.6,1.6-5.26,2.42-7.88,2.42-3.61,0-7.26-1.46-11.16-4.46-3.15-2.42-6.2-5.12-9.16-7.74-1.21-1.07-2.43-2.15-3.65-3.2-.74-.64-1.45-1.32-2.03-1.87-.23-.22-.44-.42-.62-.59l-2.85-2.66-.5,3.86c-.66,5.04-1.29,10.09-1.92,15.15-1.42,11.33-2.88,23.05-4.62,34.52-2.37,15.59-8.43,30.61-18.03,44.65-3.62,5.29-8.8,9.88-13.86,12.29-13.95,6.63-25,9.59-35.86,9.59-3.75,0-7.51-.38-11.16-1.13-1.34-.28-2.65-.64-4.18-1.06-.76-.21-1.55-.43-2.39-.65l-2.21-.58-.28,2.27c-.05,.43-.12,.84-.18,1.24-.14,.92-.29,1.87-.29,2.85-.01,2.87,0,5.74,.03,8.61,.02,2.3,.03,4.6,.03,6.9v.39c0,12.5,.43,13.98,13.54,16.98,18.1,4.14,36.24,7.44,50.02,9.85,36.52,6.39,65.62,24.06,86.51,52.53,12.67,17.26,22.97,36.8,30.63,58.05,9.47,26.29,19.27,53.48,30.61,79.83,7.9,18.35,17.6,36.24,26.99,53.53l3.14,5.8c8.24,15.22,21.42,26.67,33.13,36.21l2.23,1.81,.93-2.72c1.99-5.81,3.96-11.59,5.93-17.36,4.69-13.76,9.54-27.98,14.38-41.88,3.53-10.15,7.31-20.06,10.2-27.56,2.65-6.86,5.39-13.81,8.05-20.54,3.24-8.19,6.58-16.66,9.78-25.04,12.27-32.14,31.33-58.93,56.66-79.63,13.28-10.85,30.01-17.52,52.67-20.97,1.23-.19,2.38-.28,3.44-.28,3.18,0,5.54,.85,7.01,2.53,1.88,2.16,2.49,5.78,1.81,10.76l-.46,3.4,3.19-1.28c.96-.38,1.89-.77,2.8-1.15,2-.83,3.88-1.62,5.79-2.25,.46-.15,.93-.32,1.41-.48,1.7-.59,3.47-1.21,4.95-1.21,.17,0,.34,0,.51,.03,.58,.06,1.16,.09,1.73,.09,6.15,0,10.57-3.47,14.08-6.87,9.68-9.36,21.74-12.29,32.25-13.93,8.78-1.36,17.41-2.06,25.66-2.06,12.43,0,24.52,1.57,35.92,4.67,4.89,1.33,9.88,3.53,14.41,6.37,4.53,2.83,5.75,6.6,4.08,12.62-.48,1.72-.71,3.65-.71,5.91,0,9.57,.03,19.14,.06,28.72,.02,5.4,.03,10.81,.04,16.21,.01,6.69,.01,13.38,0,20.45v14.14l3.22-2.48c.81-.62,1.49-1.16,2.11-1.65,1.09-.86,1.95-1.54,2.82-2.14,22.68-15.57,46.14-31.68,69.61-47.69,1.73-1.18,3.51-2.01,5.16-2.4,.02,0,.12-.03,.31-.03,.57,0,1.15,.17,1.43,.3,.19,.62,.14,1.81-.22,2.44-.62,1.1-2.04,2.11-3.35,2.95-8.5,5.46-17,10.9-25.51,16.35-16.99,10.88-34.57,22.13-51.8,33.28-2.11,1.37-3.5,4.31-3.73,6.39-.62,5.63-1.11,11.36-1.59,16.91-.33,3.92-.68,7.97-1.07,11.94-.19,1.94-.83,3.94-1.49,5.81-1.69,4.79-3.88,8.24-9.58,10.66-16.52,7-33.42,10.55-50.22,10.55-6.88,0-13.92-.59-20.92-1.76-.35-.06-.73-.09-1.12-.09-2.01,0-4.3,.79-5.84,2.01-27.83,22.08-58.98,40.13-89.11,57.58-15.58,9.02-31.69,18.36-47.18,28.15l-.85,.55c-1.84,1.18-3.73,2.4-5.49,2.66-6.83,1-8.96,5.81-11.01,10.46l-3.43,7.73c-7.48,16.89-15.22,34.36-23.74,51.05-3.24,6.34-7.76,12.27-12.14,18-1.97,2.58-4,5.24-5.91,7.92-.58,.82-1.22,1.61-2.04,2.61-.43,.53-.91,1.12-1.44,1.78l-2.08,2.62,3.29,.59c1.21,.22,2.38,.45,3.51,.67,2.85,.56,5.54,1.08,8.28,1.33,.12,.01,.23,.02,.35,.02,2.15,0,4.16-1.71,4.93-2.45,20.02-19.19,41.62-36.64,64.18-51.86l.28-.19c1.02-.68,2.17-1.45,2.93-2.66,3.53-5.62,8.8-8.35,16.12-8.35,.89,0,1.83,.04,2.78,.12,21.49,1.79,40.83,3.56,59.12,5.41,20.38,2.05,41.09,4.25,61.12,6.38,9.42,1,18.84,2,28.26,2.99,1.34,.14,2.69,.25,4.04,.36,2.68,.22,5.21,.42,7.73,.87,.62,.11,1.18,.17,1.71,.17,4.03,0,5.16-3.3,5.76-5.07,7.28-21.34,15.76-46.12,24.37-70.23,1.72-4.8,3.75-9.62,5.72-14.27,1.92-4.54,3.91-9.24,5.62-13.98l1.38-3.82c4.68-12.92,9.52-26.28,13.31-39.73,4.04-14.33,11.43-24.15,23.96-31.82,25.8-15.8,51.62-32.52,76.59-48.69,14.05-9.1,28.58-18.51,42.95-27.65,13.14-8.36,26.83-16.39,40.07-24.16l6.4-3.76c1.9-1.12,3.61-1.71,4.96-1.71,3.27,0,4.11,3.92,4.23,7.21,.51,13.68-2.95,27.04-6.29,39.97-.56,2.18-1.13,4.36-1.67,6.54-16.42,65.59-37.68,132.06-64.99,203.2-4.99,13-11,25.89-16.82,38.36l-2.49,5.35c-1.29,2.78-3.54,5.66-6.69,8.57-21.51,19.9-45.82,37.07-69.32,53.67-4.75,3.35-9.5,6.71-14.23,10.08-15.13,10.8-30.28,21.57-45.43,32.34-20.61,14.65-41.91,29.79-62.81,44.78-7.13,5.11-15.29,5.84-23.05,5.87-5.93,.02-11.87,.06-17.8,.11-7.89,.06-16.05,.12-24.07,.12-13.9,0-32.24-.15-50.85-1.36l-10.66-.69c-43.73-2.85-88.94-5.79-133.61-5.79-14.85,0-29.78-1.25-44.41-3.71-8.48-1.43-13.59-4.11-15.19-7.96-1.63-3.93,.17-9.6,5.34-16.84,3.47-4.87,7.79-9.34,11.96-13.67,1.93-2,3.93-4.07,5.83-6.17,.25-.28,.5-.56,.94-1.06l4.41-5.01-5.01,.45c-3.58,.33-7.04,.62-10.41,.91-7.06,.61-13.72,1.18-20.4,1.91-17.32,1.9-35.13,2.86-52.93,2.86-31.11,0-63.66-2.95-96.76-8.77-5.64-.99-11.41-1.8-16.99-2.59-11.77-1.66-23.93-3.37-35.28-6.83-63.89-19.46-116.96-54.38-157.75-103.8-3.44-4.17-6.86-8.49-10.16-12.68-1.56-1.98-3.13-3.97-4.71-5.95l-1.5-1.89-1.58,1.83c-.06,.08-.14,.14-.2,.2-.32,.3-.98,.94-.96,1.96,.82,36.33-2.81,73.02-6.32,108.51-.55,5.61-1.11,11.21-1.65,16.82-3.09,32.24-5.27,65.1-7.37,96.88-.64,9.75-1.29,19.5-1.96,29.25-.38,5.5-.28,11.03-.18,16.88,.05,2.81,.1,5.71,.1,8.74v3.29l2.92-1.52c1.79-.93,3.39-1.75,4.88-2.51,2.84-1.46,5.3-2.71,7.69-4.03,23.45-12.92,46.89-25.84,70.33-38.77,47.19-26.01,95.98-52.91,144-79.33,6.8-3.74,13.89-7.28,20.74-10.7,2.1-1.05,4.19-2.09,6.28-3.15,1.69-.85,3.6-1.81,5.4-2.05h0c.32,0,.98,.32,1.52,.59-.14,.51-.36,1.24-.52,1.44-2.87,1.85-6.04,3.6-9.1,5.29-1.22,.67-2.45,1.35-3.66,2.04-20.62,11.66-41.23,23.33-61.84,34.99-45.97,26.02-93.5,52.93-140.31,79.27-51.23,28.83-108.15,55.92-179.11,85.24-1.6,.66-3.16,1.4-4.68,2.12-2.26,1.07-4.39,2.08-6.62,2.85-.24,.08-.54,.12-.92,.12Zm620.26-225.87c-8.23,0-16.54,1.68-24.57,3.31-1.33,.27-2.67,.54-4,.8-1.15,.23-2.07,.97-2.66,1.52-2.38,2.19-4.78,4.37-7.18,6.55-6.38,5.79-12.97,11.78-19.18,17.98-2.6,2.59-4.57,5.61-6.86,9.1-1.09,1.67-2.23,3.39-3.52,5.21l-1.72,2.42,2.89,.68c2.13,.5,4.09,1.05,5.98,1.58,3.81,1.07,7.42,2.08,11.06,2.28,16.94,.96,34.18,1.56,50.85,2.14l7.53,.26c10.73,.38,21.63,.72,32.17,1.04,18.57,.58,37.77,1.17,56.64,2.01,28.64,1.27,57.75,2.74,85.9,4.15,15.91,.8,31.82,1.6,47.73,2.37,.11,0,.22,0,.34,0,.78,0,3.41-.13,4.45-1.86l.23-.38c2.29-3.79,4.65-7.71,6.42-11.88,1.37-3.22,2.39-6.59,3.39-9.85,.41-1.35,.82-2.69,1.25-4.03,3.05-9.42,12.7-39.19,12.7-39.19l-3.36-1.99c-3.83,4.07-7.65,8.14-11.45,12.21-11.96,12.75-24.32,25.94-36.59,38.72-1.97,2.05-4.95,3.62-6.92,3.65-8.43,.11-17.99,.24-27.4,.24-11.16,0-20.49-.18-29.34-.56-21.86-.94-44.06-2.71-65.54-4.42l-3.62-.29c-4.17-.33-8.68-1.54-12.71-3.4-2.53-1.17-3.97-2.42-4.27-3.71-.31-1.33,.47-3.18,2.32-5.49,2.04-2.55,4.38-4.94,6.86-7.46,1.17-1.2,2.38-2.43,3.61-3.73l2.66-2.82-6.47-.89c-1.62-.22-3.11-.43-4.59-.64-1.7-.24-3.4-.47-5.1-.69-11.79-1.58-23.98-3.21-34.61-9.15-6.99-3.92-14.62-5.82-23.32-5.82Zm529.21-382.56c-1.37,.61-2.81,1.18-4.21,1.73-3.14,1.24-6.39,2.52-9.3,4.42-55.59,36.42-109.6,71.99-160.5,105.73-3.07,2.03-5.83,5.58-7.19,9.26-2.87,7.72-5.61,15.62-8.26,23.26-3.61,10.41-7.34,21.17-11.44,31.56-16.55,41.98-33.59,87.16-46.04,133.13-3.26,12.04-6.37,24.33-9.37,36.22-6.76,26.76-13.74,54.44-22.99,80.97-.23,.65-.28,1.26-.35,2.03-.04,.38-.08,.84-.15,1.42l-.56,4.37,3.66-2.45c2.13-1.42,4.18-2.78,6.18-4.1,4.16-2.75,8.09-5.35,11.95-8.06,59.51-41.79,112.83-79.3,163.01-114.66,1.43-1.01,2.69-2.7,3.47-4.64,.65-1.61,1.17-3.26,1.67-4.86,.65-2.05,1.26-4,2.1-5.82,15.41-33.26,28.51-67.53,38.92-101.84,14.67-48.35,30.6-101.36,50.12-166.83,1.19-3.97,1.85-8.11,2.49-12.1,.29-1.81,.59-3.69,.94-5.5l.23-1.24-3.32-2.44-1.06,.47Zm-445.58,400.33c-1.14,0-2.78,.13-3.83,1.28-3.03,3.32-5.78,6.75-8.96,10.71-1.14,1.42-2.33,2.9-3.58,4.44l-2.39,2.94,12.73,1.08c6.22,.53,12.06,1.03,17.9,1.49l7.5,.6c21.13,1.7,42.97,3.46,64.54,3.46,11.47,0,21.94-.48,32.02-1.48,2.84-.28,5.83-1.64,7.62-3.46,4.49-4.58,8.93-9.36,13.22-13.98,8.07-8.7,16.42-17.7,25.4-25.6,14.35-12.61,22.19-27,24.66-45.27,.92-6.81,2.66-13.42,4.5-20.42,.82-3.12,1.67-6.34,2.43-9.58l.51-2.17-2.21-.28c-.88-.11-1.69-.23-2.46-.35-1.62-.25-3.16-.48-4.73-.49-1.03,0-2.06,0-3.09,0-3.47,0-6.93,.03-10.4,.05-3.46,.03-6.91,.05-10.37,.05-5.86,0-10.63-.08-15.04-.25-9.23-.37-19.01-.92-28.24-3.27-1.82-.46-3.39-.69-4.8-.69-3.48,0-6.29,1.35-9.39,4.51-5.1,5.19-10.3,10.09-15.82,15.28-2.28,2.14-4.57,4.3-6.87,6.5l-3.04,2.91,4.17,.53c18.22,2.3,22.75,4.4,32.35,15.02,1.98,2.19,3.91,4.54,5.77,6.81l1.26,1.53c3.05,3.69,3.62,6.34,1.98,9.12-1.7,2.89-4.35,3.49-6.28,3.49-.8,0-1.64-.1-2.48-.3-8.35-1.98-14.87-4-20.52-6.35-4.27-1.78-8.07-2.6-11.96-2.6-2.85,0-5.72,.45-8.78,1.37l-6.38,1.92,6.38,1.91c2.14,.64,4.18,1.26,6.16,1.85,4.11,1.24,7.95,2.4,11.79,3.51,9.08,2.64,20.79,6.66,30.71,14.44,3.25,2.54,5.03,4.69,4.54,8.14-.52,3.62-2.53,6.01-6.35,7.53-.5,.2-1.1,.33-1.74,.46-1.03,.22-2.2,.47-3.27,1.1-2.62,1.53-4.1,3.1-4.53,4.79-.87,3.44-2.59,5.31-5.11,5.56-1.96,.19-4.11,.28-6.75,.28-1.68,0-3.39-.04-5.13-.07-1.84-.04-3.73-.08-5.66-.08h-1.09l-.59,.92c-2.17,3.39-5.18,4.97-9.46,4.97-2.08,0-4.5-.37-7.4-1.14-2.57-.68-5.32-1.88-8.65-3.77-7.27-4.13-14.08-6.14-20.83-6.14-2.07,0-4.18,.19-6.27,.57-.85,.15-1.78,.23-2.83,.23-1.81,0-3.7-.22-5.54-.44-3.98-.47-8.03-1.02-11.95-1.56-3.54-.48-7.2-.98-10.81-1.42-.77-.09-1.68-.19-2.56-.19Zm-90.64-22.41c11.23,0,23.16,.93,34.23,7.66,4.73,2.88,10.49,4.88,16.22,5.63,25.12,3.31,47.49,5.9,68.37,7.92,2.67,.26,5.38,.45,8,.63,11.83,.83,23.01,1.61,33.13,8.24,1.99,1.3,4.44,1.38,6.81,1.45,.96,.03,1.86,.06,2.69,.17l1.49,.2,2.1-4.82-1.11-.96c-.68-.59-1.34-1.21-1.99-1.84-1.54-1.46-3.13-2.97-5.02-4.11-8.15-4.89-17.37-7.8-28.2-8.88-9.49-.95-20.54-2.59-30.57-7.52-.52-.26-1.02-.58-1.53-.94,.61,.05,1.22,.11,1.81,.2,3.38,.49,6.76,1.02,10.14,1.55,6.36,1,12.93,2.03,19.45,2.79,13.99,1.63,26.16,5.99,37.2,13.34,3.79,2.52,8.41,3.56,12.88,4.57,1.34,.3,2.73,.61,4.04,.96,.3,.08,.62,.12,.95,.12,1.09,0,2.11-.42,3.39-.96,.75-.31,1.6-.67,2.62-1.01l3.78-1.25-3.26-2.29c-1.49-1.05-2.81-2.08-4.08-3.07-2.62-2.04-4.88-3.81-7.57-4.88-10.09-4.04-20.23-7.59-32.34-11.69-4.63-1.57-9.38-3-13.97-4.38-3.69-1.11-7.51-2.26-11.23-3.47-1.02-.33-2.02-.85-3.12-1.47,.61-.2,1.19-.28,1.87-.28,1.5,0,3.54,.39,6.58,1.07,21.48,4.81,42.32,10.08,61.14,21.51,1.98,1.21,4.26,1.84,6.57,1.84,4.21,0,8.41-2.08,11.51-5.7l1.52-1.77-1.98-1.23c-1.61-1-3.21-2.1-4.76-3.17-3.52-2.42-7.15-4.92-11.17-6.49-10.77-4.21-21.93-7.5-31.42-10.17-1.95-.55-3.91-1.07-5.86-1.6-10.53-2.82-20.48-5.49-29.37-11.44-1.01-.67-1.97-1.4-2.96-2.16,2.49,.72,5,1.49,7.44,2.25,2.85,.88,5.8,1.8,8.74,2.62,1.29,.36,2.64,.55,3.91,.55,.78,0,1.52-.07,2.22-.21,2.77-.56,5.55-1.22,8.24-1.87,3.03-.73,6.16-1.48,9.25-2.06,2.17-.41,4.28-.62,6.26-.62,4.8,0,9.07,1.17,13.07,3.57,4,2.41,8.02,4.38,11.93,5.87,2.11,.8,4.33,1.08,6.47,1.35,.89,.11,1.78,.22,2.65,.37l1.73,.3,1.31-4.22-.57-.8c-5.46-7.71-14.24-18.26-27.42-20.77-5.61-1.07-11.67-1.59-18.52-1.59-4.52,0-9.38,.23-14.85,.7-9.5,.82-18.07,1.5-26.78,1.5s-17.15-.78-24.58-2.39c-5.27-1.14-11.25-2.44-17.27-2.44-3.76,0-7.17,.5-10.42,1.51-5.98,1.87-12.22,2.78-19.07,2.78-5.4,0-11.28-.58-17.99-1.76-17.68-3.13-32.16-4.59-45.54-4.59-3.41,0-6.8,.1-10.08,.29-3.01,.18-6.1,.26-9.18,.26-10.79,0-21.95-1.05-34.11-3.21-11.09-1.97-22.45-3.36-33.43-4.71l-2.29-.28c-9.88-1.21-19.94-1.99-29.68-2.75-14.15-1.1-28.78-2.24-42.99-4.71-16.12-2.81-32.55-5.34-48.44-7.8-5.23-.81-10.45-1.62-15.68-2.43-1.28-.2-2.65-.39-4-.39-.99,0-1.88,.1-2.7,.3-1.99,.48-3.96,.73-5.85,.73-5.62,0-10.84-2.13-15.53-6.33-5.24-4.7-11.19-10.02-15.48-16.24-16.11-23.3-33.32-48.46-50.04-74.57-13.9-21.71-27.82-43.92-41.29-65.41-12.71-20.27-25.85-41.24-38.95-61.75-6.37-9.98-13.98-19.94-22.6-29.6-13.72-15.37-29.67-25.91-47.4-31.34-.74-.23-1.57-.27-2.13-.27-1.49,0-4.11,.27-4.83,2.08-.78,1.96-1.69,3.99-2.57,5.94-2.54,5.64-5.16,11.48-5.58,17.56-2.44,34.9,.79,70.81,9.61,106.74,9.85,40.12,30.02,78.62,59.95,114.44,40.99,49.04,93.31,83.52,155.52,102.48,12.75,3.88,26.22,5.9,39.25,7.84,5.38,.8,10.94,1.63,16.36,2.58,33.29,5.83,64.31,8.67,94.83,8.67,10.56,0,21.15-.36,31.46-1.06,3.63-.25,7.35-.45,10.94-.64,10.56-.57,21.47-1.16,32.04-3.02,2.83-.5,5.65-1.03,8.47-1.56,9.8-1.85,19.93-3.77,30.09-4.02,3.25-.08,6.17-.15,9.12-.15Zm123.21-105.52c-3.06,0-6.02,1.68-7.15,2.41-2.69,1.72-5.24,3.68-7.71,5.57-1.08,.83-2.16,1.66-3.25,2.47l-59.96,44.45,1.22,5.39,1.82-.26c1.01-.14,2.04-.22,3.14-.3,2.52-.19,5.12-.39,7.51-1.4,9.06-3.84,17.2-5.71,24.9-5.71,3.33,0,6.66,.35,9.91,1.05,1.38,.3,2.79,.45,4.19,.45,4.19,0,8.32-1.26,13.4-4.1l4.3-2.41c5.15-2.89,10.47-5.87,15.76-8.66,3.54-1.87,7.15-2.82,10.72-2.82,2.49,0,5,.47,7.44,1.38,3.12,1.17,5.03,3.01,5.38,5.17,.35,2.17-.94,4.63-3.54,6.75-1.51,1.23-3.12,2.36-4.99,3.68-.94,.66-1.93,1.36-2.99,2.13l-5,3.62h6.17c.98,0,1.82-.01,2.58-.02,.59,0,1.11-.02,1.61-.02,.7,0,1.23,.02,1.73,.06,.48,.04,.96,.06,1.42,.06,6.29,0,10.24-3.5,13.29-6.93,8.79-9.9,18.15-18.97,26.15-26.53,1.98-1.87,5.33-3.29,7.96-3.38,.21,0,.42-.01,.63-.01,2.47,0,4.97,.45,7.62,.92,2.14,.38,4.35,.78,6.59,.93,17.25,1.15,34.84,2.21,51.85,3.24,6.17,.37,12.36,.75,18.56,1.13l1.61,.1,4.02-14.32-7.82-.74c-11.13-1.04-22.26-2.08-33.39-3.13-28.15-2.64-57.26-5.38-85.91-7.92-13.03-1.16-26.31-1.71-39.15-2.24h-.28c-.11-.02-.23-.02-.34-.02Zm19.66,42.47c-7.57,.84-13.54,4.31-19.3,7.67-2.11,1.23-4.28,2.5-6.46,3.58l-4.22,2.1,4.45,1.58c3.26,1.16,6.44,1.94,9.71,2.4,.4,.06,.82,.08,1.25,.08h0c1.23,0,2.92-.23,4.03-1.31,2.94-2.87,5.79-5.91,8.81-9.12,1.1-1.17,2.23-2.37,3.41-3.62l3.76-3.96-5.43,.6Zm-360.69-380.84c.49,.75,.9,1.4,1.28,2,.72,1.14,1.34,2.13,2.06,3.05,2.58,3.27,5.14,6.55,7.69,9.84,6.15,7.9,12.5,16.07,19.11,23.83,28.26,33.2,44.42,73.08,48.02,118.53,1.66,20.98-.73,42.18-3.04,62.68l-.25,2.21c-.28,2.47,.09,4.95,1.02,6.79,4.3,8.6,8.33,16.29,12.33,23.49,31.16,56.13,74.85,101.74,129.86,135.55,3.39,2.08,5.67,3.21,8.02,3.21,3.06,0,5.42-1.99,8.02-4.98,1.43-1.65,2.89-3.29,4.34-4.93,7.18-8.09,14.6-16.46,19.74-25.99,25.39-47,43.74-96.46,54.53-147.01,2.49-11.64,5.34-25.41,7.69-39.24q.86-5.04,3.85-5.04c.39,0,.8,0,1.25,.02,3.36,.11,6.78,.44,10.09,.75,1.5,.14,2.98,.28,4.46,.41l1.87,.16,1.68-11.53-1.49-.57c-8.07-3.1-12.01-5.74-12.78-8.57-.65-2.38,.84-5.75,4.69-10.58l1.18-1.48-1.41-1.26c-5.78-5.15-4.79-8.48-3.54-10.54,1.6-2.64,3.99-4.85,6.51-7.19,1.12-1.04,2.28-2.11,3.35-3.22l1.58-1.63-1.81-1.36c-4.11-3.1-6.33-6.39-6.6-9.8-.26-3.25,1.29-6.64,4.6-10.07,4.65-4.82,9.39-7.91,13.35-8.72,13.44-2.73,20.25-12.49,26.25-21.1,.76-1.09,1.36-2.23,2.06-3.55,.34-.64,.7-1.33,1.13-2.09l1.98-3.55-4.02,.6c-18.7,2.8-38.21,7.31-54.24,21.21-22.09,19.17-38.54,43.39-50.26,74.04-7.15,18.69-14.35,37.72-21.31,56.12-8.04,21.24-16.35,43.21-24.63,64.77-7.77,20.25-11.37,36.72-11.52,52.93-.16-2.38-.25-4.8-.34-7.16-.16-4.33-.33-8.8-.92-13.19l-.05-.37c-.66-4.91-1.48-11.03-5.03-13.96-16.58-13.72-29.63-29.37-39.89-47.83-16.92-30.44-30.01-63.23-42.67-94.95-2.4-6.01-4.8-12.02-7.23-18.02-1.97-4.88-3.91-9.89-5.78-14.73-4.16-10.76-8.46-21.89-13.51-32.49-13.57-28.43-31.96-49.23-56.21-63.6-14.09-8.35-29.65-12.25-43.01-14.97l-4.7-.96,2.63,4.01Zm171.54,362.92c-.77,0-1.45,.13-2.03,.4-9.56,4.31-19.24,8.81-28.6,13.17l-11.99,5.58,4.57,1.65c10.63,3.84,36.89,6.41,54.74,6.41h0c6.63,0,11.88-.33,15.59-.99l4.59-.81-10.33-7.63c-7.77-5.75-15.12-11.18-22.66-16.62-.99-.71-2.48-1.16-3.88-1.16Zm-99.12-122.53c-.24,1.11-.45,2.03-.62,2.82-.31,1.41-.54,2.42-.74,3.44-6.14,31.47-7.04,63.8-7.9,95.06-.11,3.9-.21,7.79-.33,11.69-.15,5.15,1.17,10.28,2.45,15.25,.32,1.26,.65,2.51,.95,3.76,.51,2.16,3.38,4.17,5.5,4.46,4.37,.6,8.82,1.09,13.13,1.56,6.58,.72,13.38,1.47,19.96,2.63,2.72,.48,5.37,.72,7.88,.72,7.89,0,15.21-2.4,22.38-7.33,6.08-4.18,12.74-7.54,19.78-11.1,3.17-1.6,6.44-3.25,9.73-5.01l2.69-1.44-2.39-1.89c-34.57-27.35-62.77-63.92-88.74-115.1l-2.54-5.01-1.2,5.49Zm-340.65-161.35l2.81,.95c2.42,.82,4.73,1.53,6.96,2.23,4.5,1.4,8.75,2.72,12.68,4.49,18.1,8.13,32.65,19.98,43.24,35.21,21.84,31.39,41.01,60.18,58.62,88.01,11.5,18.18,22.8,36.93,33.73,55.06,9.86,16.36,20.06,33.27,30.38,49.73,11.35,18.1,22.37,31.81,34.68,43.14,4.31,3.97,9.24,5.94,16.48,6.59,20.84,1.87,41.53,4.24,60.94,6.5,4.81,.56,9.55,1.44,14.56,2.38,2.33,.43,4.68,.87,7.09,1.29l2.96,.51-.67-2.92c-.25-1.09-.52-2.06-.75-2.92-.43-1.57-.77-2.81-.79-3.94-.02-1.48-.05-2.95-.07-4.43-.12-7.33-.25-14.92,.18-22.3,.22-3.75,.43-7.5,.64-11.25,1.03-18.36,2.09-37.34,4.08-55.89,1.39-12.91,3.29-26,5.13-38.67,1.9-13.08,3.87-26.61,5.28-40,5.66-53.86-8.21-102.33-41.21-144.08l-1.82-2.3c-9.56-12.08-19.44-24.56-27.08-37.95-6.53-11.45-13.95-16.46-24.8-16.76l-2.63-.07,.43,1.77c-.02,.12-.03,.23-.03,.35l.02,1.98h.59c1.58,6.36,3.22,12.78,4.8,18.99,4.15,16.27,8.43,33.1,11.98,49.73,2.36,11.05,4.52,22.73,2.81,33.38-4.26,26.55-28.31,40.45-49.87,40.45-8.73,0-16.81-2.17-23.38-6.28-8.48-5.3-15.54-11.14-20.99-17.34-5.96-6.78-11.58-14.1-17.01-21.18-4.83-6.29-9.83-12.8-15.08-18.96-12.09-14.18-25.33-28.74-39.34-43.25-5.92-6.13-13.46-9.24-22.42-9.24-2.11,0-4.3,.18-6.52,.53-1.43,.23-2.58,.33-3.64,.33-3.52,0-5.99-1.25-8.01-4.06l-1.48-2.06-53.44,62.27Zm613.89,87.39c-.38,0-.71,.06-1,.12-4.9,.98-9.8,1.97-15.06,3.03l-4.38,.88-.12,1.5c-2.75,34.15-12.36,70.01-30.22,112.84l-2.54,6.08,5.49-3.65c4.91-3.26,9.69-6.47,14.39-9.62,10.27-6.89,19.96-13.39,29.89-19.75,9.52-6.09,19.38-12.03,28.91-17.78,20.48-12.35,41.65-25.12,60.93-40.17,.84-.65,1.63-1.34,1.93-1.61l1.83-1.56-1.69-1.53c-1.32-1.18-2.61-2.36-3.9-3.52-3.65-3.3-7.09-6.42-10.72-9.46-1.1-.92-2.82-1.47-4.61-1.47-.44,0-.86,.04-1.26,.1-3.36,.58-6.66,.88-9.8,.88-5.48,0-10.78-.9-15.75-2.68-5.19-1.86-8.74-4.19-9.23-9.51l-.18-1.95-1.95,.14c-2.33,.16-4.67,.43-6.93,.69-3.64,.41-7.07,.81-10.5,.81-4.81,0-8.72-.8-12.3-2.52-.37-.18-.79-.27-1.24-.27Zm78.31-103.73c-.08,1.02-.16,1.97-.23,2.86-.16,1.87-.3,3.49-.35,5.17-.25,8.93-.48,17.87-.71,26.8-.27,10.37-.54,20.74-.83,31.1-.36,12.67-.77,25.08-1.22,36.89-.32,8.47,3.58,15.18,10.98,18.89,7.06,3.54,14,6.83,21.21,8.35,5.77,1.21,11.87,1.82,18.13,1.82,14.56,0,28.74-3.31,39.46-6.19,8.88-2.39,14.3-8.12,15.67-16.57,.17-1.02,.37-2.04,.57-3.07,.48-2.45,.97-4.98,1.02-7.56,.14-7.34,.19-14.8,.23-22.01,.06-9.63,.13-19.59,.4-29.37,.29-10.3,.86-20.44,1.47-31.18,.27-4.74,.54-9.53,.79-14.4l.19-3.81-3.24,2c-13.93,8.6-28.33,12.79-44.04,12.79-16.27,0-33.76-4.38-56.72-14.22l-2.57-1.1-.21,2.79Zm-27.99,102c-2.95,0-5.59,.82-8.38,1.69l-4.96,1.53,3.82,2.31c6.26,3.78,17.09,6.85,24.13,6.85,2.16,0,3.8-.29,5-.87l1.48-.72-2.61-9.78h-1.54c-1.47,0-2.92,.1-4.31,.2-1.3,.09-2.54,.18-3.71,.18-1.59,0-2.81-.17-3.84-.52-1.69-.58-3.36-.87-5.09-.87Zm17.36-88.27c-4.85,1.12-6.14,1.58-6.54,5.42l-.06,.55c-.31,2.76-.91,5.55-1.54,8.49-.29,1.34-.58,2.72-.86,4.15l-.25,1.28,1.08,.75c5.94,4.12,7.23,7.75-.23,19.55l-.73,1.15,.81,1.1c4.22,5.75,4.24,11.76,.05,18.36l-.82,1.29,1.03,1.13c5.06,5.53,5.01,10.93-.2,18.62l-1.84,2.72,10.37,1.23,2.25-86.39-2.52,.58Zm-64.29,78.31l-.86,4.58,1.9,.41c.7,.15,1.43,.36,2.19,.59,1.62,.47,3.3,.97,5.06,.97,.23,0,.46,0,.68-.03,11.56-.89,22.12-1.94,32.3-3.22,3.67-.46,6.93-2.5,8.55-3.68,4.19-3.05,5.54-7.13,3.62-10.92l-.71-1.41-52.74,12.71Zm50.02-34.05c-17.89,7.16-34.47,11.34-50.69,12.77-6.34,.56-8.92,3.94-11.05,9.2l-1,2.48,2.66,.26c1.36,.13,2.68,.34,3.96,.53,2.06,.32,4.01,.62,5.96,.62,.8,0,1.53-.05,2.24-.15,8.64-1.22,17.58-2.92,26.56-5.05,6.42-1.52,12.71-3.54,18.7-6,5.69-2.34,7.66-7.4,5.26-13.54l-.73-1.88-1.87,.75Zm-593.69-107.67c.38,0,.75,0,1.13,.02,11.95,.4,20.97,6.66,30.83,15.94,17.53,16.51,32.45,35.88,46.88,54.61,1.54,2,3.09,4.01,4.63,6.01,9,11.65,17.72,21.27,26.63,29.42,8.47,7.74,17.71,11.67,27.47,11.67,8.4,0,17.29-2.92,26.45-8.68,12.4-7.8,18.92-20.34,17.9-34.4-1.98-27.23-8.6-53.96-15-79.81-1.15-4.65-2.3-9.3-3.43-13.96-.15-.61-1-3.7-3.19-4.51-5.62-2.09-11.3-4.04-17.32-6.11-1.89-.65-3.82-1.31-5.79-1.99l-3.06-1.06,.42,3.21c.36,2.78,.68,5.58,.98,8.29,.69,6.17,1.35,11.99,2.56,17.86,1.74,8.44,3.74,16.95,5.69,25.19,1.55,6.58,3.16,13.39,4.61,20.11,.18,.84-.19,2.1-.58,3.34-1.27-.67-2.57-1.36-2.96-2.1-2.15-4.1-3.99-8.8-5.46-13.97-8.78-30.85-10.93-63.04-6.38-95.67,.26-1.88-.25-6.13-2.61-7.43-12.18-6.75-19.98-17.8-26-27.72-.76-1.26-1.09-2.93-1.41-4.72,1.79,.46,3.46,.93,4.6,1.82,3.42,2.69,6.7,5.75,9.87,8.7,1.84,1.72,3.75,3.5,5.68,5.2,7.92,6.98,17.63,14.12,29.67,14.12,.48,0,.96-.01,1.45-.03,8.14-.38,16.28-2.11,24.14-3.79,2-.43,4-.85,6-1.26,7.32-1.48,13.23-5.84,18.06-13.32,9.6-14.86,15.32-28.27,18-42.2,.6-3.1,1.26-6.25,1.9-9.29,1.35-6.43,2.76-13.07,3.64-19.71,.94-7.08,1.13-14.32,1.32-21.32,.04-1.5,.08-3.01,.13-4.51,.02-.54,.17-2.29,1.47-2.29,.3,0,.64,.08,1.02,.22,1.52,.6,3,1.9,4.44,3.16l.56,.49c2.08,1.81,4.16,3.71,6.18,5.55,3.81,3.48,7.75,7.07,11.92,10.29,2.64,2.04,5.3,3.07,7.91,3.07,3.61,0,7-1.94,10.08-5.75,3.6-4.46,4.54-9.82,2.64-15.09l-.55-1.54c-1.8-5.05-3.67-10.28-6.7-14.77-8.96-13.28-12.53-28.02-15.13-46.08l-.89-6.21c-4.23-29.43-8.6-59.85-14.33-89.53-2.69-13.94-6.9-27.78-10.97-41.17-1.65-5.44-3.37-11.07-4.95-16.61-.47-1.65-1.33-3.08-2.08-4.34-.29-.48-.56-.94-.79-1.38l-2.44-4.67-1.28,5.11c-.73,2.9-1.36,5.84-1.97,8.68-1.35,6.27-2.62,12.18-4.82,17.8-10.62,27.05-29.99,48.41-57.6,63.47-10.32,5.63-21.37,10.45-32.06,15.1-4.86,2.12-9.89,4.31-14.8,6.55l-2.53,1.16,1.9,2.03c.19,.2,.44,.45,.73,.72,.67,.65,1.5,1.45,2.12,2.35l.34,.49c2.53,3.69,5.14,7.51,7.27,11.45,.07,.16,.05,.55,0,.98-.51-.29-.98-.59-1.4-.92-1.81-1.43-3.6-3-5.34-4.51-3.61-3.15-7.34-6.4-11.57-8.83-2.83-1.63-5.64-2.45-8.36-2.45-5.3,0-9.96,3.07-13.45,8.89-4.56,7.58-6.26,16.27-5.05,25.82,1.12,8.87,5,17.36,11.53,25.23,2.53,3.05,5.24,6.01,7.86,8.87,2.47,2.7,5.03,5.48,7.4,8.31,.51,.61,.77,1.82,1.02,3v.04l-.15,.05c-1,.28-1.94,.54-2.68,.54-.21,0-.39-.02-.54-.07-1.98-.62-3.86-1.77-5.85-3-.84-.51-1.67-1.03-2.52-1.51-.69-.39-1.37-.81-2.1-1.25-.37-.22-.74-.46-1.14-.69l-2.56-1.54-.45,2.95c-4.38,28.63-10.01,37.81-33.46,54.6-1.78,1.28-2.66,4.04-2.72,6.08-.14,4.76-.19,9.6-.23,14.28-.07,6.76-.13,13.75-.48,20.6-1.92,37.81-14.72,73.29-38.04,105.47-3.36,4.63-6.84,9.1-10.53,13.83-1.72,2.2-3.46,4.44-5.22,6.73l-2.71,3.53,4.44-.31c1.61-.11,3.16-.26,4.66-.41,2.63-.25,5.12-.49,7.52-.49Zm594.31,84.72c-.99,0-2.15,.15-3.16,.42-4.07,1.07-8.16,2.29-12.12,3.47-8.07,2.41-16.42,4.9-24.74,6.12-7.35,1.08-11.89,5.06-16.27,8.92-2,1.76-3.89,3.42-6.03,4.8l-1.08,.7,.71,4.69,1.55,.15c1.06,.1,2.15,.29,3.31,.49,1.78,.31,3.63,.63,5.47,.63,.96,0,1.83-.09,2.66-.26,15.11-3.19,29.98-6.95,41.24-9.86,2.67-.69,5.54-2.29,8.54-4.75,2.36-1.93,4.27-4.48,5.25-7,.89-2.29-.18-5.69-1.71-7.3-.76-.81-1.98-1.22-3.62-1.22Zm-19.55-22.13c-.8,0-1.59,.07-2.33,.22-9.81,1.91-19.19,6.2-28.27,10.34l-2.3,1.05c-2.41,1.09-3.75,3.63-5.04,6.09-.52,.99-1.01,1.92-1.54,2.7l-1.44,2.13,12.71,4.6,9.57-2.45c10.54-2.69,21.45-5.48,32.22-8.31,.96-.25,4.14-1.25,5.03-3.51,.62-1.58,.57-4.46-.09-5.93-.41-.9-1.02-1.27-1.46-1.43-1.52-.55-3.07-1.21-4.71-1.92-4.08-1.76-8.29-3.57-12.34-3.57Zm7.61-8.28l1,4.59,1.35,.21c.81,.13,1.66,.33,2.56,.55,1.59,.39,3.24,.79,4.91,.79h0c.67,0,1.29-.06,1.89-.2,3.46-.77,6.7-2.09,10.13-3.49,1.43-.58,2.9-1.18,4.42-1.75l1.3-.49v-13.72l-27.56,13.5Zm96.05-28.1c-10.01,0-20.5,.95-31.19,2.82-7.04,1.23-14.7,3.22-23.04,9.38l-2.7,1.99,3.04,1.43c1.63,.76,3.12,1.51,4.54,2.22,3.09,1.54,5.76,2.88,8.67,3.87,5.35,1.84,10.93,3.17,16.32,4.45l.19,.05c8.96,2.14,17.1,3.18,24.89,3.18h0c12.09,0,22.99-2.5,33.32-7.65,3.16-1.57,5.76-3.2,7.94-4.97,.89-.72,3.58-2.9,3.25-5.7-.33-2.77-3.38-4.22-4.39-4.69-2.84-1.35-5.83-2.37-8.9-3.03-10.29-2.23-21.04-3.35-31.96-3.35Z"/><path class="c" d="M397.32,447.75c-.72,0-1.33-.07-1.87-.22-8.12-2.26-13.82-8.34-17.88-13.39-7.58-9.43-11.5-18.2-12.32-27.59,.03-.35,.05-.72,.06-1.1,.02-.67,.05-1.42,.24-1.79,.82-1.58,1.48-2.23,1.74-2.4,.41,.1,1.42,.72,2.19,1.58,.65,.72,1.11,1.92,1.55,3.09l.28,.72c6.09,15.54,14.88,27.52,26.84,36.62,1.08,.82,1.84,2.44,2.65,4.15h-.04c-1.22,.17-2.37,.33-3.45,.33Z"/><path class="c" d="M433.5,287.46c-.53,0-1.06-.02-1.56-.04l-.73-.03c-5.94-.19-11.98-.53-17.83-.85-2.35-.13-4.69-.26-7.04-.39l-2.1-.11v.56h-9.55c-3.13,0-6.26,0-9.4,0-.74,0-1.46,.07-2.16,.13-.64,.06-1.25,.11-1.81,.11s-.99-.06-1.33-.17c-1.44-.48-2.99-1.43-3.52-1.96,.22-1.2,1.4-2.91,2.57-3.68,1.93-1.26,4.74-1.68,6.7-1.89,5.11-.54,10.11-.82,14.84-.82,11.25,0,21.46,1.48,31.23,4.52,1.97,.61,4.4,2.36,4.9,3.17-.08,.77-.39,1.43-3.21,1.43Z"/><path class="c" d="M424.2,324.99c-3.45-.07-6.02-2.56-5.98-5.79,.05-4.23,4.76-9.24,8.69-9.24,1.55,.01,2.89,.56,3.9,1.6,1.18,1.21,1.81,2.97,1.77,4.97-.08,4.67-3.76,8.46-8.21,8.46h-.17Z"/><path class="c" d="M1011.82,881.86c-2.47,0-4.55-.84-6.17-2.49-2.68-2.72-4.04-7.48-3.95-13.76,1.02-11.38,6.62-22.28,15.76-30.7,3.3-3.03,6.55-4.57,9.68-4.57,1.51,0,3.04,.36,4.55,1.08,5.66,2.7,8.17,7.48,7.24,13.82-.2,1.4-.37,2.84-.53,4.23-.5,4.42-1.02,9-2.92,12.49-4.08,7.48-9.48,15.58-18.65,18.92-1.78,.65-3.46,.97-5.01,.97Zm15.42-44.13c-1.54,0-3.16,.85-5.4,2.85-7.59,6.76-12.36,15.8-14.18,26.84l-.02,.1v.11c-.2,3.41,.31,5.64,1.59,7,.59,.63,1.66,1.38,3.37,1.38h0c1.13,0,2.42-.32,3.95-.99,11.05-4.8,18.57-19.53,15.77-30.91-.51-2.07-1.57-6.38-5.1-6.38Z"/></g></svg>