<svg width="24" height="24" viewBox="0 0 24 24" fill="none" xmlns="http://www.w3.org/2000/svg">
<path d="M13.8 4.79999H9.6C7.61178 4.79999 6 6.41176 6 8.39999V15.6C6 17.5882 7.61178 19.2 9.6 19.2H14.4C16.3882 19.2 18 17.5882 18 15.6V8.99999M13.8 4.79999H14.2544C14.7318 4.79999 15.1896 4.98963 15.5272 5.3272L17.4728 7.27278C17.8104 7.61035 18 8.06818 18 8.54557V8.99999M13.8 4.79999V7.19999C13.8 8.1941 14.6059 8.99999 15.6 8.99999H18M8.4 10.8H12M8.4 13.2H15.3" stroke="#2F2F2F" stroke-width="1.5" stroke-linecap="round"/>
</svg>
