<svg width="24" height="23" viewBox="0 0 24 23" fill="none" xmlns="http://www.w3.org/2000/svg">
<path d="M23.2181 8.34667C23.1445 8.11917 23.0055 7.91832 22.8184 7.76913C22.6313 7.61995 22.4043 7.52904 22.1658 7.50773L15.5273 6.90604L12.9023 0.773446C12.7087 0.324027 12.2679 0.0332031 11.7782 0.0332031C11.2884 0.0332031 10.8476 0.324072 10.6541 0.774567L8.02903 6.90609L1.38955 7.50773C1.15129 7.52952 0.924666 7.62062 0.737789 7.76975C0.550911 7.91888 0.411995 8.11948 0.338263 8.34667C0.186827 8.81155 0.326672 9.32142 0.695715 9.64282L5.71361 14.0352L4.23394 20.5409C4.12567 21.0192 4.31166 21.5137 4.70931 21.8006C4.92301 21.9547 5.1731 22.0332 5.42525 22.0332C5.64268 22.0332 5.85831 21.9747 6.05193 21.8591L11.7782 18.4431L17.5023 21.8591C17.9212 22.1106 18.4492 22.0876 18.846 21.8006C19.0402 21.6602 19.1889 21.466 19.2734 21.242C19.3579 21.0181 19.3746 20.7742 19.3214 20.5409L17.8417 14.0352L22.8596 9.64372C23.0401 9.48636 23.1703 9.27954 23.234 9.04894C23.2978 8.81835 23.2922 8.57414 23.2181 8.34667Z" fill="#1DD3F5"/>
</svg>
