<svg width="176" height="32" viewBox="0 0 176 32" fill="none" xmlns="http://www.w3.org/2000/svg">
<rect width="32" height="32" fill="#1DD3F5"/>
<path d="M27.94 13.3135C27.8665 13.086 27.7275 12.8851 27.5403 12.7359C27.3532 12.5867 27.1262 12.4958 26.8877 12.4745L20.2492 11.8728L17.6242 5.74024C17.4306 5.29082 16.9898 5 16.5001 5C16.0103 5 15.5695 5.29087 15.376 5.74136L12.751 11.8729L6.11147 12.4745C5.87321 12.4963 5.64659 12.5874 5.45971 12.7365C5.27284 12.8857 5.13392 13.0863 5.06019 13.3135C4.90875 13.7784 5.0486 14.2882 5.41764 14.6096L10.4355 19.002L8.95586 25.5077C8.8476 25.986 9.03358 26.4805 9.43124 26.7674C9.64494 26.9215 9.89502 27 10.1472 27C10.3646 27 10.5802 26.9415 10.7739 26.8259L16.5001 23.4099L22.2243 26.8259C22.6431 27.0774 23.1712 27.0544 23.5679 26.7674C23.7622 26.627 23.9108 26.4328 23.9953 26.2088C24.0798 25.9849 24.0965 25.741 24.0433 25.5077L22.5637 19.002L27.5815 14.6105C27.762 14.4532 27.8922 14.2463 27.956 14.0157C28.0197 13.7851 28.0141 13.5409 27.94 13.3135Z" fill="white"/>
<rect x="36" width="32" height="32" fill="#1DD3F5"/>
<path d="M63.94 13.3135C63.8665 13.086 63.7275 12.8851 63.5403 12.7359C63.3532 12.5867 63.1262 12.4958 62.8877 12.4745L56.2492 11.8728L53.6242 5.74024C53.4306 5.29082 52.9898 5 52.5001 5C52.0103 5 51.5695 5.29087 51.376 5.74136L48.751 11.8729L42.1115 12.4745C41.8732 12.4963 41.6466 12.5874 41.4597 12.7365C41.2728 12.8857 41.1339 13.0863 41.0602 13.3135C40.9088 13.7784 41.0486 14.2882 41.4176 14.6096L46.4355 19.002L44.9559 25.5077C44.8476 25.986 45.0336 26.4805 45.4312 26.7674C45.6449 26.9215 45.895 27 46.1472 27C46.3646 27 46.5802 26.9415 46.7739 26.8259L52.5001 23.4099L58.2243 26.8259C58.6431 27.0774 59.1712 27.0544 59.5679 26.7674C59.7622 26.627 59.9108 26.4328 59.9953 26.2088C60.0798 25.9849 60.0965 25.741 60.0433 25.5077L58.5637 19.002L63.5815 14.6105C63.762 14.4532 63.8922 14.2463 63.956 14.0157C64.0197 13.7851 64.0141 13.5409 63.94 13.3135Z" fill="white"/>
<rect x="72" width="32" height="32" fill="#1DD3F5"/>
<path d="M99.94 13.3135C99.8665 13.086 99.7275 12.8851 99.5403 12.7359C99.3532 12.5867 99.1262 12.4958 98.8877 12.4745L92.2492 11.8728L89.6242 5.74024C89.4306 5.29082 88.9898 5 88.5001 5C88.0103 5 87.5695 5.29087 87.376 5.74136L84.751 11.8729L78.1115 12.4745C77.8732 12.4963 77.6466 12.5874 77.4597 12.7365C77.2728 12.8857 77.1339 13.0863 77.0602 13.3135C76.9088 13.7784 77.0486 14.2882 77.4176 14.6096L82.4355 19.002L80.9559 25.5077C80.8476 25.986 81.0336 26.4805 81.4312 26.7674C81.6449 26.9215 81.895 27 82.1472 27C82.3646 27 82.5802 26.9415 82.7739 26.8259L88.5001 23.4099L94.2243 26.8259C94.6431 27.0774 95.1712 27.0544 95.5679 26.7674C95.7622 26.627 95.9108 26.4328 95.9953 26.2088C96.0798 25.9849 96.0965 25.741 96.0433 25.5077L94.5637 19.002L99.5815 14.6105C99.762 14.4532 99.8922 14.2463 99.956 14.0157C100.02 13.7851 100.014 13.5409 99.94 13.3135Z" fill="white"/>
<rect x="108" width="32" height="32" fill="#1DD3F5"/>
<path d="M135.94 13.3135C135.866 13.086 135.727 12.8851 135.54 12.7359C135.353 12.5867 135.126 12.4958 134.888 12.4745L128.249 11.8728L125.624 5.74024C125.431 5.29082 124.99 5 124.5 5C124.01 5 123.57 5.29087 123.376 5.74136L120.751 11.8729L114.111 12.4745C113.873 12.4963 113.647 12.5874 113.46 12.7365C113.273 12.8857 113.134 13.0863 113.06 13.3135C112.909 13.7784 113.049 14.2882 113.418 14.6096L118.436 19.002L116.956 25.5077C116.848 25.986 117.034 26.4805 117.431 26.7674C117.645 26.9215 117.895 27 118.147 27C118.365 27 118.58 26.9415 118.774 26.8259L124.5 23.4099L130.224 26.8259C130.643 27.0774 131.171 27.0544 131.568 26.7674C131.762 26.627 131.911 26.4328 131.995 26.2088C132.08 25.9849 132.097 25.741 132.043 25.5077L130.564 19.002L135.582 14.6105C135.762 14.4532 135.892 14.2463 135.956 14.0157C136.02 13.7851 136.014 13.5409 135.94 13.3135Z" fill="white"/>
<rect x="144" width="32" height="32" fill="#1DD3F5"/>
<path d="M171.94 13.3135C171.866 13.086 171.727 12.8851 171.54 12.7359C171.353 12.5867 171.126 12.4958 170.888 12.4745L164.249 11.8728L161.624 5.74024C161.431 5.29082 160.99 5 160.5 5C160.01 5 159.57 5.29087 159.376 5.74136L156.751 11.8729L150.111 12.4745C149.873 12.4963 149.647 12.5874 149.46 12.7365C149.273 12.8857 149.134 13.0863 149.06 13.3135C148.909 13.7784 149.049 14.2882 149.418 14.6096L154.436 19.002L152.956 25.5077C152.848 25.986 153.034 26.4805 153.431 26.7674C153.645 26.9215 153.895 27 154.147 27C154.365 27 154.58 26.9415 154.774 26.8259L160.5 23.4099L166.224 26.8259C166.643 27.0774 167.171 27.0544 167.568 26.7674C167.762 26.627 167.911 26.4328 167.995 26.2088C168.08 25.9849 168.097 25.741 168.043 25.5077L166.564 19.002L171.582 14.6105C171.762 14.4532 171.892 14.2463 171.956 14.0157C172.02 13.7851 172.014 13.5409 171.94 13.3135Z" fill="white"/>
</svg>
