<svg class="MuiBox-root css-d5ow2" xmlns="http://www.w3.org/2000/svg"><circle cx="19.992" cy="19.992" r="19.992" fill="#174943"></circle><path d="M37.717 19.778V20.323c0 .261-.027.523-.05.772a18.578 18.578 0 0 1-.632 3.507l-.05.168c0 .029-.063.207-.023.084.039-.123-.019.055-.027.084-.023.068-.044.138-.068.206a18.791 18.791 0 0 1-2.533 5c-.031.045-.18.25-.123.173.058-.076-.034.042-.052.066l-.103.136c-.149.191-.301.382-.456.568a19.06 19.06 0 0 1-4.145 3.696c.18-.12-.097.06-.142.09l-.262.156a18.7 18.7 0 0 1-4.53 1.972l-.341.095-.17.044-.087.021-.215.05-.436.092c-.944.187-1.9.302-2.863.343-.507.02-1.013.02-1.518 0-.076 0-.34-.019-.128 0l-.362-.024a18.99 18.99 0 0 1-3.605-.631l-.338-.1c.262.074-.04 0-.129-.039-.223-.073-.443-.15-.66-.23a17.228 17.228 0 0 1-1.33-.545 21.72 21.72 0 0 1-1.238-.618c-.28-.152.187.11-.089-.053-.1-.057-.199-.115-.296-.175-.21-.126-.417-.262-.621-.388a58.639 58.639 0 0 1-1.12-.786c-.18-.138-.36-.282-.524-.426l-.263-.22c-.028-.027-.146-.126 0 0a19.319 19.319 0 0 1-1.987-2.059c-.073-.09-.147-.176-.218-.262l-.107-.134c-.113-.138.165.218.058.074-.145-.194-.291-.388-.433-.587a16.689 16.689 0 0 1-.75-1.152 21.853 21.853 0 0 1-.666-1.208c-.026-.05-.058-.105-.079-.154.11.277.06.125.032.06-.029-.066-.1-.21-.147-.314a20.27 20.27 0 0 1-.973-2.661 12.93 12.93 0 0 1-.091-.341c0-.042-.021-.084-.034-.128-.074-.291.055.262 0-.048a19.434 19.434 0 0 1-.478-3.559V19.659c0-.261.03-.523.05-.785a18.954 18.954 0 0 1 .648-3.549c.015-.063.11-.372.047-.167a16.831 16.831 0 0 1 .61-1.681c.361-.866.786-1.703 1.272-2.505.24-.39.49-.786.758-1.147.029-.045.226-.31.097-.136a3.65 3.65 0 0 1 .207-.262c.142-.181.284-.36.43-.524a18.66 18.66 0 0 1 1.967-2.027 19.712 19.712 0 0 1 2.176-1.669c-.176.118.092-.057.144-.089a16.75 16.75 0 0 1 .891-.524 18.646 18.646 0 0 1 3.938-1.619l.342-.094c.06-.015.375-.094.17-.044.23-.055.462-.105.692-.152a19.9 19.9 0 0 1 1.46-.23 19.375 19.375 0 0 1 2.969-.116h.183-.055l.362.026a18.305 18.305 0 0 1 2.181.301c.467.095.952.208 1.422.338l.296.087c-.286-.081.052.018.128.042.234.076.47.157.703.243.88.329 1.737.72 2.562 1.171.073.04.196.066-.06-.034.051.025.101.054.149.087a16.742 16.742 0 0 1 .878.542 19.153 19.153 0 0 1 1.657 1.223c.09.07.176.147.262.22.087.073 0 .07-.07-.06.026.05.12.104.16.141a19.214 19.214 0 0 1 1.927 2.006l.215.262c.023.032.078.12.107.134-.02 0-.202-.262-.057-.073.144.188.262.366.403.555a19.308 19.308 0 0 1 1.44 2.399c.144.283-.09-.196.044.094.05.105.097.21.144.315a19.276 19.276 0 0 1 .968 2.661c.029.097.055.196.081.296 0 .057.03.115.042.173.04.14-.047-.215 0 0 .108.479.202.958.262 1.443.144.944.216 1.897.215 2.852 0 .61.693 1.27 1.275 1.346.658.087.996-.317.993-.937a20.088 20.088 0 0 0-3.718-11.525 20.711 20.711 0 0 0-9.63-7.423A20.248 20.248 0 0 0 14.258.747a19.506 19.506 0 0 0-9.725 6.325 19.716 19.716 0 0 0-4.457 11.05A20.37 20.37 0 0 0 2.96 30.124a20.743 20.743 0 0 0 9.083 8.059 20.014 20.014 0 0 0 12.129 1.425 19.762 19.762 0 0 0 10.356-5.65 19.741 19.741 0 0 0 5.244-10.584c.154-1.053.229-2.116.223-3.18 0-.607-.692-1.27-1.271-1.346-.672-.081-1.005.312-1.007.93Z" fill="#174943"></path><path d="M9.275 22.122a43.542 43.542 0 0 0 7.451 8.944c.262.247 1.033.016 1.311-.083.375-.137.918-.344 1.08-.744a465.349 465.349 0 0 1 7.05-16.446c.7-1.54 1.4-3.076 2.098-4.607.213-.456-.91-.291-1.048-.262-.483.123-1.185.348-1.416.84a466.752 466.752 0 0 0-9.161 21.054l2.391-.826a42.46 42.46 0 0 1-7.278-8.735c-.415-.66-2.77.396-2.478.857v.008Z" fill="#F9F7EB"></path></svg>