<svg width="24" height="24" viewBox="0 0 24 24" fill="none" xmlns="http://www.w3.org/2000/svg">
<path d="M18.6 19.35C19.0142 19.35 19.35 19.0142 19.35 18.6C19.35 18.1858 19.0142 17.85 18.6 17.85V19.35ZM6.75 6C6.75 5.58579 6.41421 5.25 6 5.25C5.58579 5.25 5.25 5.58579 5.25 6H6.75ZM8.56736 18.0875L8.90785 17.4193H8.90785L8.56736 18.0875ZM6.51249 16.0326L5.84424 16.3731H5.84424L6.51249 16.0326ZM8.47501 12.6644C8.1792 12.9543 8.17444 13.4292 8.46438 13.725C8.75433 14.0208 9.22918 14.0256 9.52499 13.7356L8.47501 12.6644ZM12.3231 9.94286L12.8489 9.40805C12.5574 9.12144 12.09 9.12108 11.7981 9.40724L12.3231 9.94286ZM14.6769 12.2571L14.1511 12.7919C14.4429 13.0789 14.9109 13.0789 15.2027 12.7919L14.6769 12.2571ZM18.6 8.4H19.35C19.35 7.98579 19.0142 7.65 18.6 7.65V8.4ZM17.85 10.7143C17.85 11.1285 18.1858 11.4643 18.6 11.4643C19.0142 11.4643 19.35 11.1285 19.35 10.7143H17.85ZM16.2462 7.65C15.8319 7.65 15.4962 7.98579 15.4962 8.4C15.4962 8.81421 15.8319 9.15 16.2462 9.15V7.65ZM18.6 17.85H13.5233V19.35H18.6V17.85ZM6.75 11.0767V6H5.25V11.0767H6.75ZM13.5233 17.85C12.1942 17.85 11.2425 17.8494 10.496 17.7884C9.75835 17.7282 9.28741 17.6126 8.90785 17.4193L8.22687 18.7558C8.85313 19.0749 9.54344 19.2156 10.3739 19.2834C11.1956 19.3506 12.2189 19.35 13.5233 19.35V17.85ZM5.25 11.0767C5.25 12.3811 5.24942 13.4044 5.31655 14.2261C5.3844 15.0566 5.52514 15.7469 5.84424 16.3731L7.18075 15.6921C6.98735 15.3126 6.87184 14.8416 6.81157 14.104C6.75058 13.3575 6.75 12.4058 6.75 11.0767H5.25ZM8.90785 17.4193C8.16423 17.0404 7.55964 16.4358 7.18075 15.6921L5.84424 16.3731C6.36694 17.399 7.201 18.2331 8.22687 18.7558L8.90785 17.4193ZM9.52499 13.7356L12.8481 10.4785L11.7981 9.40724L8.47501 12.6644L9.52499 13.7356ZM11.7973 10.4777L14.1511 12.7919L15.2027 11.7223L12.8489 9.40805L11.7973 10.4777ZM15.2027 12.7919L19.1258 8.93481L18.0742 7.86519L14.1511 11.7223L15.2027 12.7919ZM17.85 8.4V10.7143H19.35V8.4H17.85ZM18.6 7.65H16.2462V9.15H18.6V7.65Z" fill="#2F2F2F"/>
</svg>
