<svg version="1.2" xmlns="http://www.w3.org/2000/svg" viewBox="0 0 1160 1243" width="1160" height="1243"><style>.a{fill:#fff}.b{fill:#2d3269}.c{fill:#174943}</style><path class="a" d="m928.2 618.5l-22.6-12.4-53.1 1.1-30.5 13.6-45.1 16.9 3.3-21.4-44 13.5-49.7 46.3-70 176.2-22.6-14.7-37.3-62.1-24.8-50.8-19.2-58.8-20.4-46.3-45.1-39.5-56.5-15.8-50.4-10.1-4.9-11.4 4.5-36.1 7.9 10.7 48.3-8.6 13.8-23.6 19.2-60.9 4.5-31.7 29.4 22.6 15.8-12.4-2.3-19.2-14.6-24.8-9.1-44.1-6.8-58.7-22.6-89.2-37.2-17-119.7 80.2-22.6 144.6-3.4 91.4-14.7 55.4-32.8 51.9-60.9 62.2-22.4 44.3 12.2 114.9 41.8 82.4-15.8 177.4-5.7 124.2 82.5-45.2 140-75.6 49.7-33.9 90.4 4.5 85.8-11.3-41.8 48.6 28.3 9 212.3 11.3 74.5-5.7 42.9-160.3-169.4-18.1-81.3 67.8-28.2-3.4 32.7-39.6 42.9-107.3 19.2-81.3 55.4-6.8 1.1 12.5 22.6 5.6h15.8l20.3 14.7 41.8 4.5 38.4-11.3 10.2-19.2 2.3-37.2zm-468.6 334.6l-2.2-103.7 13.1-47.1 17.4 34.8 57.2 72.5 34.8 25.4 29.8 29-150.1-10.9zm355.6-216l-16.9-2.9 5.1-16.3-2.8-11.3 3.9-11.9-6.2-9 9.6-14.2-10.7-6.2 6.7-19.7 13-1.2c0 0-1.7 92.7-1.7 92.7z"/><path class="b" d="m1107.2 809c-4.8 13.9-9.6 27.3-14.1 40.9-9 27-17.9 54.1-26.7 81.2-2.5 7.7-7.4 11.8-14.6 15.6-16.2 8.7-32.1 18.3-47.3 28.7-12.8 8.9-24.4 19.5-36.6 29.3-13.1 10.6-26.1 21.2-39.4 31.5-5.2 4-10.9 7.8-16.7 10.9-11.4 6.1-21.2 14.3-30.6 23.1-2.1 2-4.4 4.3-7.1 5.3-2.2 0.8-5.6 0.7-7.3-0.6-1.3-1-1-4.4-1.2-6.7 0-0.9 0.6-1.9 1.1-2.8 10.5-18.6 14.4-39.1 18.5-59.7 2-9.9 6.2-19.5 9.1-29.3 2.2-7.5 3.5-15.4 6.1-22.7 4.7-13.3 6.3-27.7 11.3-40.9 1.8-4.9 4.5-11 5.5-16.2 4.8-25.7 14.7-48.5 26.2-71.8 8.1-16.3 9.3-33.5 16.4-50.2 2.7-6.1 7.3-13.6 9.1-20.1 1.1-4.2 2.5-10 7.4-9.8 3.5 0.2 6.3-2 6.8-6.3 0.2-2 4.7 0.5 6.4-0.6 42.7-27.7 85.7-58.1 128.2-86.1 8.7-5.8 17.1-12.8 26.5-17.2 2.8-1.3 9-3 12-2.4 1 0.2-0.3 10.3-0.5 12.6-0.7 9.5-2 18.9-7.2 27.5-2.7 4.5-3.7 10.2-5.3 15.4-3.2 10.4-6.8 20.7-9.4 31.3-1 3.9 0.2 8.4 0.4 12.6 0.1 2.1 0.7 4.3 0.2 6.3-5.8 22.8-15.4 43.5-21.4 66.3-1.6 6.3-0.9 9.3-5.8 4.9zm-99.2 47.2c0 6.2-0.5 11.6 0.1 16.9 0.5 4.9 6.4 7 10.5 4.1q4.8-3.5 9.6-7.1c8.6-6.7 10.3-28.2 7.3-30-0.8-0.9-7-8.3-8.3-8.1-7.8 1.3-8.4 0.3-10.1 8.5-0.1 0.4-6.5 7.9-6.7 8.5-1-0.8-0.9 8.4-2.4 7.2z"/><path class="b" d="m363 861.6c0.6-16.6 3.8-32.7 12.6-47.3 13.4-22.5 34.3-29.8 59.4-24.5 8.9 1.9 17.3 5.1 23.2 12.3 2 2.4 3.5 5.8 3.6 8.8 0.7 17.9 1.2 35.9 1.2 53.8-0.1 10.2-1.1 20.5-1.8 30.7-0.1 0.9-0.2 2.2-0.8 2.8-5.7 5.7-11.1 11.7-17.2 16.9-27.9 23.3-61.3 7.9-73.6-20.3-4.6-10.5-6.3-21.6-6.6-33.2z"/><path class="b" d="m159.8 959.9c2.1-1.5 4-2.4 5.2-3.8 5.8-6.6 13.5-8.4 21.6-8.6 11.1-0.1 22.1 1.7 32.1 7.1 19.1 10.5 29 26.8 31.6 48.3 2.1 17.4-1.2 33-12.4 46.5-10 12.1-23 19.7-38.9 20.8-18.9 1.4-35-10.8-42.9-29.5-5.4-12.7-3.9-25.2-1.6-37.9 2.1-12 4.6-23.9 6.5-35.9 0.4-2.4-0.8-5.1-1.2-7z"/><path class="b" d="m240.1 685.2c25.3-0.9 40 13.2 51.5 32.3 6.2 10.2 10.1 21.6 10.7 33.4 1.2 21.1-0.8 41.9-14.6 59.6-1.3 1.6-1.1 4.4-1.7 6.6-0.4 1.4-0.5 3.3-1.5 3.8-1.2 0.7-3.4 0.7-4.5 0-2.1-1.3-3.8-3.2-5.4-5.1-25.9-30-44-68.6-66.6-101.1-2.6-3.7-12-12.2-8.7-14.5 13.7-9.8 24.1-15.9 40.8-14.9z"/><path class="b" d="m414.6 710.8c-9.4-1.9-18.9-4.1-25.6-12.7-1-1.2-2.6-2-3.8-3.1-3.8-3.5-8.4-8.5-4.8-12.2 1.2-1.2 2.9-2.6 3.4-4.4 0.9-3 2.2-3.3 2.9-6.3 0.4-1.5 3.6-4.3 3.3-5.9q-2.7-20.7-5.8-41.3c-0.5-3.4-1.2-6.8-2.4-10.1-4.3-12.4-0.3-23.1 6.4-33.3 3.7-5.7 7.6-6.9 13.5-5 0.8 0.3 1.9 1.4 1.8 2.1-0.3 4.4 3.6 5 5.8 7.3 6.6 6.5 14.1 12.6 18.8 20.4 10.1 16.7 18.9 34.3 28 51.7 2 3.9 2.9 8.4 3.8 12.8 1.3 5.9-0.8 11-4.1 16.2-9.5 15-23.5 21.7-41.2 23.8z"/><path class="b" d="m371.5 1049.6c-2.8 1.3-5.5 2.4-8.2 3.8-5.4 2.8-11 5.4-16.2 8.6-20.5 12.7-40.9 25.6-61.3 38.4-3.2 2.1-5.9 5-9.3 6.7-1.9 0.9-5.4 1.3-6.7 0.2-1.6-1.3-2.7-4.9-2-6.8 8.4-24.2 22.6-44 45.4-56.6 7.4-4 15.3-5.3 23.8-5.9 12.8-0.8 23.1 4.7 33.8 9.6q0.4 1 0.7 2z"/><path class="b" d="m2 1242.1c-0.6 0-1.3-0.1-2-0.2q0-0.2 0-0.4c0.1-1 0.2-2.6 0.6-3 2.5-2.4 6-4.1 8.7-5.3 8.4-3.8 17-7.6 25.3-11.2 12.6-5.6 25.8-11.4 38.6-17.3 15.3-7 30.7-14.5 45.7-21.7q9.3-4.5 18.7-9c0.9-0.4 1.7-0.9 2.5-1.4q0.5-0.3 1.1-0.6l1.3-0.7-0.3-1.5c-3.5-16.4-2.3-33.2-1-49.4q0.2-3 0.4-5.9c2.4-33.4 5.3-68.7 8.9-108 1.3-14.5 2.9-29.3 4.4-43.5 1.4-13.1 2.9-26.7 4.2-40 1.1-12.1 1.5-24.2 1.8-38.5 0.1-3.2-1.1-6.9-3.2-10.3-21.1-34.2-33.7-64.1-39.7-94.1-2.8-14.3-4.5-29.1-6.2-43.5q-0.7-6.1-1.4-12.3c-1.9-15-3.1-31.2 0.3-47.5 4-19.2 12.9-36.8 26.5-52.4 7.2-8.3 14.7-16.6 21.9-24.7 10.6-11.8 21.6-24 32-36.4 27.5-32.2 43.3-70.1 47.1-112.6 0.7-7.7 1.5-15.3 2.3-22.7q0.5-4.9 1-9.7l0.2-2.3-2.3 0.1c-2.7 0.2-5.4 0.5-7.9 0.7-4.2 0.4-8.2 0.8-12.2 0.8-1.3 0-2.6-0.1-3.8-0.2-14.7-1.1-26-9-32.7-23-5.7-11.9-10.6-24.5-15.3-36.7l-0.7-1.8c-9.8-25.4-15.4-53.8-17.2-86.7-0.4-7.5-0.5-15.3-0.6-22.7 0-8.9-0.1-18.1-0.7-27.3l-0.3-4.3-3.1 3q-0.6 0.6-1.2 1.2c-0.8 0.8-1.5 1.6-2.3 2.2-2.6 1.9-5.1 3.9-7.6 5.8-5.7 4.5-11.7 9.2-18 12.5-6.1 3.2-12.1 4.8-17.9 4.8-9.4 0-18.2-4.1-26.3-12.3-14.5-14.8-24.3-34.1-29.1-57.5-9.6-46.4-2.1-91.5 23.1-137.9 6.7-12.4 16.8-22.1 30.1-29 9.9-5.1 20-7.7 30-7.7 14.5 0 28.7 5.7 41 16.5 13.9 12.2 23.2 28.4 28.6 49.7l0.3 0.9q0.3 1.3 0.6 2.5c0.1 0.5 0.3 0.8 0.5 1.3q0.2 0.2 0.3 0.6l1.1 2.4 2-1.7q1.8-1.5 3.6-3c2.6-2.1 5.1-4.1 7.6-6.1 16.6-12.7 35.7-18.9 58.5-18.9q2.6 0 5.2 0.1c40.2 1.6 70.9 21.2 95.6 40.3 23.5 18.1 37.7 38.9 43.3 63.5q0.6 2.7 1.8 4.4c10.6 15.1 15.4 33 20.1 50.2q0.8 2.8 1.5 5.6c10.8 39.3 15.8 80.3 20.7 120l0.1 1.1c1.9 15.2 6.3 28.4 13.3 40.2 3.3 5.5 5.9 12.2 8.3 21.1 2 7.5-1.7 16-9.1 20.5-2.6 1.6-5.3 2.4-7.9 2.4-3.6 0-7.3-1.4-11.2-4.4-3.1-2.4-6.2-5.1-9.1-7.8q-1.8-1.6-3.7-3.2c-0.7-0.6-1.4-1.3-2-1.8q-0.4-0.4-0.6-0.6l-2.9-2.7-0.5 3.9q-1 7.5-1.9 15.1c-1.4 11.4-2.9 23.1-4.6 34.5-2.4 15.6-8.5 30.7-18.1 44.7-3.6 5.3-8.8 9.9-13.8 12.3-14 6.6-25 9.6-35.9 9.6-3.7 0-7.5-0.4-11.1-1.2-1.4-0.2-2.7-0.6-4.2-1q-1.1-0.3-2.4-0.7l-2.2-0.5-0.3 2.2q-0.1 0.7-0.2 1.3c-0.1 0.9-0.3 1.8-0.3 2.8q0 4.3 0.1 8.6 0 3.5 0 6.9v0.4c0 12.5 0.4 14 13.5 17 18.1 4.1 36.3 7.4 50.1 9.8 36.5 6.4 65.6 24.1 86.5 52.6 12.6 17.2 22.9 36.8 30.6 58 9.5 26.3 19.3 53.5 30.6 79.9 7.9 18.3 17.6 36.2 27 53.5l3.1 5.8c8.3 15.2 21.5 26.7 33.2 36.2l2.2 1.8 0.9-2.7q3-8.7 6-17.4c4.6-13.7 9.5-28 14.3-41.9 3.6-10.1 7.3-20 10.2-27.5 2.7-6.9 5.4-13.8 8.1-20.6 3.2-8.1 6.6-16.6 9.8-25 12.2-32.1 31.3-58.9 56.6-79.6 13.3-10.9 30-17.5 52.7-21q1.8-0.3 3.4-0.3c3.2 0 5.6 0.9 7 2.6 1.9 2.1 2.5 5.7 1.9 10.7l-0.5 3.4 3.2-1.3q1.4-0.5 2.8-1.1c2-0.8 3.9-1.6 5.8-2.3q0.7-0.2 1.4-0.4c1.7-0.6 3.5-1.3 4.9-1.3q0.3 0 0.5 0.1 0.9 0.1 1.8 0.1c6.1 0 10.5-3.5 14.1-6.9 9.6-9.4 21.7-12.3 32.2-13.9 8.8-1.4 17.4-2.1 25.7-2.1 12.4 0 24.5 1.6 35.9 4.7 4.9 1.3 9.9 3.5 14.4 6.3 4.5 2.9 5.7 6.6 4.1 12.7-0.5 1.7-0.7 3.6-0.7 5.9q0 14.3 0 28.7 0.1 8.1 0.1 16.2c0 6.7 0 13.4 0 20.5v14.1l3.2-2.5c0.8-0.6 1.5-1.1 2.1-1.6 1.1-0.9 1.9-1.6 2.8-2.2 22.7-15.5 46.2-31.7 69.6-47.7 1.8-1.1 3.5-2 5.2-2.4q0 0 0.3 0c0.6 0 1.1 0.2 1.4 0.3 0.2 0.6 0.2 1.8-0.2 2.4-0.6 1.1-2 2.2-3.3 3q-12.8 8.2-25.6 16.3c-16.9 10.9-34.5 22.2-51.8 33.3-2.1 1.4-3.5 4.3-3.7 6.4-0.6 5.6-1.1 11.4-1.6 16.9-0.3 3.9-0.7 8-1 12-0.2 1.9-0.9 3.9-1.5 5.8-1.7 4.8-3.9 8.2-9.6 10.6-16.5 7-33.4 10.6-50.2 10.6-6.9 0-14-0.6-21-1.8q-0.5-0.1-1.1-0.1c-2 0-4.3 0.8-5.8 2-27.8 22.1-59 40.2-89.1 57.6-15.6 9-31.7 18.4-47.2 28.2l-0.9 0.5c-1.8 1.2-3.7 2.4-5.4 2.7-6.9 1-9 5.8-11.1 10.4l-3.4 7.8c-7.5 16.9-15.2 34.3-23.7 51-3.3 6.4-7.8 12.3-12.2 18-1.9 2.6-4 5.3-5.9 7.9-0.6 0.9-1.2 1.7-2 2.7q-0.7 0.7-1.5 1.7l-2 2.7 3.3 0.5q1.8 0.4 3.5 0.7c2.8 0.6 5.5 1.1 8.2 1.3q0.2 0.1 0.4 0.1c2.1 0 4.2-1.7 4.9-2.5 20-19.2 41.6-36.6 64.2-51.8l0.3-0.2c1-0.7 2.2-1.5 2.9-2.7 3.5-5.6 8.8-8.4 16.1-8.4q1.4 0 2.8 0.2c21.5 1.8 40.8 3.5 59.1 5.4 20.4 2 41.1 4.2 61.2 6.4q14.1 1.5 28.2 2.9 2 0.3 4.1 0.4c2.6 0.2 5.2 0.4 7.7 0.9q0.9 0.1 1.7 0.1c4 0 5.2-3.3 5.8-5 7.2-21.4 15.7-46.1 24.3-70.3 1.7-4.8 3.8-9.6 5.7-14.2 2-4.6 4-9.3 5.7-14l1.3-3.8c4.7-12.9 9.6-26.3 13.4-39.8 4-14.3 11.4-24.1 23.9-31.8 25.8-15.8 51.6-32.5 76.6-48.7 14.1-9.1 28.6-18.5 43-27.6 13.1-8.4 26.8-16.4 40-24.2l6.4-3.7c1.9-1.2 3.6-1.7 5-1.7 3.3 0 4.1 3.9 4.2 7.2 0.5 13.6-2.9 27-6.3 39.9q-0.8 3.3-1.6 6.6c-16.5 65.6-37.7 132-65 203.2-5 13-11 25.9-16.9 38.3l-2.4 5.4c-1.3 2.8-3.6 5.6-6.7 8.6-21.5 19.9-45.9 37-69.4 53.6q-7.1 5.1-14.2 10.1-22.7 16.2-45.4 32.4c-20.6 14.6-41.9 29.7-62.8 44.7-7.2 5.1-15.3 5.9-23.1 5.9q-8.9 0-17.8 0.1c-7.9 0.1-16 0.1-24 0.1-13.9 0-32.3-0.1-50.9-1.3l-10.7-0.7c-43.7-2.9-88.9-5.8-133.6-5.8-14.8 0-29.7-1.3-44.4-3.7-8.5-1.5-13.6-4.1-15.2-8-1.6-3.9 0.2-9.6 5.4-16.8 3.4-4.9 7.8-9.4 11.9-13.7 2-2 4-4.1 5.9-6.2 0.2-0.2 0.5-0.5 0.9-1l4.4-5-5 0.4q-5.4 0.5-10.4 0.9c-7.1 0.6-13.7 1.2-20.4 1.9-17.3 1.9-35.1 2.9-52.9 2.9-31.1 0-63.7-3-96.8-8.8-5.6-1-11.4-1.8-17-2.6-11.8-1.6-23.9-3.3-35.3-6.8-63.9-19.5-116.9-54.4-157.7-103.8-3.5-4.2-6.9-8.5-10.2-12.7q-2.3-2.9-4.7-5.9l-1.5-1.9-1.6 1.8q-0.1 0.1-0.2 0.2c-0.3 0.3-0.9 1-0.9 2 0.8 36.3-2.8 73-6.3 108.5q-0.9 8.4-1.7 16.8c-3.1 32.2-5.3 65.1-7.4 96.9q-0.9 14.6-1.9 29.2c-0.4 5.5-0.3 11.1-0.2 16.9 0 2.8 0.1 5.7 0.1 8.8v3.2l2.9-1.5c1.8-0.9 3.4-1.7 4.9-2.5 2.8-1.4 5.3-2.7 7.7-4q35.2-19.4 70.3-38.8c47.2-26 96-52.9 144-79.3 6.8-3.7 13.9-7.3 20.8-10.7q3.1-1.6 6.2-3.2c1.7-0.8 3.6-1.8 5.4-2 0.4 0 1 0.3 1.6 0.6-0.2 0.5-0.4 1.2-0.6 1.4-2.8 1.9-6 3.6-9.1 5.3q-1.8 1-3.6 2-30.9 17.5-61.9 35c-45.9 26.1-93.5 53-140.3 79.3-51.2 28.8-108.1 55.9-179.1 85.2-1.6 0.7-3.1 1.4-4.7 2.2-2.2 1-4.4 2-6.6 2.8q-0.3 0.1-0.9 0.1zm620.3-225.8c-8.3 0-16.6 1.6-24.6 3.3q-2 0.4-4 0.8c-1.2 0.2-2.1 0.9-2.7 1.5q-3.5 3.3-7.2 6.5c-6.3 5.8-12.9 11.8-19.1 18-2.6 2.6-4.6 5.6-6.9 9.1-1.1 1.7-2.2 3.4-3.5 5.2l-1.7 2.5 2.9 0.6c2.1 0.5 4 1.1 5.9 1.6 3.8 1.1 7.5 2.1 11.1 2.3 16.9 1 34.2 1.6 50.8 2.1l7.6 0.3c10.7 0.4 21.6 0.7 32.1 1 18.6 0.6 37.8 1.2 56.7 2 28.6 1.3 57.7 2.8 85.9 4.2q23.9 1.2 47.7 2.4 0.2 0 0.4 0c0.7 0 3.4-0.2 4.4-1.9l0.2-0.4c2.3-3.8 4.7-7.7 6.5-11.9 1.3-3.2 2.3-6.5 3.3-9.8q0.7-2 1.3-4c3-9.5 12.7-39.2 12.7-39.2l-3.4-2q-5.7 6.1-11.4 12.2c-12 12.7-24.3 25.9-36.6 38.7-2 2.1-5 3.6-6.9 3.7-8.5 0.1-18 0.2-27.4 0.2-11.2 0-20.5-0.2-29.4-0.6-21.8-0.9-44-2.7-65.5-4.4l-3.6-0.3c-4.2-0.3-8.7-1.5-12.7-3.4-2.6-1.1-4-2.4-4.3-3.7-0.3-1.3 0.5-3.2 2.3-5.5 2.1-2.5 4.4-4.9 6.9-7.4q1.7-1.8 3.6-3.8l2.6-2.8-6.4-0.9c-1.6-0.2-3.1-0.4-4.6-0.6q-2.6-0.4-5.1-0.7c-11.8-1.6-24-3.2-34.6-9.1-7-4-14.6-5.9-23.3-5.9zm529.2-382.5c-1.4 0.6-2.8 1.2-4.2 1.7-3.2 1.2-6.4 2.5-9.3 4.4-55.6 36.4-109.6 72-160.5 105.8-3.1 2-5.9 5.5-7.2 9.2-2.9 7.7-5.6 15.6-8.3 23.3-3.6 10.4-7.3 21.1-11.4 31.5-16.6 42-33.6 87.2-46.1 133.2-3.2 12-6.3 24.3-9.3 36.2-6.8 26.7-13.8 54.4-23 81-0.3 0.6-0.3 1.2-0.4 2q0 0.5-0.1 1.4l-0.6 4.4 3.7-2.5q3.2-2.1 6.1-4.1c4.2-2.7 8.1-5.3 12-8 59.5-41.8 112.8-79.3 163-114.7 1.4-1 2.7-2.7 3.5-4.6 0.6-1.6 1.1-3.3 1.6-4.9 0.7-2 1.3-4 2.1-5.8 15.5-33.3 28.6-67.5 39-101.9 14.6-48.3 30.6-101.3 50.1-166.8 1.2-4 1.8-8.1 2.5-12.1 0.3-1.8 0.6-3.7 0.9-5.5l0.2-1.2-3.3-2.5-1 0.5zm-445.6 400.3c-1.2 0-2.8 0.2-3.8 1.3-3.1 3.3-5.8 6.8-9 10.7q-1.7 2.2-3.6 4.5l-2.4 2.9 12.8 1.1c6.2 0.5 12 1 17.9 1.5l7.5 0.6c21.1 1.7 42.9 3.4 64.5 3.4 11.5 0 21.9-0.4 32-1.4 2.9-0.3 5.8-1.7 7.6-3.5 4.5-4.6 9-9.4 13.3-14 8-8.7 16.4-17.7 25.4-25.6 14.3-12.6 22.1-27 24.6-45.3 0.9-6.8 2.7-13.4 4.5-20.4 0.8-3.1 1.7-6.3 2.4-9.6l0.6-2.1-2.3-0.3q-1.3-0.2-2.4-0.4c-1.6-0.2-3.2-0.4-4.7-0.4q-1.6 0-3.1 0-5.2 0-10.4 0-5.2 0.1-10.4 0.1c-5.9 0-10.6-0.1-15-0.3-9.3-0.4-19.1-0.9-28.3-3.3-1.8-0.4-3.4-0.7-4.8-0.7-3.5 0-6.3 1.4-9.4 4.6-5.1 5.1-10.3 10-15.8 15.2q-3.4 3.2-6.9 6.5l-3 2.9 4.2 0.6c18.2 2.3 22.7 4.4 32.3 15 2 2.2 3.9 4.5 5.8 6.8l1.2 1.5c3.1 3.7 3.7 6.4 2 9.2-1.7 2.8-4.3 3.4-6.3 3.4q-1.2 0-2.4-0.3c-8.4-1.9-14.9-4-20.6-6.3-4.2-1.8-8-2.6-11.9-2.6-2.9 0-5.7 0.4-8.8 1.4l-6.4 1.9 6.4 1.9q3.2 1 6.2 1.8c4.1 1.3 7.9 2.4 11.8 3.6 9 2.6 20.7 6.6 30.7 14.4 3.2 2.5 5 4.7 4.5 8.1-0.5 3.7-2.5 6-6.3 7.6-0.5 0.2-1.1 0.3-1.8 0.4-1 0.2-2.2 0.5-3.3 1.1-2.6 1.6-4.1 3.1-4.5 4.8-0.9 3.5-2.6 5.3-5.1 5.6-2 0.2-4.1 0.3-6.7 0.3q-2.6-0.1-5.2-0.1-2.7-0.1-5.6-0.1h-1.1l-0.6 0.9c-2.2 3.4-5.2 5-9.5 5-2.1 0-4.5-0.4-7.4-1.1-2.5-0.7-5.3-1.9-8.6-3.8-7.3-4.1-14.1-6.2-20.9-6.2q-3.1 0-6.2 0.6-1.3 0.2-2.9 0.2c-1.8 0-3.7-0.2-5.5-0.4-4-0.5-8-1-11.9-1.6-3.6-0.4-7.2-0.9-10.9-1.4-0.7-0.1-1.6-0.2-2.5-0.2zm-90.7-22.4c11.3 0 23.2 1 34.3 7.7 4.7 2.9 10.5 4.9 16.2 5.6 25.1 3.3 47.5 5.9 68.4 7.9 2.6 0.3 5.3 0.5 8 0.7 11.8 0.8 23 1.6 33.1 8.2 2 1.3 4.4 1.4 6.8 1.5 1 0 1.9 0 2.7 0.1l1.5 0.2 2.1-4.8-1.1-1q-1-0.8-2-1.8c-1.6-1.5-3.1-3-5-4.1-8.2-4.9-17.4-7.8-28.2-8.9-9.5-0.9-20.6-2.6-30.6-7.5q-0.8-0.4-1.5-0.9 0.9 0 1.8 0.2 5 0.7 10.1 1.5c6.4 1 12.9 2 19.5 2.8 14 1.6 26.1 6 37.2 13.3 3.8 2.6 8.4 3.6 12.8 4.6 1.4 0.3 2.8 0.6 4.1 1q0.4 0.1 0.9 0.1c1.1 0 2.1-0.4 3.4-1 0.8-0.3 1.6-0.6 2.6-1l3.8-1.2-3.2-2.3c-1.5-1.1-2.8-2.1-4.1-3.1-2.6-2-4.9-3.8-7.6-4.9-10.1-4-20.2-7.6-32.3-11.7-4.7-1.5-9.4-3-14-4.3-3.7-1.2-7.5-2.3-11.2-3.5-1-0.3-2-0.9-3.1-1.5 0.6-0.2 1.1-0.3 1.8-0.3 1.5 0 3.6 0.4 6.6 1.1 21.5 4.8 42.3 10.1 61.1 21.5 2 1.2 4.3 1.9 6.6 1.9 4.2 0 8.4-2.1 11.5-5.7l1.5-1.8-1.9-1.2c-1.6-1-3.2-2.1-4.8-3.2-3.5-2.4-7.1-4.9-11.2-6.5-10.7-4.2-21.9-7.5-31.4-10.2q-2.9-0.8-5.8-1.6c-10.6-2.8-20.5-5.5-29.4-11.4-1-0.7-2-1.4-3-2.2 2.5 0.7 5 1.5 7.5 2.3 2.8 0.9 5.8 1.8 8.7 2.6 1.3 0.4 2.6 0.5 3.9 0.5q1.2 0 2.2-0.2c2.8-0.5 5.6-1.2 8.3-1.8 3-0.8 6.1-1.5 9.2-2.1 2.2-0.4 4.3-0.6 6.3-0.6 4.8 0 9.1 1.2 13.1 3.6 4 2.4 8 4.3 11.9 5.8 2.1 0.8 4.3 1.1 6.5 1.4q1.3 0.1 2.6 0.3l1.7 0.3 1.3-4.2-0.5-0.8c-5.5-7.7-14.3-18.2-27.4-20.7-5.7-1.1-11.7-1.6-18.6-1.6-4.5 0-9.3 0.2-14.8 0.7-9.5 0.8-18.1 1.5-26.8 1.5-8.7 0-17.1-0.8-24.6-2.4-5.2-1.2-11.2-2.5-17.2-2.5-3.8 0-7.2 0.5-10.5 1.5-5.9 1.9-12.2 2.8-19 2.8-5.4 0-11.3-0.6-18-1.7-17.7-3.2-32.2-4.6-45.6-4.6-3.4 0-6.8 0.1-10 0.3-3.1 0.1-6.1 0.2-9.2 0.2-10.8 0-22-1-34.1-3.2-11.1-2-22.5-3.3-33.5-4.7l-2.3-0.3c-9.8-1.2-19.9-2-29.6-2.7-14.2-1.1-28.8-2.3-43-4.7-16.1-2.8-32.6-5.4-48.5-7.8q-7.8-1.2-15.6-2.5c-1.3-0.2-2.7-0.4-4-0.4q-1.5 0-2.7 0.3-3 0.8-5.9 0.8c-5.6 0-10.8-2.2-15.5-6.4-5.3-4.7-11.2-10-15.5-16.2-16.1-23.3-33.3-48.5-50-74.6-13.9-21.7-27.9-43.9-41.3-65.4-12.7-20.2-25.9-41.2-39-61.7-6.4-10-14-20-22.6-29.6-13.7-15.4-29.7-25.9-47.4-31.4-0.7-0.2-1.6-0.2-2.1-0.2-1.5 0-4.1 0.2-4.8 2-0.8 2-1.7 4-2.6 6-2.6 5.6-5.2 11.5-5.6 17.5-2.4 34.9 0.8 70.9 9.6 106.8 9.9 40.1 30 78.6 60 114.4 41 49.1 93.3 83.5 155.5 102.5 12.7 3.9 26.2 5.9 39.2 7.8 5.4 0.8 11 1.7 16.4 2.6 33.3 5.9 64.3 8.7 94.8 8.7 10.6 0 21.2-0.4 31.5-1.1 3.6-0.2 7.3-0.4 10.9-0.6 10.6-0.6 21.5-1.2 32.1-3q4.2-0.8 8.4-1.6c9.8-1.8 20-3.8 30.1-4 3.3-0.1 6.2-0.2 9.1-0.2zm123.3-105.5c-3.1 0-6.1 1.7-7.2 2.4-2.7 1.8-5.2 3.7-7.7 5.6q-1.6 1.3-3.3 2.5l-59.9 44.4 1.2 5.4 1.8-0.2c1-0.2 2.1-0.3 3.2-0.3 2.5-0.2 5.1-0.4 7.5-1.4 9-3.9 17.2-5.8 24.9-5.8 3.3 0 6.6 0.4 9.9 1.1q2.1 0.4 4.2 0.4c4.2 0 8.3-1.2 13.4-4.1l4.3-2.4c5.1-2.9 10.4-5.8 15.7-8.6 3.6-1.9 7.2-2.8 10.8-2.8 2.4 0 5 0.4 7.4 1.3 3.1 1.2 5 3 5.4 5.2 0.3 2.2-1 4.6-3.6 6.8-1.5 1.2-3.1 2.3-5 3.6q-1.4 1-2.9 2.2l-5 3.6h6.1q1.5 0 2.6 0c0.6 0 1.1-0.1 1.6-0.1 0.7 0 1.2 0.1 1.7 0.1q0.8 0.1 1.5 0.1c6.3 0 10.2-3.5 13.3-7 8.7-9.9 18.1-18.9 26.1-26.5 2-1.9 5.3-3.3 8-3.4q0.3 0 0.6 0c2.5 0 5 0.5 7.6 0.9 2.2 0.4 4.4 0.8 6.6 1 17.3 1.1 34.8 2.2 51.9 3.2q9.2 0.6 18.5 1.1l1.6 0.1 4-14.3-7.8-0.7q-16.7-1.6-33.4-3.2c-28.1-2.6-57.2-5.3-85.9-7.9-13-1.1-26.3-1.7-39.1-2.2h-0.3q-0.2 0-0.3 0zm19.6 42.4c-7.6 0.9-13.5 4.3-19.3 7.7-2.1 1.2-4.3 2.5-6.4 3.6l-4.3 2.1 4.5 1.6c3.2 1.1 6.4 1.9 9.7 2.4q0.6 0.1 1.2 0c1.3 0 3-0.2 4.1-1.3 2.9-2.8 5.8-5.9 8.8-9.1q1.6-1.7 3.4-3.6l3.8-4c0 0-5.5 0.6-5.5 0.6zm-360.7-380.8c0.5 0.7 0.9 1.4 1.3 2 0.7 1.1 1.3 2.1 2.1 3q3.8 5 7.7 9.9c6.1 7.9 12.5 16.1 19.1 23.8 28.2 33.2 44.4 73.1 48 118.5 1.6 21-0.7 42.2-3.1 62.7l-0.2 2.2c-0.3 2.5 0.1 5 1 6.8 4.3 8.6 8.3 16.3 12.3 23.5 31.2 56.1 74.9 101.8 129.9 135.6 3.4 2 5.7 3.2 8 3.2 3.1 0 5.4-2 8-5q2.2-2.5 4.4-4.9c7.2-8.1 14.6-16.5 19.7-26 25.4-47 43.8-96.5 54.6-147 2.4-11.7 5.3-25.4 7.6-39.3q0.9-5 3.9-5 0.6 0 1.2 0c3.4 0.1 6.8 0.4 10.1 0.8q2.3 0.2 4.5 0.4l1.9 0.1 1.6-11.5-1.4-0.6c-8.1-3.1-12.1-5.7-12.8-8.5-0.7-2.4 0.8-5.8 4.7-10.6l1.1-1.5-1.4-1.3c-5.7-5.1-4.8-8.4-3.5-10.5 1.6-2.6 4-4.9 6.5-7.2 1.1-1 2.3-2.1 3.4-3.2l1.5-1.6-1.8-1.4c-4.1-3.1-6.3-6.4-6.6-9.8-0.2-3.3 1.3-6.6 4.6-10.1 4.7-4.8 9.4-7.9 13.4-8.7 13.4-2.7 20.2-12.5 26.2-21.1 0.8-1.1 1.4-2.2 2.1-3.5q0.5-1 1.1-2.1l2-3.6-4 0.6c-18.7 2.8-38.2 7.3-54.3 21.2-22.1 19.2-38.5 43.4-50.2 74.1-7.2 18.7-14.4 37.7-21.3 56.1-8.1 21.2-16.4 43.2-24.7 64.8-7.7 20.2-11.3 36.7-11.5 52.9-0.1-2.4-0.2-4.8-0.3-7.2-0.2-4.3-0.4-8.8-0.9-13.2l-0.1-0.3c-0.7-4.9-1.5-11.1-5-14-16.6-13.7-29.7-29.4-39.9-47.8-16.9-30.5-30-63.3-42.7-95q-3.6-9-7.2-18c-2-4.9-3.9-9.9-5.8-14.7-4.2-10.8-8.5-21.9-13.5-32.5-13.6-28.4-32-49.2-56.2-63.6-14.1-8.4-29.7-12.3-43-15l-4.7-0.9 2.6 4zm171.5 362.9q-1.1 0-2 0.4c-9.5 4.3-19.2 8.8-28.6 13.2l-12 5.5 4.6 1.7c10.6 3.8 36.9 6.4 54.7 6.4 6.7 0 11.9-0.3 15.6-1l4.6-0.8-10.3-7.6c-7.8-5.8-15.1-11.2-22.7-16.7-1-0.7-2.4-1.1-3.9-1.1zm-99.1-122.5q-0.3 1.6-0.6 2.8c-0.3 1.4-0.5 2.4-0.7 3.4-6.2 31.5-7.1 63.8-7.9 95.1q-0.2 5.8-0.4 11.7c-0.1 5.1 1.2 10.2 2.5 15.2q0.5 1.9 0.9 3.8c0.5 2.1 3.4 4.1 5.5 4.4 4.4 0.6 8.9 1.1 13.2 1.6 6.5 0.7 13.3 1.5 19.9 2.6 2.7 0.5 5.4 0.7 7.9 0.7 7.9 0 15.2-2.4 22.4-7.3 6.1-4.2 12.7-7.5 19.8-11.1 3.1-1.6 6.4-3.2 9.7-5l2.7-1.4-2.4-1.9c-34.6-27.4-62.8-63.9-88.7-115.1l-2.6-5c0 0-1.2 5.5-1.2 5.5zm-340.6-161.4l2.8 1c2.4 0.8 4.7 1.5 6.9 2.2 4.5 1.4 8.8 2.7 12.7 4.5 18.1 8.1 32.7 20 43.3 35.2 21.8 31.4 41 60.2 58.6 88 11.5 18.2 22.8 36.9 33.7 55.1 9.9 16.3 20.1 33.2 30.4 49.7 11.4 18.1 22.4 31.8 34.7 43.1 4.3 4 9.2 6 16.5 6.6 20.8 1.9 41.5 4.3 60.9 6.5 4.8 0.6 9.6 1.5 14.6 2.4q3.4 0.7 7 1.3l3 0.5-0.7-2.9q-0.3-1.7-0.7-2.9c-0.4-1.6-0.8-2.9-0.8-4q0-2.2-0.1-4.4c-0.1-7.3-0.2-14.9 0.2-22.3q0.3-5.6 0.6-11.3c1.1-18.3 2.1-37.3 4.1-55.9 1.4-12.9 3.3-26 5.2-38.6 1.9-13.1 3.8-26.6 5.2-40 5.7-53.9-8.2-102.4-41.2-144.1l-1.8-2.3c-9.6-12.1-19.4-24.6-27.1-38-6.5-11.4-13.9-16.4-24.8-16.7l-2.6-0.1 0.4 1.8q0 0.2 0 0.3v2h0.6c1.6 6.4 3.2 12.8 4.8 19 4.2 16.3 8.4 33.1 12 49.7 2.3 11.1 4.5 22.8 2.8 33.4-4.3 26.6-28.3 40.5-49.9 40.5-8.7 0-16.8-2.2-23.4-6.3-8.4-5.3-15.5-11.2-20.9-17.4-6-6.7-11.6-14.1-17.1-21.1-4.8-6.3-9.8-12.8-15-19-12.1-14.2-25.4-28.7-39.4-43.2-5.9-6.2-13.4-9.3-22.4-9.3q-3.2 0-6.5 0.5c-1.4 0.3-2.6 0.4-3.7 0.4-3.5 0-5.9-1.3-8-4.1l-1.4-2-53.5 62.2zm613.9 87.4q-0.6 0-1 0.1c-4.9 1-9.8 2-15 3.1l-4.4 0.8-0.1 1.5c-2.8 34.2-12.4 70.1-30.3 112.9l-2.5 6.1 5.5-3.7q7.3-4.9 14.4-9.6c10.2-6.9 19.9-13.4 29.9-19.8 9.5-6 19.3-12 28.9-17.7 20.5-12.4 41.6-25.2 60.9-40.2 0.8-0.7 1.6-1.3 1.9-1.6l1.9-1.6-1.7-1.5q-2-1.8-3.9-3.5c-3.7-3.3-7.1-6.4-10.8-9.5-1.1-0.9-2.8-1.5-4.6-1.5q-0.6 0.1-1.2 0.1c-3.4 0.6-6.7 0.9-9.8 0.9-5.5 0-10.8-0.9-15.8-2.7-5.2-1.8-8.7-4.1-9.2-9.5l-0.2-1.9-1.9 0.1c-2.4 0.2-4.7 0.5-7 0.7-3.6 0.4-7 0.8-10.5 0.8-4.8 0-8.7-0.8-12.3-2.5q-0.5-0.3-1.2-0.3zm78.3-103.7q-0.1 1.5-0.2 2.9c-0.2 1.8-0.3 3.5-0.4 5.1q-0.3 13.4-0.7 26.8-0.4 15.6-0.8 31.1c-0.4 12.7-0.8 25.1-1.2 36.9-0.4 8.5 3.5 15.2 10.9 18.9 7.1 3.6 14 6.8 21.3 8.4 5.7 1.2 11.8 1.8 18.1 1.8 14.5 0 28.7-3.3 39.4-6.2 8.9-2.4 14.3-8.1 15.7-16.6q0.3-1.5 0.6-3c0.5-2.5 1-5 1-7.6 0.1-7.3 0.2-14.8 0.2-22 0.1-9.6 0.2-19.6 0.4-29.4 0.3-10.3 0.9-20.4 1.5-31.2q0.4-7.1 0.8-14.4l0.2-3.8-3.3 2c-13.9 8.6-28.3 12.8-44 12.8-16.3 0-33.8-4.4-56.7-14.2l-2.6-1.1-0.2 2.8zm-28 102c-2.9 0-5.6 0.8-8.4 1.7l-4.9 1.5 3.8 2.3c6.3 3.8 17.1 6.9 24.1 6.9 2.2 0 3.8-0.3 5-0.9l1.5-0.7-2.6-9.8h-1.5c-1.5 0-3 0.1-4.4 0.2-1.2 0.1-2.5 0.2-3.7 0.2-1.6 0-2.8-0.2-3.8-0.5-1.7-0.6-3.4-0.9-5.1-0.9zm17.4-88.3c-4.9 1.1-6.2 1.6-6.6 5.4v0.6c-0.3 2.7-0.9 5.5-1.6 8.5q-0.4 2-0.8 4.1l-0.3 1.3 1.1 0.8c6 4.1 7.2 7.7-0.2 19.5l-0.8 1.2 0.9 1.1c4.2 5.7 4.2 11.7 0 18.3l-0.8 1.3 1 1.1c5.1 5.6 5 11-0.2 18.7l-1.8 2.7 10.3 1.2 2.3-86.4-2.5 0.6zm-64.3 78.3l-0.9 4.6 1.9 0.4q1.1 0.2 2.2 0.6c1.6 0.5 3.3 1 5.1 1q0.3 0 0.7-0.1c11.5-0.9 22.1-1.9 32.3-3.2 3.6-0.5 6.9-2.5 8.5-3.7 4.2-3 5.5-7.1 3.6-10.9l-0.7-1.4-52.7 12.7zm50-34c-17.9 7.1-34.5 11.3-50.7 12.7-6.3 0.6-8.9 4-11 9.2l-1 2.5 2.6 0.3c1.4 0.1 2.7 0.3 4 0.5 2 0.3 4 0.6 5.9 0.6q1.2 0 2.3-0.1c8.6-1.3 17.6-3 26.5-5.1 6.5-1.5 12.7-3.5 18.7-6 5.7-2.3 7.7-7.4 5.3-13.5l-0.7-1.9c0 0-1.9 0.7-1.9 0.8zm-593.7-107.7q0.6 0 1.1 0c12 0.4 21 6.7 30.9 15.9 17.5 16.6 32.4 35.9 46.8 54.7q2.4 3 4.7 6c9 11.6 17.7 21.2 26.6 29.4 8.5 7.7 17.7 11.7 27.5 11.7 8.4 0 17.3-3 26.4-8.7 12.4-7.8 18.9-20.4 17.9-34.4-2-27.3-8.6-54-15-79.8q-1.7-7-3.4-14c-0.2-0.6-1-3.7-3.2-4.5-5.6-2.1-11.3-4-17.3-6.1q-2.8-1-5.8-2l-3.1-1.1 0.5 3.2c0.3 2.8 0.6 5.6 0.9 8.3 0.7 6.2 1.4 12 2.6 17.9 1.7 8.4 3.7 16.9 5.7 25.2 1.5 6.6 3.1 13.4 4.6 20.1 0.2 0.8-0.2 2.1-0.6 3.3-1.3-0.6-2.6-1.3-2.9-2.1-2.2-4.1-4-8.8-5.5-13.9-8.8-30.9-10.9-63.1-6.4-95.7 0.3-1.9-0.2-6.1-2.6-7.4-12.2-6.8-20-17.8-26-27.7-0.8-1.3-1.1-3-1.4-4.8 1.8 0.5 3.5 1 4.6 1.9 3.4 2.6 6.7 5.7 9.9 8.7 1.8 1.7 3.7 3.5 5.6 5.2 8 6.9 17.7 14.1 29.7 14.1q0.7 0 1.5-0.1c8.1-0.3 16.2-2.1 24.1-3.7q3-0.7 6-1.3c7.3-1.5 13.2-5.8 18.1-13.3 9.6-14.9 15.3-28.3 18-42.2 0.6-3.1 1.2-6.3 1.9-9.3 1.3-6.4 2.7-13.1 3.6-19.7 0.9-7.1 1.1-14.3 1.3-21.3q0.1-2.3 0.2-4.6c0-0.5 0.1-2.2 1.4-2.2q0.5 0 1 0.2c1.6 0.6 3 1.9 4.5 3.1l0.5 0.5c2.1 1.8 4.2 3.7 6.2 5.6 3.8 3.5 7.8 7 11.9 10.3 2.7 2 5.3 3 8 3 3.6 0 7-1.9 10-5.7 3.6-4.5 4.6-9.8 2.7-15.1l-0.6-1.5c-1.8-5.1-3.6-10.3-6.7-14.8-8.9-13.3-12.5-28-15.1-46.1l-0.9-6.2c-4.2-29.4-8.6-59.9-14.3-89.5-2.7-14-6.9-27.8-11-41.2-1.6-5.4-3.4-11.1-4.9-16.6-0.5-1.7-1.4-3.1-2.1-4.4q-0.5-0.7-0.8-1.3l-2.5-4.7-1.2 5.1c-0.8 2.9-1.4 5.8-2 8.7-1.4 6.3-2.6 12.2-4.8 17.8-10.6 27-30 48.4-57.6 63.5-10.3 5.6-21.4 10.4-32.1 15.1-4.8 2.1-9.9 4.3-14.8 6.5l-2.5 1.2 1.9 2q0.3 0.3 0.7 0.7c0.7 0.7 1.5 1.5 2.1 2.4l0.4 0.5c2.5 3.6 5.1 7.5 7.2 11.4 0.1 0.2 0.1 0.6 0 1q-0.7-0.4-1.4-0.9c-1.8-1.5-3.6-3-5.3-4.5-3.6-3.2-7.3-6.4-11.6-8.9-2.8-1.6-5.6-2.4-8.3-2.4-5.3 0-10 3-13.5 8.9-4.5 7.5-6.2 16.2-5 25.8 1.1 8.9 5 17.3 11.5 25.2 2.5 3.1 5.2 6 7.9 8.9 2.4 2.7 5 5.5 7.4 8.3 0.5 0.6 0.7 1.8 1 3l-0.2 0.1c-1 0.3-1.9 0.5-2.6 0.5q-0.4 0-0.6 0c-2-0.7-3.8-1.8-5.8-3q-1.3-0.8-2.6-1.6-1-0.5-2.1-1.2-0.5-0.3-1.1-0.7l-2.6-1.5-0.4 2.9c-4.4 28.6-10 37.8-33.5 54.6-1.7 1.3-2.6 4.1-2.7 6.1-0.1 4.8-0.2 9.6-0.2 14.3-0.1 6.7-0.1 13.7-0.5 20.6-1.9 37.8-14.7 73.3-38 105.4-3.4 4.7-6.9 9.1-10.6 13.9q-2.5 3.3-5.2 6.7l-2.7 3.5 4.4-0.3q2.5-0.2 4.7-0.4c2.6-0.2 5.1-0.5 7.5-0.5zm594.3 84.7c-1 0-2.1 0.2-3.1 0.5-4.1 1-8.2 2.3-12.1 3.4-8.1 2.4-16.5 4.9-24.8 6.2-7.3 1-11.9 5-16.3 8.9-2 1.7-3.8 3.4-6 4.8l-1.1 0.7 0.7 4.7 1.6 0.1c1.1 0.1 2.1 0.3 3.3 0.5 1.8 0.3 3.6 0.6 5.5 0.6q1.4 0 2.6-0.2c15.1-3.2 30-7 41.3-9.9 2.6-0.7 5.5-2.3 8.5-4.7 2.4-2 4.3-4.5 5.3-7 0.9-2.3-0.2-5.7-1.7-7.3q-1.2-1.3-3.7-1.3zm-19.5-22.1q-1.2 0-2.3 0.2c-9.9 1.9-19.2 6.2-28.3 10.4l-2.3 1c-2.4 1.1-3.8 3.7-5.1 6.1-0.5 1-1 1.9-1.5 2.7l-1.4 2.1 12.7 4.6 9.5-2.4c10.6-2.7 21.5-5.5 32.3-8.3 0.9-0.3 4.1-1.3 5-3.5 0.6-1.6 0.6-4.5-0.1-6-0.4-0.9-1-1.2-1.5-1.4-1.5-0.5-3-1.2-4.7-1.9-4-1.8-8.3-3.6-12.3-3.6zm7.6-8.3l1 4.6 1.4 0.2q1.2 0.2 2.5 0.6c1.6 0.4 3.3 0.8 4.9 0.8q1 0 1.9-0.2c3.5-0.8 6.7-2.1 10.1-3.5q2.2-0.9 4.5-1.8l1.3-0.4v-13.8l-27.6 13.5zm96.1-28.1c-10.1 0-20.5 1-31.2 2.9-7.1 1.2-14.7 3.2-23.1 9.3l-2.7 2 3.1 1.5c1.6 0.7 3.1 1.5 4.5 2.2 3.1 1.5 5.8 2.9 8.7 3.8 5.3 1.9 10.9 3.2 16.3 4.5h0.2c8.9 2.2 17.1 3.2 24.9 3.2 12.1 0 23-2.5 33.3-7.6 3.2-1.6 5.8-3.2 7.9-5 0.9-0.7 3.6-2.9 3.3-5.7-0.3-2.8-3.4-4.2-4.4-4.7-2.8-1.3-5.8-2.4-8.9-3-10.3-2.2-21-3.4-32-3.4z"/><path class="c" d="m397.3 447.8q-1.1 0-1.9-0.3c-8.1-2.2-13.8-8.3-17.8-13.4-7.6-9.4-11.5-18.2-12.4-27.6q0.1-0.5 0.1-1.1c0-0.6 0.1-1.4 0.3-1.7 0.8-1.6 1.4-2.3 1.7-2.4 0.4 0.1 1.4 0.7 2.2 1.5 0.6 0.8 1.1 2 1.5 3.1l0.3 0.7c6.1 15.6 14.9 27.6 26.8 36.7 1.1 0.8 1.9 2.4 2.7 4.1-1.3 0.2-2.4 0.3-3.5 0.3z"/><path class="c" d="m433.5 287.5q-0.8 0-1.6-0.1h-0.7c-5.9-0.2-12-0.5-17.8-0.9q-3.5-0.2-7.1-0.4l-2.1-0.1v0.6h-9.5q-4.7 0-9.4 0c-0.8 0-1.5 0.1-2.2 0.1q-0.9 0.1-1.8 0.1-0.8 0-1.3-0.1c-1.5-0.5-3-1.5-3.5-2 0.2-1.2 1.4-2.9 2.5-3.7 2-1.2 4.8-1.7 6.7-1.9 5.1-0.5 10.1-0.8 14.9-0.8 11.2 0 21.4 1.5 31.2 4.5 2 0.6 4.4 2.4 4.9 3.2-0.1 0.8-0.4 1.4-3.2 1.4z"/><path class="c" d="m424.2 325c-3.4-0.1-6-2.6-6-5.8 0.1-4.2 4.8-9.2 8.7-9.2 1.6 0 2.9 0.5 3.9 1.6 1.2 1.2 1.8 2.9 1.8 4.9-0.1 4.7-3.8 8.5-8.2 8.5z"/><path class="c" d="m1011.8 881.9c-2.4 0-4.5-0.9-6.1-2.5-2.7-2.8-4.1-7.5-4-13.8 1-11.4 6.6-22.3 15.8-30.7 3.3-3 6.5-4.6 9.6-4.6q2.3 0 4.6 1.1c5.7 2.7 8.2 7.5 7.2 13.8-0.2 1.4-0.3 2.9-0.5 4.3-0.5 4.4-1 9-2.9 12.5-4.1 7.4-9.5 15.5-18.7 18.9q-2.6 1-5 1zm15.4-44.2c-1.5 0-3.1 0.9-5.4 2.9-7.5 6.7-12.3 15.8-14.1 26.8l-0.1 0.1v0.1c-0.2 3.4 0.4 5.7 1.6 7 0.6 0.7 1.7 1.4 3.4 1.4 1.1 0 2.4-0.3 4-1 11-4.8 18.5-19.5 15.7-30.9-0.5-2.1-1.5-6.4-5.1-6.4z"/></svg>