<svg width="32" height="32" viewBox="0 0 32 32" fill="none" xmlns="http://www.w3.org/2000/svg">
<rect width="32" height="32" fill="#1DD3F5"/>
<path d="M27.94 13.3135C27.8665 13.086 27.7275 12.8851 27.5403 12.7359C27.3532 12.5867 27.1262 12.4958 26.8877 12.4745L20.2492 11.8728L17.6242 5.74024C17.4306 5.29082 16.9898 5 16.5001 5C16.0103 5 15.5695 5.29087 15.376 5.74136L12.751 11.8729L6.11147 12.4745C5.87321 12.4963 5.64659 12.5874 5.45971 12.7365C5.27284 12.8857 5.13392 13.0863 5.06019 13.3135C4.90875 13.7784 5.0486 14.2882 5.41764 14.6096L10.4355 19.002L8.95586 25.5077C8.8476 25.986 9.03358 26.4805 9.43124 26.7674C9.64494 26.9215 9.89502 27 10.1472 27C10.3646 27 10.5802 26.9415 10.7739 26.8259L16.5001 23.4099L22.2243 26.8259C22.6431 27.0774 23.1712 27.0544 23.5679 26.7674C23.7622 26.627 23.9108 26.4328 23.9953 26.2088C24.0798 25.9849 24.0965 25.741 24.0433 25.5077L22.5637 19.002L27.5815 14.6105C27.762 14.4532 27.8922 14.2463 27.956 14.0157C28.0197 13.7851 28.0141 13.5409 27.94 13.3135Z" fill="white"/>
</svg>
